<svg width="1000" height="1000" viewBox="0 0 1000 1000" fill="none" xmlns="http://www.w3.org/2000/svg">
<rect width="1000" height="1000" rx="500" fill="url(#paint0_radial_3204_771)"/>
<path d="M270.167 341.004L447.807 341.001L497.216 419.405L453.688 495.114L404.278 419.405H320.061L183.012 658.971L89 658.966L270.167 341.004Z" fill="url(#paint1_linear_3204_771)"/>
<path d="M548.241 658.967L370.601 658.97L321.191 580.566L364.719 504.857L414.129 580.566L498.347 580.566L635.395 341L729.407 341.005L548.241 658.967Z" fill="url(#paint2_linear_3204_771)"/>
<path d="M824.944 657.49H912L797.298 458.966H709.359L824.944 657.49Z" fill="url(#paint3_linear_3204_771)"/>
<defs>
<radialGradient id="paint0_radial_3204_771" cx="0" cy="0" r="1" gradientUnits="userSpaceOnUse" gradientTransform="translate(500 500) rotate(125.059) scale(870.435)">
<stop stop-color="white"/>
<stop offset="1" stop-color="#FFEADE"/>
</radialGradient>
<linearGradient id="paint1_linear_3204_771" x1="500.5" y1="341" x2="500.5" y2="658.971" gradientUnits="userSpaceOnUse">
<stop stop-color="#FF5900"/>
<stop offset="1" stop-color="#FB3301"/>
</linearGradient>
<linearGradient id="paint2_linear_3204_771" x1="500.5" y1="658.971" x2="500.5" y2="341" gradientUnits="userSpaceOnUse">
<stop stop-color="#FF5900"/>
<stop offset="1" stop-color="#FB3301"/>
</linearGradient>
<linearGradient id="paint3_linear_3204_771" x1="810.78" y1="657.053" x2="634.315" y2="342.945" gradientUnits="userSpaceOnUse">
<stop stop-color="#FF5900"/>
<stop offset="1" stop-color="#FB3301"/>
</linearGradient>
</defs>
</svg>
