<svg width="827" height="250" viewBox="0 0 827 250" fill="none" xmlns="http://www.w3.org/2000/svg">
<path d="M50.9827 250C23.4478 250 8.42877 235.174 2.84478 219.769C1.30437 215.533 0.53418 211.297 0.149081 207.254C-0.236017 200.322 -0.236061 192.235 4.77028 187.421C6.50324 185.688 8.81386 184.34 11.1245 184.147C14.5904 184.147 17.4787 187.036 17.4787 190.309C17.4787 192.235 16.7084 193.775 15.3606 194.93C13.6276 196.663 11.1245 196.663 8.81387 197.241C4.96282 198.204 1.30438 199.937 1.68948 207.061C1.88204 210.912 2.84475 215.148 4.1926 219.192C9.77661 234.211 23.8329 248.46 50.9827 248.46C78.7101 248.46 102.779 230.167 126.27 205.328C149.569 180.489 172.098 149.296 196.552 124.071C229.478 90.1822 253.932 75.7408 276.076 75.7408C276.461 75.7408 277.038 75.7408 277.423 75.7408C290.324 76.1259 313.431 80.9397 325.369 104.431C327.872 108.667 329.412 113.673 330.375 119.065C331.145 124.456 330.953 129.27 330.375 135.047C329.797 140.631 328.45 145.637 326.524 149.873C323.251 157.19 318.437 162.004 314.008 165.47C307.076 170.091 299.374 173.75 287.436 173.75C284.163 173.75 280.697 173.557 277.231 172.979C269.721 171.824 263.175 168.936 258.168 162.389C252.969 154.687 253.354 144.867 258.361 137.55C260.671 134.276 263.752 131.966 266.833 130.425C268.951 129.27 271.262 128.115 273.957 127.152C274.728 126.96 275.69 126.574 276.461 126.189C279.734 125.227 283.007 124.264 286.858 123.301C290.324 122.338 293.79 121.376 297.064 120.413C300.722 119.257 303.61 117.91 306.306 116.562C307.461 115.984 308.617 115.406 309.58 114.636C311.12 113.673 312.468 112.326 313.431 111.17C314.201 110.208 314.778 109.437 315.356 108.667C308.232 88.6418 291.672 78.8216 280.312 77.4738C278.964 77.2812 277.423 77.2812 276.076 77.2812C254.702 77.2812 230.441 91.3375 197.707 125.227C173.253 150.258 150.724 181.452 127.426 206.483C103.934 231.322 79.2877 250 50.9827 250ZM288.014 172.209C296.486 172.209 305.536 165.855 309.58 160.656C312.468 156.998 314.971 152.376 316.511 146.215C319.4 135.047 318.822 121.376 315.741 110.4C315.356 110.785 314.971 111.363 314.586 111.941C313.431 113.481 311.89 114.636 310.35 115.984C309.579 116.754 308.424 117.332 307.269 118.102C304.573 119.835 301.492 121.376 298.026 122.916C294.753 124.264 291.48 125.612 288.014 126.96C284.548 128.307 281.467 129.655 278.579 131.196C277.808 131.581 277.231 131.966 276.461 132.351C274.343 133.699 272.61 135.239 271.454 136.587C268.181 140.053 266.063 145.252 266.063 151.028C266.255 158.731 270.106 167.01 278.001 170.091C281.274 171.439 284.548 172.209 288.014 172.209Z" fill="#FF4D00"/>
<path d="M775.976 0C803.511 0 818.53 14.8265 824.114 30.2306C825.654 34.4667 826.424 38.7029 826.81 42.7465C827.195 49.6783 827.195 57.7655 822.188 62.5793C820.455 64.3122 818.145 65.6601 815.834 65.8527C812.368 65.8527 809.48 62.9644 809.48 59.691C809.48 57.7655 810.25 56.2251 811.598 55.0698C813.331 53.3368 815.834 53.3368 818.145 52.7591C821.996 51.7964 825.654 50.0634 825.269 42.939C825.077 39.088 824.114 34.8518 822.766 30.8083C817.182 15.7892 803.126 1.54042 775.976 1.54042C748.249 1.54042 724.18 19.8328 700.688 44.672C677.39 69.5111 654.861 100.704 630.407 125.929C597.481 159.818 573.027 174.259 550.883 174.259C550.498 174.259 549.92 174.259 549.535 174.259C536.634 173.874 513.528 169.06 501.59 145.569C499.087 141.333 497.546 136.327 496.584 130.935C495.813 125.544 496.006 120.73 496.584 114.953C497.161 109.369 498.509 104.363 500.435 100.127C503.708 92.8099 508.522 87.9961 512.951 84.5302C519.882 79.9089 527.584 76.2504 539.523 76.2504C542.796 76.2504 546.262 76.443 549.728 77.0206C557.237 78.176 563.784 81.0642 568.79 87.611C573.989 95.313 573.604 105.133 568.598 112.45C566.287 115.724 563.207 118.034 560.126 119.575C558.008 120.73 555.697 121.885 553.001 122.848C552.231 123.04 551.268 123.426 550.498 123.811C547.225 124.773 543.951 125.736 540.1 126.699C536.634 127.662 533.168 128.624 529.895 129.587C526.237 130.743 523.348 132.09 520.653 133.438C519.497 134.016 518.342 134.594 517.379 135.364C515.839 136.327 514.491 137.674 513.528 138.83C512.758 139.792 512.18 140.563 511.603 141.333C518.727 161.358 535.287 171.178 546.647 172.526C547.995 172.719 549.535 172.719 550.883 172.719C572.256 172.719 596.518 158.663 629.252 124.773C653.706 99.7417 676.234 68.5484 699.533 43.5167C723.024 18.6775 747.671 0 775.976 0ZM538.945 77.7909C530.473 77.7909 521.423 84.1451 517.379 89.344C514.491 93.0024 511.988 97.6237 510.447 103.785C507.559 114.953 508.137 128.624 511.218 139.6C511.603 139.215 511.988 138.637 512.373 138.06C513.528 136.519 515.069 135.364 516.609 134.016C517.379 133.246 518.534 132.668 519.69 131.898C522.386 130.165 525.466 128.624 528.932 127.084C532.206 125.736 535.479 124.388 538.945 123.04C542.411 121.693 545.492 120.345 548.38 118.804C549.15 118.419 549.728 118.034 550.498 117.649C552.616 116.301 554.349 114.761 555.504 113.413C558.778 109.947 560.896 104.748 560.896 98.9715C560.703 91.2695 556.852 82.9897 548.958 79.9089C545.684 78.5611 542.411 77.7909 538.945 77.7909Z" fill="#FF4D00"/>
<path d="M448.548 77.6129H451.016V93.833C459.126 84.6651 468.999 76.3788 481.517 76.3788C503.908 76.3788 505.494 104.94 484.338 107.761L483.985 106.351C491.919 100.004 491.037 85.7229 481.341 82.1969C467.765 77.4366 453.661 95.4197 446.256 104.411C437.088 115.518 423.336 133.502 407.821 148.487C408.879 154.306 411.876 156.95 419.81 155.716L422.807 155.011V158.361C413.816 159.242 402.356 162.944 399.535 172.817H397.067V158.008C385.254 167.528 372.913 174.228 361.277 173.875C346.115 173.346 337.828 163.121 337.828 150.427V114.108C337.828 100.004 337.476 92.5988 325.135 94.5382L322.137 95.2434V91.8936C331.129 91.0121 342.589 87.3097 345.41 77.6129H347.878V150.603C347.878 162.063 354.577 168.234 365.861 168.586C391.601 169.291 423.865 127.683 440.967 106.174C440.438 97.3591 437.97 93.1277 428.273 94.5382L425.276 95.2434V91.8936C434.267 91.0121 445.903 87.3097 448.548 77.6129ZM404.472 77.6129H407.116V106.88C407.116 118.868 406.764 131.386 407.116 143.375H397.067V114.108C397.067 100.004 396.714 92.5988 384.373 94.5382L381.199 95.2434V91.8936C390.367 91.0121 401.827 87.3097 404.472 77.6129ZM425.276 172.641V169.468H427.391C436.912 169.468 440.967 164.355 440.967 148.487C440.967 147.782 440.967 113.579 440.967 112.874H451.016V148.487C451.016 163.65 455.247 169.468 464.768 169.468H466.884V172.641C452.955 172.641 439.204 172.641 425.276 172.641Z" fill="#FF4D00"/>
<path d="M313.136 208.823C314.009 208.8 314.771 208.568 315.42 208.127C316.07 207.679 316.611 207.161 317.044 206.573C317.485 205.985 317.813 205.463 318.03 205.007C318.246 204.551 318.354 204.323 318.354 204.323H318.424L317.589 209.159H313.971C313.971 209.159 313.967 209.155 313.959 209.148L302.234 209.159V209.113C302.613 209.113 302.937 208.977 303.208 208.707C303.479 208.436 303.614 208.108 303.614 207.721V191.658C303.614 191.28 303.479 190.955 303.208 190.684C302.937 190.414 302.613 190.278 302.234 190.278V190.232H303.614H303.846H305.771H307.163V190.278C306.776 190.278 306.448 190.414 306.177 190.684C305.906 190.955 305.771 191.28 305.771 191.658C305.771 191.658 305.771 192.517 305.771 194.233C305.771 195.942 305.771 197.902 305.771 200.113C305.771 202.324 305.771 204.311 305.771 206.074C305.771 207.829 305.771 208.746 305.771 208.823H313.136ZM333.292 207.57C333.292 208.019 333.369 208.293 333.524 208.394C333.679 208.494 333.868 208.502 334.092 208.417C334.324 208.332 334.564 208.216 334.811 208.069C334.564 208.401 334.239 208.664 333.837 208.858C333.443 209.051 333.037 209.148 332.619 209.148C332.202 209.148 331.846 209.024 331.552 208.776C331.266 208.529 331.123 208.127 331.123 207.57V205.726C330.629 206.755 329.902 207.582 328.943 208.208C327.984 208.834 326.91 209.148 325.719 209.148H325.649C324.636 209.148 323.74 208.916 322.959 208.452C321.613 207.632 320.871 206.356 320.732 204.625C320.732 204.524 320.732 204.424 320.732 204.323V197.643C320.732 197.264 320.597 196.939 320.326 196.669C320.055 196.398 319.731 196.263 319.352 196.263V196.216H321.219C321.683 196.216 322.077 196.379 322.402 196.703C322.727 197.028 322.889 197.422 322.889 197.886V204.323C322.889 204.424 322.893 204.528 322.901 204.636C322.924 205.378 323.044 206.066 323.26 206.7C323.477 207.334 323.782 207.849 324.176 208.243C324.578 208.63 325.069 208.823 325.649 208.823H325.719C326.995 208.823 328.12 208.452 329.094 207.709C330.076 206.967 330.752 206.009 331.123 204.833V197.643C331.123 197.256 330.988 196.928 330.717 196.657C330.455 196.386 330.13 196.251 329.743 196.251V196.205H331.622C332.078 196.205 332.469 196.371 332.793 196.703C333.126 197.028 333.292 197.422 333.292 197.886V205.634V206.816V207.57ZM339.288 209.101V209.148H337.746H337.316H336.215V209.101C336.934 209.101 337.56 208.815 338.094 208.243L342.292 203.384L337.92 197.144C337.463 196.556 336.895 196.263 336.215 196.263V196.216H337.258H339.903H340.9V196.263C340.699 196.263 340.552 196.352 340.459 196.529C340.367 196.7 340.378 196.873 340.494 197.051L343.753 201.702L347.464 197.399C347.65 197.16 347.681 196.912 347.557 196.657C347.441 196.394 347.236 196.263 346.942 196.263V196.216H348.485H348.914H350.027V196.263C349.301 196.263 348.667 196.549 348.125 197.121L343.939 201.98L348.311 208.22C348.767 208.807 349.335 209.101 350.016 209.101V209.148H348.96H346.328H345.33V209.101C345.531 209.101 345.678 209.016 345.771 208.846C345.864 208.668 345.852 208.49 345.736 208.313L342.477 203.662L338.766 207.965C338.581 208.204 338.546 208.456 338.662 208.718C338.785 208.974 338.994 209.101 339.288 209.101ZM365.371 207.57C365.371 208.019 365.448 208.293 365.603 208.394C365.758 208.494 365.947 208.502 366.171 208.417C366.403 208.332 366.643 208.216 366.89 208.069C366.643 208.401 366.318 208.664 365.916 208.858C365.522 209.051 365.116 209.148 364.698 209.148C364.281 209.148 363.925 209.024 363.631 208.776C363.345 208.529 363.202 208.127 363.202 207.57V205.726C362.707 206.755 361.981 207.582 361.022 208.208C360.063 208.834 358.988 209.148 357.798 209.148H357.728C356.715 209.148 355.818 208.916 355.038 208.452C353.692 207.632 352.95 206.356 352.811 204.625C352.811 204.524 352.811 204.424 352.811 204.323V197.643C352.811 197.264 352.676 196.939 352.405 196.669C352.134 196.398 351.81 196.263 351.431 196.263V196.216H353.298C353.762 196.216 354.156 196.379 354.481 196.703C354.806 197.028 354.968 197.422 354.968 197.886V204.323C354.968 204.424 354.972 204.528 354.98 204.636C355.003 205.378 355.123 206.066 355.339 206.7C355.556 207.334 355.861 207.849 356.255 208.243C356.657 208.63 357.148 208.823 357.728 208.823H357.798C359.074 208.823 360.198 208.452 361.173 207.709C362.155 206.967 362.831 206.009 363.202 204.833V197.643C363.202 197.256 363.067 196.928 362.796 196.657C362.533 196.386 362.209 196.251 361.822 196.251V196.205H363.701C364.157 196.205 364.548 196.371 364.872 196.703C365.205 197.028 365.371 197.422 365.371 197.886V205.634V206.816V207.57ZM373.223 209.078V209.124H368.294V209.078C368.68 209.078 369.009 208.943 369.279 208.672C369.55 208.401 369.685 208.077 369.685 207.698C369.685 207.698 369.685 207.327 369.685 206.585C369.685 205.835 369.685 204.907 369.685 203.801C369.685 202.695 369.685 201.586 369.685 200.473C369.685 199.359 369.685 198.408 369.685 197.62C369.685 197.233 369.55 196.904 369.279 196.634C369.009 196.363 368.68 196.228 368.294 196.228V196.181H370.172C370.613 196.181 370.992 196.332 371.309 196.634C371.626 196.928 371.804 197.299 371.842 197.747C372.306 196.982 373.072 196.495 374.139 196.286C374.464 196.216 374.846 196.178 375.287 196.17C375.735 196.154 376.145 196.193 376.516 196.286C376.895 196.379 377.135 196.553 377.235 196.808C377.313 197.071 377.274 197.303 377.119 197.504C376.965 197.697 376.764 197.794 376.516 197.794C376.377 197.794 376.253 197.763 376.145 197.701L375.067 197.121C374.301 196.742 373.598 196.742 372.956 197.121C372.322 197.492 371.951 198.099 371.842 198.942C371.842 200.024 371.842 201.238 371.842 202.583C371.842 203.929 371.842 205.096 371.842 206.086C371.842 207.068 371.842 207.605 371.842 207.698C371.842 208.077 371.978 208.401 372.248 208.672C372.519 208.943 372.844 209.078 373.223 209.078ZM380.425 197.318C380.262 196.993 380.034 196.734 379.74 196.541C379.439 196.348 379.11 196.251 378.755 196.251V196.205H383.533V196.251C383.27 196.251 383.053 196.359 382.883 196.576C382.721 196.792 382.69 197.028 382.791 197.283C383.146 198.041 383.614 199.046 384.194 200.299C384.774 201.543 385.365 202.815 385.968 204.114C386.571 205.405 387.086 206.507 387.511 207.42C387.936 208.324 388.149 208.776 388.149 208.776L388.16 208.8L393.46 197.48C393.514 197.364 393.542 197.245 393.542 197.121C393.542 196.897 393.46 196.696 393.298 196.518C393.136 196.34 392.931 196.251 392.683 196.251V196.205H395.757V196.251H395.536C395.188 196.251 394.868 196.344 394.574 196.529C394.288 196.715 394.067 196.966 393.913 197.283C393.913 197.283 393.6 197.944 392.973 199.266C392.347 200.589 391.605 202.158 390.747 203.975C389.896 205.792 389.088 207.516 388.323 209.148L388.334 209.159H388.323C387.781 210.311 387.345 211.258 387.012 212.001C386.803 212.511 386.51 213.106 386.131 213.787C385.752 214.467 385.276 215.07 384.704 215.596C384.132 216.129 383.448 216.423 382.651 216.477C382.396 216.477 382.176 216.384 381.99 216.199C381.813 216.021 381.724 215.801 381.724 215.538C381.724 215.283 381.813 215.062 381.99 214.877C382.176 214.699 382.396 214.61 382.651 214.61C383.285 214.61 383.83 214.513 384.287 214.32C384.743 214.135 385.129 213.895 385.446 213.601C385.771 213.307 386.038 213.002 386.247 212.685C386.455 212.368 386.622 212.074 386.745 211.803L387.986 209.159H385.945L380.425 197.318ZM421.039 195.81C421.039 196.839 420.746 197.805 420.158 198.71C419.57 199.607 418.774 200.333 417.769 200.89C416.764 201.439 415.616 201.729 414.324 201.76C414.147 201.76 413.918 201.76 413.64 201.76C414.096 201.93 414.502 202.147 414.858 202.409C415.391 202.866 415.793 203.341 416.064 203.836C416.35 204.3 416.621 204.768 416.876 205.239C417.239 205.927 417.649 206.592 418.105 207.234C418.291 207.497 418.523 207.752 418.801 207.999C419.087 208.239 419.416 208.44 419.787 208.602C420.166 208.765 420.583 208.846 421.039 208.846C421.039 208.846 420.862 208.9 420.506 209.008C420.158 209.117 419.713 209.175 419.172 209.182C418.639 209.198 418.074 209.082 417.479 208.834C416.891 208.587 416.342 208.123 415.832 207.443C415.832 207.435 415.828 207.427 415.82 207.42C415.82 207.42 415.82 207.416 415.82 207.408C415.357 206.751 414.939 206.074 414.568 205.378C414.321 204.914 414.054 204.454 413.768 203.998C413.489 203.519 413.111 203.07 412.631 202.653C412.113 202.266 411.537 202.015 410.903 201.899C410.269 201.775 409.593 201.717 408.874 201.725V201.632C409.662 201.416 410.443 201.311 411.216 201.319C411.216 201.319 411.224 201.319 411.239 201.319C411.348 201.327 411.456 201.331 411.564 201.331C411.873 201.346 412.283 201.358 412.794 201.366C413.304 201.366 413.814 201.358 414.324 201.342C415.445 201.281 416.335 200.998 416.992 200.496C417.657 199.993 418.132 199.332 418.418 198.513C418.704 197.693 418.847 196.792 418.847 195.81C418.847 194.821 418.604 193.928 418.117 193.131C417.637 192.327 416.992 191.693 416.18 191.229C415.368 190.758 414.467 190.522 413.478 190.522H408.34C408.34 190.607 408.34 191.508 408.34 193.224C408.34 194.933 408.34 196.893 408.34 199.104C408.34 201.315 408.34 203.256 408.34 204.926C408.34 206.596 408.34 207.52 408.34 207.698C408.34 208.077 408.475 208.401 408.746 208.672C409.017 208.943 409.345 209.078 409.732 209.078V209.124H404.803V209.078C405.182 209.078 405.506 208.943 405.777 208.672C406.048 208.401 406.183 208.077 406.183 207.698V191.624C406.183 191.245 406.048 190.92 405.777 190.649C405.506 190.379 405.182 190.244 404.803 190.244V190.197H415.055C416.331 190.197 417.413 190.452 418.302 190.963C419.192 191.465 419.868 192.142 420.332 192.992C420.804 193.835 421.039 194.774 421.039 195.81ZM428.601 209.31C427.387 209.31 426.278 209.012 425.272 208.417C424.267 207.822 423.463 207.021 422.86 206.016C422.265 205.011 421.967 203.898 421.967 202.676C421.967 201.462 422.265 200.364 422.86 199.382C423.463 198.393 424.264 197.604 425.261 197.017C426.258 196.429 427.372 196.104 428.601 196.042C429.815 196.027 430.808 196.228 431.582 196.645C432.362 197.063 432.946 197.542 433.333 198.083C433.719 198.625 433.936 199.077 433.982 199.44C433.998 199.502 434.005 199.556 434.005 199.603C434.005 199.626 434.002 199.649 433.994 199.672C433.986 199.703 433.971 199.726 433.947 199.742C433.924 199.757 433.897 199.765 433.866 199.765H432.741H424.426C424.209 200.654 424.101 201.625 424.101 202.676C424.101 203.82 424.283 204.779 424.646 205.552C425.01 206.318 425.485 206.917 426.073 207.35C426.66 207.783 427.302 208.073 427.998 208.22C428.702 208.367 429.397 208.39 430.085 208.289C430.781 208.181 431.415 207.972 431.987 207.663C432.56 207.346 433.008 206.952 433.333 206.48L433.495 206.469C432.892 207.319 432.165 208.007 431.315 208.533C430.472 209.051 429.567 209.31 428.601 209.31ZM428.601 196.367C427.836 196.367 427.182 196.498 426.641 196.761C426.108 197.017 425.667 197.372 425.319 197.828C424.971 198.285 424.704 198.822 424.519 199.44H430.758C431.083 199.44 431.315 199.336 431.454 199.127C431.593 198.919 431.64 198.663 431.593 198.362C431.547 198.06 431.404 197.759 431.164 197.457C430.932 197.148 430.6 196.889 430.167 196.68C429.741 196.471 429.22 196.367 428.601 196.367ZM446.566 207.501C446.264 207.779 445.939 208.03 445.591 208.255C444.486 208.95 443.299 209.298 442.031 209.298C440.809 209.298 439.696 209.001 438.691 208.405C437.693 207.802 436.893 207.002 436.29 206.005C435.695 205 435.397 203.89 435.397 202.676C435.397 201.455 435.695 200.345 436.29 199.348C436.893 198.343 437.693 197.542 438.691 196.947C439.696 196.344 440.809 196.042 442.031 196.042C443.747 196.042 445.259 196.642 446.566 197.84V191.89C446.566 191.434 446.728 191.044 447.053 190.719C447.377 190.387 447.772 190.22 448.236 190.22H450.103V190.267C449.724 190.267 449.399 190.402 449.129 190.673C448.858 190.943 448.723 191.272 448.723 191.658V206.353V207.57C448.723 208.019 448.8 208.293 448.955 208.394C449.109 208.494 449.303 208.502 449.535 208.417C449.767 208.332 450.006 208.216 450.254 208.069C450.006 208.401 449.682 208.664 449.279 208.858C448.877 209.051 448.468 209.148 448.05 209.148C447.64 209.148 447.289 209.024 446.995 208.776C446.709 208.529 446.566 208.127 446.566 207.57V207.501ZM442.031 196.367C441.242 196.367 440.55 196.614 439.955 197.109C439.36 197.596 438.873 198.238 438.494 199.034C438.115 199.823 437.86 200.685 437.728 201.621C437.597 202.549 437.601 203.469 437.74 204.381C437.879 205.293 438.165 206.113 438.598 206.84C439.031 207.566 439.623 208.119 440.373 208.498C441.13 208.877 442.058 209.001 443.156 208.869C444.494 208.66 445.63 208.057 446.566 207.06V206.353V198.304C445.282 197.013 443.771 196.367 442.031 196.367ZM457.711 209.31C456.497 209.31 455.388 209.012 454.382 208.417C453.377 207.822 452.573 207.021 451.97 206.016C451.375 205.011 451.077 203.898 451.077 202.676C451.077 201.462 451.375 200.364 451.97 199.382C452.573 198.393 453.373 197.604 454.371 197.017C455.368 196.429 456.482 196.104 457.711 196.042C458.925 196.027 459.918 196.228 460.692 196.645C461.472 197.063 462.056 197.542 462.443 198.083C462.829 198.625 463.046 199.077 463.092 199.44C463.108 199.502 463.115 199.556 463.115 199.603C463.115 199.626 463.112 199.649 463.104 199.672C463.096 199.703 463.081 199.726 463.057 199.742C463.034 199.757 463.007 199.765 462.976 199.765H461.851H453.536C453.319 200.654 453.211 201.625 453.211 202.676C453.211 203.82 453.393 204.779 453.756 205.552C454.12 206.318 454.595 206.917 455.183 207.35C455.77 207.783 456.412 208.073 457.108 208.22C457.811 208.367 458.507 208.39 459.195 208.289C459.891 208.181 460.525 207.972 461.097 207.663C461.67 207.346 462.118 206.952 462.443 206.48L462.605 206.469C462.002 207.319 461.275 208.007 460.425 208.533C459.582 209.051 458.677 209.31 457.711 209.31ZM457.711 196.367C456.945 196.367 456.292 196.498 455.751 196.761C455.217 197.017 454.777 197.372 454.429 197.828C454.081 198.285 453.814 198.822 453.629 199.44H459.868C460.193 199.44 460.425 199.336 460.564 199.127C460.703 198.919 460.749 198.663 460.703 198.362C460.657 198.06 460.514 197.759 460.274 197.457C460.042 197.148 459.71 196.889 459.277 196.68C458.851 196.471 458.329 196.367 457.711 196.367ZM471.361 190.197C471.57 190.197 471.748 190.274 471.895 190.429C472.049 190.576 472.127 190.754 472.127 190.963C472.127 191.171 472.049 191.349 471.895 191.496C471.748 191.643 471.57 191.716 471.361 191.716C471.299 191.716 471.238 191.709 471.176 191.693C471.075 191.662 470.975 191.635 470.874 191.612C470.24 191.434 469.703 191.307 469.262 191.229C468.821 191.152 468.427 191.156 468.079 191.241C467.94 191.272 467.82 191.33 467.72 191.415C467.627 191.5 467.58 191.612 467.58 191.751V195.88H470.712V196.205H467.592V207.721C467.592 208.108 467.724 208.436 467.986 208.707C468.257 208.97 468.586 209.101 468.972 209.101V209.148H464.043V209.101C464.422 209.101 464.747 208.97 465.017 208.707C465.288 208.436 465.423 208.108 465.423 207.721V199.023V196.205H464.333V195.88H465.423V194.535C465.423 193.738 465.617 193.011 466.003 192.354C466.398 191.697 466.923 191.175 467.58 190.789C468.238 190.394 468.964 190.197 469.761 190.197H471.338V190.209C471.338 190.209 471.342 190.209 471.35 190.209C471.357 190.201 471.361 190.197 471.361 190.197ZM476.487 207.721C476.487 208.108 476.623 208.436 476.893 208.707C477.164 208.97 477.493 209.101 477.879 209.101V209.148H472.95V209.101C473.329 209.101 473.654 208.97 473.924 208.707C474.195 208.436 474.33 208.108 474.33 207.721C474.33 207.721 474.33 207.35 474.33 206.608C474.33 205.858 474.33 204.93 474.33 203.824C474.33 202.719 474.33 201.609 474.33 200.496C474.33 199.382 474.33 198.431 474.33 197.643C474.33 197.256 474.195 196.928 473.924 196.657C473.654 196.386 473.329 196.251 472.95 196.251V196.205H474.817C475.281 196.205 475.676 196.371 476 196.703C476.325 197.028 476.487 197.422 476.487 197.886C476.487 198.605 476.487 199.51 476.487 200.6C476.487 201.683 476.487 202.765 476.487 203.847C476.487 204.922 476.487 205.823 476.487 206.55C476.487 207.277 476.487 207.667 476.487 207.721ZM474.006 193.897C474.006 193.603 474.11 193.352 474.319 193.143C474.527 192.934 474.779 192.83 475.072 192.83C475.366 192.83 475.618 192.934 475.826 193.143C476.035 193.352 476.139 193.603 476.139 193.897C476.139 194.191 476.035 194.442 475.826 194.651C475.618 194.859 475.366 194.964 475.072 194.964C474.779 194.964 474.527 194.859 474.319 194.651C474.11 194.442 474.006 194.191 474.006 193.897ZM488.224 196.367C486.956 196.367 485.831 196.738 484.849 197.48C483.875 198.223 483.199 199.181 482.82 200.357C482.82 201.431 482.82 202.529 482.82 203.65C482.82 204.771 482.82 205.715 482.82 206.48C482.82 207.246 482.82 207.659 482.82 207.721C482.82 208.108 482.955 208.436 483.226 208.707C483.496 208.97 483.825 209.101 484.211 209.101V209.148H479.282V209.101C479.661 209.101 479.986 208.97 480.257 208.707C480.527 208.436 480.663 208.108 480.663 207.721C480.663 207.721 480.663 207.35 480.663 206.608C480.663 205.858 480.663 204.93 480.663 203.824C480.663 202.719 480.663 201.609 480.663 200.496C480.663 199.382 480.663 198.431 480.663 197.643C480.663 197.256 480.527 196.928 480.257 196.657C479.986 196.386 479.661 196.251 479.282 196.251V196.205H481.15C481.614 196.205 482.008 196.371 482.333 196.703C482.657 197.028 482.82 197.422 482.82 197.886C482.82 198.327 482.82 198.853 482.82 199.464C483.314 198.435 484.041 197.608 485 196.982C485.959 196.355 487.033 196.042 488.224 196.042H488.305C489.249 196.042 490.091 196.247 490.834 196.657C491.576 197.059 492.16 197.623 492.585 198.35C493.01 199.077 493.223 199.916 493.223 200.867V207.721C493.223 208.108 493.358 208.436 493.629 208.707C493.899 208.97 494.224 209.101 494.603 209.101V209.148H489.685V209.101C490.049 209.101 490.358 208.981 490.613 208.742C490.876 208.502 491.023 208.197 491.054 207.825V200.867C491.054 200.094 490.95 199.363 490.741 198.675C490.54 197.987 490.234 197.43 489.825 197.005C489.415 196.58 488.908 196.367 488.305 196.367H488.224ZM502.06 209.31C500.846 209.31 499.737 209.012 498.732 208.417C497.726 207.822 496.922 207.021 496.319 206.016C495.724 205.011 495.426 203.898 495.426 202.676C495.426 201.462 495.724 200.364 496.319 199.382C496.922 198.393 497.723 197.604 498.72 197.017C499.717 196.429 500.831 196.104 502.06 196.042C503.274 196.027 504.267 196.228 505.041 196.645C505.822 197.063 506.405 197.542 506.792 198.083C507.178 198.625 507.395 199.077 507.441 199.44C507.457 199.502 507.465 199.556 507.465 199.603C507.465 199.626 507.461 199.649 507.453 199.672C507.445 199.703 507.43 199.726 507.407 199.742C507.383 199.757 507.356 199.765 507.325 199.765H506.2H497.885C497.668 200.654 497.56 201.625 497.56 202.676C497.56 203.82 497.742 204.779 498.105 205.552C498.469 206.318 498.944 206.917 499.532 207.35C500.119 207.783 500.761 208.073 501.457 208.22C502.161 208.367 502.856 208.39 503.545 208.289C504.24 208.181 504.874 207.972 505.447 207.663C506.019 207.346 506.467 206.952 506.792 206.48L506.954 206.469C506.351 207.319 505.624 208.007 504.774 208.533C503.931 209.051 503.027 209.31 502.06 209.31ZM502.06 196.367C501.295 196.367 500.641 196.498 500.1 196.761C499.567 197.017 499.126 197.372 498.778 197.828C498.43 198.285 498.163 198.822 497.978 199.44H504.217C504.542 199.44 504.774 199.336 504.913 199.127C505.052 198.919 505.099 198.663 505.052 198.362C505.006 198.06 504.863 197.759 504.623 197.457C504.391 197.148 504.059 196.889 503.626 196.68C503.2 196.471 502.679 196.367 502.06 196.367ZM520.025 207.501C519.723 207.779 519.398 208.03 519.05 208.255C517.945 208.95 516.758 209.298 515.49 209.298C514.268 209.298 513.155 209.001 512.15 208.405C511.153 207.802 510.352 207.002 509.749 206.005C509.154 205 508.856 203.89 508.856 202.676C508.856 201.455 509.154 200.345 509.749 199.348C510.352 198.343 511.153 197.542 512.15 196.947C513.155 196.344 514.268 196.042 515.49 196.042C517.206 196.042 518.718 196.642 520.025 197.84V191.89C520.025 191.434 520.187 191.044 520.512 190.719C520.837 190.387 521.231 190.22 521.695 190.22H523.562V190.267C523.183 190.267 522.858 190.402 522.588 190.673C522.317 190.943 522.182 191.272 522.182 191.658V206.353V207.57C522.182 208.019 522.259 208.293 522.414 208.394C522.568 208.494 522.762 208.502 522.994 208.417C523.226 208.332 523.465 208.216 523.713 208.069C523.465 208.401 523.141 208.664 522.739 208.858C522.336 209.051 521.927 209.148 521.509 209.148C521.099 209.148 520.748 209.024 520.454 208.776C520.168 208.529 520.025 208.127 520.025 207.57V207.501ZM515.49 196.367C514.701 196.367 514.009 196.614 513.414 197.109C512.819 197.596 512.332 198.238 511.953 199.034C511.574 199.823 511.319 200.685 511.187 201.621C511.056 202.549 511.06 203.469 511.199 204.381C511.338 205.293 511.624 206.113 512.057 206.84C512.49 207.566 513.082 208.119 513.832 208.498C514.589 208.877 515.517 209.001 516.615 208.869C517.953 208.66 519.089 208.057 520.025 207.06V206.353V198.304C518.741 197.013 517.23 196.367 515.49 196.367Z" fill="#FF4D00"/>
</svg>
