<svg width="827" height="250" fill="none" xmlns="http://www.w3.org/2000/svg"><path d="M50.983 250c-27.535 0-42.554-14.826-48.138-30.231-1.54-4.236-2.31-8.472-2.696-12.515-.385-6.932-.385-15.019 4.621-19.833 1.733-1.733 4.044-3.081 6.354-3.274 3.466 0 6.355 2.889 6.355 6.162 0 1.926-.77 3.466-2.118 4.621-1.733 1.733-4.237 1.733-6.547 2.311-3.851.963-7.51 2.696-7.125 9.82.193 3.851 1.156 8.087 2.504 12.131 5.584 15.019 19.64 29.268 46.79 29.268 27.727 0 51.796-18.293 75.287-43.132 23.299-24.839 45.828-56.032 70.282-81.257 32.926-33.889 57.38-48.33 79.524-48.33h1.347c12.901.385 36.008 5.199 47.946 28.69 2.503 4.236 4.043 9.242 5.006 14.634.77 5.391.578 10.205 0 15.982-.578 5.584-1.925 10.59-3.851 14.826-3.273 7.317-8.087 12.131-12.516 15.597-6.932 4.621-14.634 8.28-26.572 8.28-3.273 0-6.739-.193-10.205-.771-7.51-1.155-14.056-4.043-19.063-10.59-5.199-7.702-4.814-17.522.193-24.839 2.31-3.274 5.391-5.584 8.472-7.125 2.118-1.155 4.429-2.31 7.124-3.273.771-.192 1.733-.578 2.504-.963 3.273-.962 6.546-1.925 10.397-2.888 3.466-.963 6.932-1.925 10.206-2.888 3.658-1.156 6.546-2.503 9.242-3.851 1.155-.578 2.311-1.156 3.274-1.926 1.54-.963 2.888-2.31 3.851-3.466.77-.962 1.347-1.733 1.925-2.503-7.124-20.025-23.684-29.845-35.044-31.193-1.348-.193-2.889-.193-4.236-.193-21.374 0-45.635 14.056-78.369 47.946-24.454 25.031-46.983 56.225-70.281 81.256C103.934 231.322 79.288 250 50.983 250zm237.031-77.791c8.472 0 17.522-6.354 21.566-11.553 2.888-3.658 5.391-8.28 6.931-14.441 2.889-11.168 2.311-24.839-.77-35.815-.385.385-.77.963-1.155 1.541-1.155 1.54-2.696 2.695-4.236 4.043-.771.77-1.926 1.348-3.081 2.118-2.696 1.733-5.777 3.274-9.243 4.814-3.273 1.348-6.546 2.696-10.012 4.044-3.466 1.347-6.547 2.695-9.435 4.236-.771.385-1.348.77-2.118 1.155-2.118 1.348-3.851 2.888-5.007 4.236-3.273 3.466-5.391 8.665-5.391 14.441.192 7.703 4.043 15.982 11.938 19.063 3.273 1.348 6.547 2.118 10.013 2.118zM775.976 0c27.535 0 42.554 14.826 48.138 30.23 1.54 4.237 2.31 8.473 2.696 12.516.385 6.932.385 15.02-4.622 19.833-1.733 1.733-4.043 3.081-6.354 3.274-3.466 0-6.354-2.889-6.354-6.162 0-1.925.77-3.466 2.118-4.621 1.733-1.733 4.236-1.733 6.547-2.31 3.851-.964 7.509-2.697 7.124-9.821-.192-3.851-1.155-8.087-2.503-12.13-5.584-15.02-19.64-29.269-46.79-29.269-27.727 0-51.796 18.293-75.288 43.132-23.298 24.84-45.827 56.032-70.281 81.257-32.926 33.889-57.38 48.33-79.524 48.33h-1.348c-12.901-.385-36.007-5.199-47.945-28.69-2.503-4.236-4.044-9.242-5.006-14.634-.771-5.391-.578-10.205 0-15.982.577-5.584 1.925-10.59 3.851-14.826 3.273-7.317 8.087-12.13 12.516-15.597 6.931-4.621 14.633-8.28 26.572-8.28 3.273 0 6.739.193 10.205.77 7.509 1.156 14.056 4.044 19.062 10.591 5.199 7.702 4.814 17.522-.192 24.839-2.311 3.274-5.391 5.584-8.472 7.125-2.118 1.155-4.429 2.31-7.125 3.273-.77.192-1.733.578-2.503.963-3.273.962-6.547 1.925-10.398 2.888-3.466.963-6.932 1.925-10.205 2.888-3.658 1.156-6.547 2.503-9.242 3.851-1.156.578-2.311 1.156-3.274 1.926-1.54.963-2.888 2.31-3.851 3.466a92.107 92.107 0 00-1.925 2.503c7.124 20.025 23.684 29.845 35.044 31.193 1.348.193 2.888.193 4.236.193 21.373 0 45.635-14.056 78.369-47.946 24.454-25.031 46.982-56.225 70.281-81.256C723.024 18.677 747.671 0 775.976 0zM538.945 77.79c-8.472 0-17.522 6.355-21.566 11.554-2.888 3.658-5.391 8.28-6.932 14.441-2.888 11.168-2.31 24.839.771 35.815.385-.385.77-.963 1.155-1.54 1.155-1.541 2.696-2.696 4.236-4.044.77-.77 1.925-1.348 3.081-2.118 2.696-1.733 5.776-3.274 9.242-4.814 3.274-1.348 6.547-2.696 10.013-4.044 3.466-1.347 6.547-2.695 9.435-4.236.77-.385 1.348-.77 2.118-1.155 2.118-1.348 3.851-2.888 5.006-4.236 3.274-3.466 5.392-8.665 5.392-14.441-.193-7.703-4.044-15.982-11.938-19.063-3.274-1.348-6.547-2.118-10.013-2.118z" fill="#FF4D00"/><path d="M448.548 77.613h2.468v16.22c8.11-9.168 17.983-17.454 30.501-17.454 22.391 0 23.977 28.561 2.821 31.382l-.353-1.41c7.934-6.347 7.052-20.628-2.644-24.154-13.576-4.76-27.68 13.223-35.085 22.214-9.168 11.107-22.92 29.091-38.435 44.076 1.058 5.819 4.055 8.463 11.989 7.229l2.997-.705v3.35c-8.991.881-20.451 4.583-23.272 14.456h-2.468v-14.809c-11.813 9.52-24.154 16.22-35.79 15.867-15.162-.529-23.449-10.754-23.449-23.448v-36.319c0-14.104-.352-21.51-12.693-19.57l-2.998.705v-3.35c8.992-.88 20.452-4.583 23.273-14.28h2.468v72.99c0 11.46 6.699 17.631 17.983 17.983 25.74.705 58.004-40.903 75.106-62.412-.529-8.815-2.997-13.046-12.694-11.636l-2.997.705v-3.35c8.991-.88 20.627-4.583 23.272-14.28zm-44.076 0h2.644v29.267c0 11.988-.352 24.506 0 36.495h-10.049v-29.267c0-14.104-.353-21.51-12.694-19.57l-3.174.705v-3.35c9.168-.88 20.628-4.583 23.273-14.28zm20.804 95.028v-3.173h2.115c9.521 0 13.576-5.113 13.576-20.981v-35.613h10.049v35.613c0 15.163 4.231 20.981 13.752 20.981h2.116v3.173h-41.608zM313.136 208.823c.873-.023 1.635-.255 2.284-.696a6.75 6.75 0 001.624-1.554c.441-.588.769-1.11.986-1.566l.324-.684h.07l-.835 4.836h-3.618l-.012-.011-11.725.011v-.046c.379 0 .703-.136.974-.406.271-.271.406-.599.406-.986v-16.063c0-.378-.135-.703-.406-.974a1.331 1.331 0 00-.974-.406v-.046h4.929v.046c-.387 0-.715.136-.986.406a1.329 1.329 0 00-.406.974v17.165h7.365zm20.156-1.253c0 .449.077.723.232.824.155.1.344.108.568.023a4.32 4.32 0 00.719-.348 2.595 2.595 0 01-.974.789c-.394.193-.8.29-1.218.29a1.6 1.6 0 01-1.067-.372c-.286-.247-.429-.649-.429-1.206v-1.844a6.027 6.027 0 01-2.18 2.482c-.959.626-2.033.94-3.224.94h-.07c-1.013 0-1.909-.232-2.69-.696-1.346-.82-2.088-2.096-2.227-3.827V197.643c0-.379-.135-.704-.406-.974a1.327 1.327 0 00-.974-.406v-.047h1.867c.464 0 .858.163 1.183.487.325.325.487.719.487 1.183v6.437c0 .101.004.205.012.313.023.742.143 1.43.359 2.064.217.634.522 1.149.916 1.543.402.387.893.58 1.473.58h.07c1.276 0 2.401-.371 3.375-1.114a5.65 5.65 0 002.029-2.876v-7.19c0-.387-.135-.715-.406-.986a1.3 1.3 0 00-.974-.406v-.046h1.879c.456 0 .847.166 1.171.498.333.325.499.719.499 1.183v9.684zm5.996 1.531v.047h-3.073v-.047c.719 0 1.345-.286 1.879-.858l4.198-4.859-4.372-6.24c-.457-.588-1.025-.881-1.705-.881v-.047h4.685v.047a.465.465 0 00-.441.266c-.092.171-.081.344.035.522l3.259 4.651 3.711-4.303c.186-.239.217-.487.093-.742-.116-.263-.321-.394-.615-.394v-.047h3.085v.047c-.726 0-1.36.286-1.902.858l-4.186 4.859 4.372 6.24c.456.587 1.024.881 1.705.881v.047h-4.686v-.047a.468.468 0 00.441-.255.495.495 0 00-.035-.533l-3.259-4.651-3.711 4.303c-.185.239-.22.491-.104.753.123.256.332.383.626.383zm26.083-1.531c0 .449.077.723.232.824.155.1.344.108.568.023a4.32 4.32 0 00.719-.348 2.595 2.595 0 01-.974.789c-.394.193-.8.29-1.218.29a1.6 1.6 0 01-1.067-.372c-.286-.247-.429-.649-.429-1.206v-1.844a6.034 6.034 0 01-2.18 2.482c-.959.626-2.034.94-3.224.94h-.07c-1.013 0-1.91-.232-2.69-.696-1.346-.82-2.088-2.096-2.227-3.827V197.643c0-.379-.135-.704-.406-.974a1.327 1.327 0 00-.974-.406v-.047h1.867c.464 0 .858.163 1.183.487.325.325.487.719.487 1.183v6.437c0 .101.004.205.012.313.023.742.143 1.43.359 2.064.217.634.522 1.149.916 1.543.402.387.893.58 1.473.58h.07c1.276 0 2.4-.371 3.375-1.114a5.65 5.65 0 002.029-2.876v-7.19c0-.387-.135-.715-.406-.986a1.302 1.302 0 00-.974-.406v-.046h1.879c.456 0 .847.166 1.171.498.333.325.499.719.499 1.183v9.684zm7.852 1.508v.046h-4.929v-.046c.386 0 .715-.135.985-.406.271-.271.406-.595.406-.974v-1.113-2.784-3.328-2.853a1.34 1.34 0 00-.406-.986 1.339 1.339 0 00-.985-.406v-.047h1.878c.441 0 .82.151 1.137.453.317.294.495.665.533 1.113.464-.765 1.23-1.252 2.297-1.461.325-.07.707-.108 1.148-.116.448-.016.858.023 1.229.116.379.093.619.267.719.522.078.263.039.495-.116.696a.735.735 0 01-.603.29.733.733 0 01-.371-.093l-1.078-.58c-.766-.379-1.469-.379-2.111 0-.634.371-1.005.978-1.114 1.821v8.756c0 .379.136.703.406.974.271.271.596.406.975.406zm7.202-11.76a1.962 1.962 0 00-.685-.777 1.791 1.791 0 00-.985-.29v-.046h4.778v.046a.791.791 0 00-.65.325.687.687 0 00-.092.707c.355.758.823 1.763 1.403 3.016.58 1.244 1.171 2.516 1.774 3.815.603 1.291 1.118 2.393 1.543 3.306l.638 1.356.011.024 5.3-11.32a.84.84 0 00.082-.359.874.874 0 00-.244-.603.796.796 0 00-.615-.267v-.046h3.074v.046h-.221a1.77 1.77 0 00-.962.278 1.84 1.84 0 00-.661.754l-.94 1.983-2.226 4.709-2.424 5.173.011.011h-.011a174.737 174.737 0 00-1.311 2.842c-.209.51-.502 1.105-.881 1.786a7.213 7.213 0 01-1.427 1.809 3.245 3.245 0 01-2.053.881.906.906 0 01-.661-.278.9.9 0 01-.266-.661c0-.255.089-.476.266-.661a.923.923 0 01.661-.267c.634 0 1.179-.097 1.636-.29a3.765 3.765 0 001.159-.719 4.83 4.83 0 00.801-.916c.208-.317.375-.611.498-.882l1.241-2.644h-2.041l-5.52-11.841zm40.614-1.508c0 1.029-.293 1.995-.881 2.9-.588.897-1.384 1.623-2.389 2.18-1.005.549-2.153.839-3.445.87h-.684c.456.17.862.387 1.218.649.533.457.935.932 1.206 1.427.286.464.557.932.812 1.403.363.688.773 1.353 1.229 1.995.186.263.418.518.696.765.286.24.615.441.986.603.379.163.796.244 1.252.244l-.533.162c-.348.109-.793.167-1.334.174-.533.016-1.098-.1-1.693-.348-.588-.247-1.137-.711-1.647-1.391 0-.008-.004-.016-.012-.023v-.012a19.214 19.214 0 01-1.252-2.03 22.472 22.472 0 00-.8-1.38 5.372 5.372 0 00-1.137-1.345 4.075 4.075 0 00-1.728-.754 9.98 9.98 0 00-2.029-.174v-.093a8.497 8.497 0 012.342-.313h.023c.109.008.217.012.325.012.309.015.719.027 1.23.035.51 0 1.02-.008 1.53-.024 1.121-.061 2.011-.344 2.668-.846a4.132 4.132 0 001.426-1.983c.286-.82.429-1.721.429-2.703 0-.989-.243-1.882-.73-2.679a5.258 5.258 0 00-1.937-1.902c-.812-.471-1.713-.707-2.702-.707h-5.138v17.176c0 .379.135.703.406.974s.599.406.986.406v.046h-4.929v-.046c.379 0 .703-.135.974-.406s.406-.595.406-.974v-16.074a1.33 1.33 0 00-.406-.975 1.33 1.33 0 00-.974-.405v-.047h10.252c1.276 0 2.358.255 3.247.766.89.502 1.566 1.179 2.03 2.029.472.843.707 1.782.707 2.818zm7.562 13.5c-1.214 0-2.323-.298-3.329-.893a6.832 6.832 0 01-2.412-2.401c-.595-1.005-.893-2.118-.893-3.34 0-1.214.298-2.312.893-3.294a6.832 6.832 0 012.401-2.365c.997-.588 2.111-.913 3.34-.975 1.214-.015 2.207.186 2.981.603.78.418 1.364.897 1.751 1.438.386.542.603.994.649 1.357a.656.656 0 01.023.163.207.207 0 01-.011.069.113.113 0 01-.047.07.145.145 0 01-.081.023h-9.44a12.27 12.27 0 00-.325 2.911c0 1.144.182 2.103.545 2.876.364.766.839 1.365 1.427 1.798a4.926 4.926 0 001.925.87 5.86 5.86 0 003.989-.557c.573-.317 1.021-.711 1.346-1.183l.162-.011a7.491 7.491 0 01-2.18 2.064 5.094 5.094 0 01-2.714.777zm0-12.943c-.765 0-1.419.131-1.96.394a3.59 3.59 0 00-1.322 1.067 4.998 4.998 0 00-.8 1.612h6.239c.325 0 .557-.104.696-.313.139-.208.186-.464.139-.765-.046-.302-.189-.603-.429-.905-.232-.309-.564-.568-.997-.777-.426-.209-.947-.313-1.566-.313zm17.965 11.134a7.24 7.24 0 01-.975.754c-1.105.695-2.292 1.043-3.56 1.043-1.222 0-2.335-.297-3.34-.893a6.99 6.99 0 01-2.401-2.4c-.595-1.005-.893-2.115-.893-3.329 0-1.221.298-2.331.893-3.328a6.858 6.858 0 012.401-2.401c1.005-.603 2.118-.905 3.34-.905 1.716 0 3.228.6 4.535 1.798v-5.95c0-.456.162-.846.487-1.171a1.593 1.593 0 011.183-.499h1.867v.047c-.379 0-.704.135-.974.406-.271.27-.406.599-.406.985v15.912c0 .449.077.723.232.824.154.1.348.108.58.023.232-.085.471-.201.719-.348a2.598 2.598 0 01-.975.789 2.81 2.81 0 01-1.229.29c-.41 0-.761-.124-1.055-.372-.286-.247-.429-.649-.429-1.206v-.069zm-4.535-11.134c-.789 0-1.481.247-2.076.742-.595.487-1.082 1.129-1.461 1.925a8.76 8.76 0 00-.766 2.587 9.453 9.453 0 00.012 2.76c.139.912.425 1.732.858 2.459a4.272 4.272 0 001.775 1.658c.757.379 1.685.503 2.783.371 1.338-.209 2.474-.812 3.41-1.809v-8.756c-1.284-1.291-2.795-1.937-4.535-1.937zm15.68 12.943c-1.214 0-2.323-.298-3.329-.893a6.832 6.832 0 01-2.412-2.401c-.595-1.005-.893-2.118-.893-3.34 0-1.214.298-2.312.893-3.294a6.823 6.823 0 012.401-2.365c.997-.588 2.111-.913 3.34-.975 1.214-.015 2.207.186 2.981.603.78.418 1.364.897 1.751 1.438.386.542.603.994.649 1.357a.656.656 0 01.023.163.207.207 0 01-.011.069.113.113 0 01-.047.07.145.145 0 01-.081.023h-9.44a12.27 12.27 0 00-.325 2.911c0 1.144.182 2.103.545 2.876.364.766.839 1.365 1.427 1.798a4.926 4.926 0 001.925.87 5.86 5.86 0 003.989-.557c.573-.317 1.021-.711 1.346-1.183l.162-.011a7.491 7.491 0 01-2.18 2.064 5.094 5.094 0 01-2.714.777zm0-12.943c-.766 0-1.419.131-1.96.394a3.582 3.582 0 00-1.322 1.067 4.998 4.998 0 00-.8 1.612h6.239c.325 0 .557-.104.696-.313.139-.208.185-.464.139-.765-.046-.302-.189-.603-.429-.905-.232-.309-.564-.568-.997-.777-.426-.209-.948-.313-1.566-.313zm13.65-6.17c.209 0 .387.077.534.232a.712.712 0 01.232.534.711.711 0 01-.232.533.727.727 0 01-.534.22.733.733 0 01-.185-.023 4.219 4.219 0 00-.302-.081 17.223 17.223 0 00-1.612-.383c-.441-.077-.835-.073-1.183.012a.82.82 0 00-.359.174.434.434 0 00-.14.336v4.129h3.132v.325h-3.12v11.516c0 .387.132.715.394.986.271.263.6.394.986.394v.047h-4.929v-.047c.379 0 .704-.131.974-.394.271-.271.406-.599.406-.986v-11.516h-1.09v-.325h1.09v-1.345c0-.797.194-1.524.58-2.181a4.436 4.436 0 011.577-1.565 4.154 4.154 0 012.181-.592h1.577v.012h.012l.011-.012zm5.126 17.524a1.364 1.364 0 001.392 1.38v.047h-4.929v-.047c.379 0 .704-.131.974-.394.271-.271.406-.599.406-.986v-1.113-2.784-3.328-2.853c0-.387-.135-.715-.406-.986a1.326 1.326 0 00-.974-.406v-.046h1.867c.464 0 .859.166 1.183.498.325.325.487.719.487 1.183V207.721zm-2.481-13.824c0-.294.104-.545.313-.754.208-.209.46-.313.753-.313.294 0 .546.104.754.313.209.209.313.46.313.754s-.104.545-.313.754a1.03 1.03 0 01-.754.313c-.293 0-.545-.105-.753-.313a1.027 1.027 0 01-.313-.754zm14.218 2.47c-1.268 0-2.393.371-3.375 1.113a5.753 5.753 0 00-2.029 2.877V207.721c0 .387.135.715.406.986.27.263.599.394.985.394v.047h-4.929v-.047c.379 0 .704-.131.975-.394.27-.271.406-.599.406-.986v-1.113-2.784-3.328-2.853c0-.387-.136-.715-.406-.986a1.33 1.33 0 00-.975-.406v-.046h1.868c.464 0 .858.166 1.183.498.324.325.487.719.487 1.183v1.578a6.027 6.027 0 012.18-2.482c.959-.627 2.033-.94 3.224-.94h.081c.944 0 1.786.205 2.529.615a4.44 4.44 0 011.751 1.693c.425.727.638 1.566.638 2.517v6.854c0 .387.135.715.406.986.27.263.595.394.974.394v.047h-4.918v-.047c.364 0 .673-.12.928-.359.263-.24.41-.545.441-.917v-6.958c0-.773-.104-1.504-.313-2.192-.201-.688-.507-1.245-.916-1.67a2.029 2.029 0 00-1.52-.638h-.081zm13.836 12.943c-1.214 0-2.323-.298-3.328-.893a6.826 6.826 0 01-2.413-2.401c-.595-1.005-.893-2.118-.893-3.34 0-1.214.298-2.312.893-3.294a6.832 6.832 0 012.401-2.365c.997-.588 2.111-.913 3.34-.975 1.214-.015 2.207.186 2.981.603.781.418 1.364.897 1.751 1.438.386.542.603.994.649 1.357a.662.662 0 01.024.163.209.209 0 01-.012.069.116.116 0 01-.046.07.151.151 0 01-.082.023h-9.44a12.27 12.27 0 00-.325 2.911c0 1.144.182 2.103.545 2.876.364.766.839 1.365 1.427 1.798a4.926 4.926 0 001.925.87c.704.147 1.399.17 2.088.069a5.875 5.875 0 001.902-.626c.572-.317 1.02-.711 1.345-1.183l.162-.011a7.491 7.491 0 01-2.18 2.064 5.092 5.092 0 01-2.714.777zm0-12.943c-.765 0-1.419.131-1.96.394a3.59 3.59 0 00-1.322 1.067 4.998 4.998 0 00-.8 1.612h6.239c.325 0 .557-.104.696-.313.139-.208.186-.464.139-.765-.046-.302-.189-.603-.429-.905-.232-.309-.564-.568-.997-.777-.426-.209-.947-.313-1.566-.313zm17.965 11.134a7.24 7.24 0 01-.975.754c-1.105.695-2.292 1.043-3.56 1.043-1.222 0-2.335-.297-3.34-.893a6.999 6.999 0 01-2.401-2.4c-.595-1.005-.893-2.115-.893-3.329 0-1.221.298-2.331.893-3.328a6.867 6.867 0 012.401-2.401c1.005-.603 2.118-.905 3.34-.905 1.716 0 3.228.6 4.535 1.798v-5.95c0-.456.162-.846.487-1.171a1.594 1.594 0 011.183-.499h1.867v.047c-.379 0-.704.135-.974.406-.271.27-.406.599-.406.985v15.912c0 .449.077.723.232.824.154.1.348.108.58.023.232-.085.471-.201.719-.348a2.603 2.603 0 01-.974.789c-.403.193-.812.29-1.23.29-.41 0-.761-.124-1.055-.372-.286-.247-.429-.649-.429-1.206v-.069zm-4.535-11.134c-.789 0-1.481.247-2.076.742-.595.487-1.082 1.129-1.461 1.925a8.76 8.76 0 00-.766 2.587 9.453 9.453 0 00.012 2.76c.139.912.425 1.732.858 2.459a4.272 4.272 0 001.775 1.658c.757.379 1.685.503 2.783.371 1.338-.209 2.474-.812 3.41-1.809v-8.756c-1.284-1.291-2.795-1.937-4.535-1.937z" fill="#FF4D00"/></svg>