<svg width="379" height="250" fill="none" xmlns="http://www.w3.org/2000/svg"><path d="M32.377 168.045A3257.604 3257.604 0 000 130.917L17.42 0 117.72 24.107l4.575 50.677-31.673-34.137-44.695-5.102-19.18 107.513s91.677-4.575 105.93-4.575h2.288s-84.99 24.459-102.587 29.562zM93.957 228.709l83.935-12.318 8.415-56.389 31.303-5.948-6.813 87.324L103.635 250l-26.922-31.673-2.077-59.463 16.434-4.734 5.39-1.553-2.503 76.132z" fill="#FF4D00"/><path d="M96.561 149.538l-22.029 6.346-.527-15.096c7.654-.355 15.49-.709 22.877-1.031l-.32 9.781zM218.986 130.38l-29.944 11.289 4.159-27.864-8.894.735 4.304-18.768 30.375 34.608zM159.654 116.579l-62.177 5.144-.499 15.134a8505.822 8505.822 0 00-23.074 1.039l-1.59-45.559 87.865-8.757-.525 32.999z" fill="#FF4D00"/><path fill-rule="evenodd" clip-rule="evenodd" d="M271.562 27.978l14.429 31.146-5.178 18.59-14.09 1.613-1.416 54.068-2.543 9.135-91.677 17.421-10.03 43.638.703-41.879-34.488 6.511 34.664-13.198L164.401 0l107.161 27.978zm-74.081 16.189L173.023 150.8l65.81-24.81L260.3 35.545l-62.819 8.622z" fill="#FF4D00"/><path d="M290.137 177.639l-6.863 47.158 71.793 1.231-89.917 23.931 4.399-168.044L378.822 69.42l-78.831 40.12-6.687 46.102.176-.704 54.901-3.519-58.244 26.219z" fill="#FF4D00"/></svg>