<svg width="1357" height="252" fill="none" xmlns="http://www.w3.org/2000/svg"><mask id="a" maskUnits="userSpaceOnUse" x="444.376" y="36.432" width="913" height="173" fill="#000"><path fill="#fff" d="M444.376 36.432h913v173h-913z"/><path d="M579.7 117.674h-95.623c-20.381-.613-36.701-17.087-36.701-37.621 0-20.458 16.32-37.238 36.701-37.62H579.7v16.166h-88.037c-5.287 0-7.126.077-7.203.077-11.723.23-20.84 9.807-20.84 21.377 0 11.57 9.271 21.147 20.764 21.377H579.7v16.244zM602.325 58.676l-14.788-16.244h86.811c11.953 0 21.76 9.808 21.76 21.76 0 11.953-9.807 21.76-21.76 21.76h-25.055l14.175 15.478h133.933v16.244H656.342l-43.903-47.965h61.909c3.065 0 5.593-2.452 5.593-5.517 0-3.064-2.451-5.516-5.593-5.516h-72.023zm100.22-16.244h94.856V58.6h-87.424c-.69-5.823-3.755-11.876-7.432-16.167zm88.42 45.436h-90.183c4.368-4.367 7.586-9.73 9.041-16.167h81.142v16.167zM828.903 42.432h137.228V58.6h-58.769v59.075h-16.243V58.599h-47.428l-14.788-16.167zM812.2 117.674V42.432l68.805 75.242h-21.99L828.443 84.19v33.484H812.2zM975.592 80.053c0-20.84 16.78-37.62 37.618-37.62h169.26c12.56 0 22.75 10.19 22.75 22.679 0 12.566-10.19 22.756-22.75 22.756h-30.04l31.42 29.806h-21.99l-48.81-45.973h69.42c3.6 0 6.51-2.911 6.51-6.59 0-3.447-2.83-6.512-6.51-6.512h-169.26c-11.8 0-21.374 9.73-21.374 21.454 0 11.876 9.654 21.147 20.454 21.377h61.84c11.87 0 21.53-9.5 21.53-21.377h16.09c0 20.841-16.78 37.621-37.62 37.621h-61.84c-20.378-.613-36.698-17.087-36.698-37.621zM1220.05 101.43h111.25c3.68 0 6.74-3.065 6.74-6.743 0-3.83-3.06-6.819-6.74-6.819h-88.58c-12.48 0-22.67-10.19-22.67-22.756 0-12.49 10.19-22.68 22.67-22.68h111.56V58.6h-111.56c-3.6 0-6.43 2.912-6.43 6.513 0 3.678 2.83 6.59 6.43 6.59h88.58c12.64 0 22.98 10.266 22.98 22.986 0 12.642-10.34 22.986-22.98 22.986h-111.25V101.43zM823.354 206.554h-95.623c-20.381-.613-36.701-17.086-36.701-37.621 0-20.457 16.32-37.237 36.701-37.62h95.623v16.167h-88.037c-5.287 0-7.126.076-7.203.076-11.723.23-20.841 9.808-20.841 21.377 0 11.57 9.271 21.148 20.765 21.378h95.316v16.243zM969.338 206.554H856.552c-11.876 0-21.224-8.735-21.224-21.913v-53.328h16.244v53.328c0 3.448 1.532 5.67 4.98 5.67h96.542v-58.998h16.244v75.241zM984.085 147.48v-16.167h104.745c12.49 0 22.68 10.19 22.68 22.679 0 12.566-10.19 22.757-22.68 22.757h-88.58v29.805h-16.165v-45.972h104.745c3.6 0 6.43-2.912 6.43-6.59 0-3.601-2.83-6.512-6.43-6.512H984.085z"/></mask><path d="M579.7 117.674h-95.623c-20.381-.613-36.701-17.087-36.701-37.621 0-20.458 16.32-37.238 36.701-37.62H579.7v16.166h-88.037c-5.287 0-7.126.077-7.203.077-11.723.23-20.84 9.807-20.84 21.377 0 11.57 9.271 21.147 20.764 21.377H579.7v16.244zM602.325 58.676l-14.788-16.244h86.811c11.953 0 21.76 9.808 21.76 21.76 0 11.953-9.807 21.76-21.76 21.76h-25.055l14.175 15.478h133.933v16.244H656.342l-43.903-47.965h61.909c3.065 0 5.593-2.452 5.593-5.517 0-3.064-2.451-5.516-5.593-5.516h-72.023zm100.22-16.244h94.856V58.6h-87.424c-.69-5.823-3.755-11.876-7.432-16.167zm88.42 45.436h-90.183c4.368-4.367 7.586-9.73 9.041-16.167h81.142v16.167zM828.903 42.432h137.228V58.6h-58.769v59.075h-16.243V58.599h-47.428l-14.788-16.167zM812.2 117.674V42.432l68.805 75.242h-21.99L828.443 84.19v33.484H812.2zM975.592 80.053c0-20.84 16.78-37.62 37.618-37.62h169.26c12.56 0 22.75 10.19 22.75 22.679 0 12.566-10.19 22.756-22.75 22.756h-30.04l31.42 29.806h-21.99l-48.81-45.973h69.42c3.6 0 6.51-2.911 6.51-6.59 0-3.447-2.83-6.512-6.51-6.512h-169.26c-11.8 0-21.374 9.73-21.374 21.454 0 11.876 9.654 21.147 20.454 21.377h61.84c11.87 0 21.53-9.5 21.53-21.377h16.09c0 20.841-16.78 37.621-37.62 37.621h-61.84c-20.378-.613-36.698-17.087-36.698-37.621zM1220.05 101.43h111.25c3.68 0 6.74-3.065 6.74-6.743 0-3.83-3.06-6.819-6.74-6.819h-88.58c-12.48 0-22.67-10.19-22.67-22.756 0-12.49 10.19-22.68 22.67-22.68h111.56V58.6h-111.56c-3.6 0-6.43 2.912-6.43 6.513 0 3.678 2.83 6.59 6.43 6.59h88.58c12.64 0 22.98 10.266 22.98 22.986 0 12.642-10.34 22.986-22.98 22.986h-111.25V101.43zM823.354 206.554h-95.623c-20.381-.613-36.701-17.086-36.701-37.621 0-20.457 16.32-37.237 36.701-37.62h95.623v16.167h-88.037c-5.287 0-7.126.076-7.203.076-11.723.23-20.841 9.808-20.841 21.377 0 11.57 9.271 21.148 20.765 21.378h95.316v16.243zM969.338 206.554H856.552c-11.876 0-21.224-8.735-21.224-21.913v-53.328h16.244v53.328c0 3.448 1.532 5.67 4.98 5.67h96.542v-58.998h16.244v75.241zM984.085 147.48v-16.167h104.745c12.49 0 22.68 10.19 22.68 22.679 0 12.566-10.19 22.757-22.68 22.757h-88.58v29.805h-16.165v-45.972h104.745c3.6 0 6.43-2.912 6.43-6.59 0-3.601-2.83-6.512-6.43-6.512H984.085z" fill="#FF4D00"/><path d="M579.7 117.674h-95.623c-20.381-.613-36.701-17.087-36.701-37.621 0-20.458 16.32-37.238 36.701-37.62H579.7v16.166h-88.037c-5.287 0-7.126.077-7.203.077-11.723.23-20.84 9.807-20.84 21.377 0 11.57 9.271 21.147 20.764 21.377H579.7v16.244zM602.325 58.676l-14.788-16.244h86.811c11.953 0 21.76 9.808 21.76 21.76 0 11.953-9.807 21.76-21.76 21.76h-25.055l14.175 15.478h133.933v16.244H656.342l-43.903-47.965h61.909c3.065 0 5.593-2.452 5.593-5.517 0-3.064-2.451-5.516-5.593-5.516h-72.023zm100.22-16.244h94.856V58.6h-87.424c-.69-5.823-3.755-11.876-7.432-16.167zm88.42 45.436h-90.183c4.368-4.367 7.586-9.73 9.041-16.167h81.142v16.167zM828.903 42.432h137.228V58.6h-58.769v59.075h-16.243V58.599h-47.428l-14.788-16.167zM812.2 117.674V42.432l68.805 75.242h-21.99L828.443 84.19v33.484H812.2zM975.592 80.053c0-20.84 16.78-37.62 37.618-37.62h169.26c12.56 0 22.75 10.19 22.75 22.679 0 12.566-10.19 22.756-22.75 22.756h-30.04l31.42 29.806h-21.99l-48.81-45.973h69.42c3.6 0 6.51-2.911 6.51-6.59 0-3.447-2.83-6.512-6.51-6.512h-169.26c-11.8 0-21.374 9.73-21.374 21.454 0 11.876 9.654 21.147 20.454 21.377h61.84c11.87 0 21.53-9.5 21.53-21.377h16.09c0 20.841-16.78 37.621-37.62 37.621h-61.84c-20.378-.613-36.698-17.087-36.698-37.621zM1220.05 101.43h111.25c3.68 0 6.74-3.065 6.74-6.743 0-3.83-3.06-6.819-6.74-6.819h-88.58c-12.48 0-22.67-10.19-22.67-22.756 0-12.49 10.19-22.68 22.67-22.68h111.56V58.6h-111.56c-3.6 0-6.43 2.912-6.43 6.513 0 3.678 2.83 6.59 6.43 6.59h88.58c12.64 0 22.98 10.266 22.98 22.986 0 12.642-10.34 22.986-22.98 22.986h-111.25V101.43zM823.354 206.554h-95.623c-20.381-.613-36.701-17.086-36.701-37.621 0-20.457 16.32-37.237 36.701-37.62h95.623v16.167h-88.037c-5.287 0-7.126.076-7.203.076-11.723.23-20.841 9.808-20.841 21.377 0 11.57 9.271 21.148 20.765 21.378h95.316v16.243zM969.338 206.554H856.552c-11.876 0-21.224-8.735-21.224-21.913v-53.328h16.244v53.328c0 3.448 1.532 5.67 4.98 5.67h96.542v-58.998h16.244v75.241zM984.085 147.48v-16.167h104.745c12.49 0 22.68 10.19 22.68 22.679 0 12.566-10.19 22.757-22.68 22.757h-88.58v29.805h-16.165v-45.972h104.745c3.6 0 6.43-2.912 6.43-6.59 0-3.601-2.83-6.512-6.43-6.512H984.085z" stroke="#FF4D00" stroke-width="4.597" mask="url(#a)"/><path d="M44.02 49.22l47.157 20.026 53.295-29.716L.415.447l33.592 174.419 156.654 75.581-64.6-129.199 12.597 54.264-65.568-30.039-17.442-87.855L44.02 49.22z" fill="#FF4D00"/><path d="M336.978 49.22l-47.157 20.026-53.295-29.716L380.583.447l-33.592 174.419-156.653 75.581 64.599-129.199-12.597 54.264 65.569-30.039 17.441-87.855 11.628-8.398z" fill="#FF4D00"/><path d="M44.02 49.22l47.157 20.026 53.295-29.716L.415.447l33.592 174.419 156.654 75.581-64.6-129.199 12.597 54.264-65.568-30.039-17.442-87.855L44.02 49.22z" stroke="#FF4D00" stroke-width=".646"/><path d="M336.978 49.22l-47.157 20.026-53.295-29.716L380.583.447l-33.592 174.419-156.653 75.581 64.599-129.199-12.597 54.264 65.569-30.039 17.441-87.855 11.628-8.398z" stroke="#FF4D00" stroke-width=".646"/></svg>