<svg width="1148" height="250" fill="none" xmlns="http://www.w3.org/2000/svg"><path d="M63.67 128.644a9.647 9.647 0 00.083 13.631l45.4 44.921c3.792 3.752 9.908 3.714 13.654-.084L246.592 61.59a9.651 9.651 0 002.778-6.824l-.24-45.17c-.028-5.328-4.37-9.624-9.698-9.596l-45.151.24a9.65 9.65 0 00-6.818 2.873L63.669 128.644z" fill="#FF4D00"/><path d="M44.048 148.048c-16.152 16.324-16.012 42.651.312 58.803 16.324 16.152 42.651 16.012 58.803-.312L237.277 70.995A41.585 41.585 0 00249.3 41.529C249.178 18.565 230.463.047 207.499.169a41.58 41.58 0 00-29.337 12.335L44.048 148.048zM167.209 250c45.928-.245 82.962-37.676 82.717-83.604l-.523-98.074-82.717 83.604.523 98.074zM180.862.44l-14.983.08.08 14.983L180.862.44z" fill="#FF4D00"/><path d="M249.481 83.238l-.079-14.914-14.834 14.993 14.913-.08zM98.145 84.045L180.86.44 82.718.965C36.79 1.21-.244 38.64 0 84.568l98.144-.523zM301.838 187.551c-.953-.816-1.429-1.973-1.429-3.469V68.572c0-1.361.408-2.45 1.225-3.266.952-.952 2.109-1.428 3.469-1.428h17.755c.816 0 1.361-.069 1.633-.205h5.306c.544 0 1.02-.204 1.429-.612a256.08 256.08 0 003.469-2.653 594.625 594.625 0 013.469-3.061c.681-.408 1.021-.953 1.021-1.633v-26.53c0-1.497.612-2.653 1.836-3.47.273-.272.885-.544 1.837-.816l105.714-.204h239.592c9.932-.136 18.028-.204 24.286-.204 1.361 0 2.517.476 3.469 1.428.953.953 1.429 2.041 1.429 3.266v29.591c0 1.497-.476 2.721-1.429 3.674-.952.816-2.108 1.224-3.469 1.224h-27.143c-1.36 0-2.517-.476-3.469-1.428-.817-.953-1.225-2.109-1.225-3.47V34.082c0-.68-.136-1.157-.408-1.429-.68-2.177-2.177-3.265-4.49-3.265h-21.428l-147.551-.204h-21.225c-1.496 0-2.653.544-3.469 1.632L458.164 54.49l-2.653 2.653c-.816.68-1.564 1.36-2.245 2.04l-1.836 1.837c-.273.408-.681.749-1.225 1.02l-1.224.817c-.272 0-.409.068-.409.204l-1.224.408c-.272 0-.612.068-1.02.204a1.81 1.81 0 00-.817.204H343.879c-1.225 0-2.245.409-3.062 1.225-.816.68-1.36 1.565-1.632 2.653v148.776c.952 2.176 2.517 3.265 4.694 3.265 4.761-.136 8.503-.136 11.224 0h6.327c1.496 0 2.517-.068 3.061-.204.68-.272 1.36-.748 2.041-1.429l31.836-30.816a5.422 5.422 0 012.858-1.225h61.836v-14.693c.136-3.946.204-7.143.204-9.592v-5.511V153.469c0-1.496.477-2.653 1.429-3.469.952-.952 2.041-1.429 3.265-1.429h25.306c1.225 0 1.837-.612 1.837-1.836v-1.021c0-1.224-.612-1.836-1.837-1.836l-30.204-.205h-71.224c-1.361 0-2.517-.408-3.47-1.224-.816-.952-1.224-2.109-1.224-3.469V110c0-1.225.408-2.245 1.224-3.061.953-.953 2.109-1.429 3.47-1.429h68.979c1.361 0 2.449.408 3.266 1.225l35.714 35.714c.952.816 1.429 1.973 1.429 3.469v38.164c0 .68-.137 1.36-.409 2.04-.136.545-.476.953-1.02 1.225l-34.898 35.714c-.952.953-2.109 1.429-3.469 1.429H338.981l-37.143-36.939zM516.94 68.571c0-1.36.476-2.449 1.428-3.265.953-.952 2.041-1.428 3.266-1.428h20c3.401-.137 6.462-.205 9.183-.205 1.361 0 2.517.477 3.47 1.429.952.816 1.428 1.905 1.428 3.265v6.327l-.204 22.245c-.272 1.088-.884 1.973-1.836 2.653-.817.68-1.769 1.02-2.858 1.02h-27.143c-1.36 0-2.04.612-2.04 1.837v1.02c0 1.361.68 2.041 2.04 2.041H712.45c1.497 0 2.653.476 3.469 1.429.953.816 1.429 1.904 1.429 3.265v28.98c0 1.224-.476 2.313-1.429 3.265-.816.816-1.972 1.224-3.469 1.224H560.205c-1.224 0-2.313.477-3.265 1.429-.953.952-1.429 2.041-1.429 3.265v66.531c0 .816.068 1.36.204 1.633.681 2.176 2.177 3.265 4.49 3.265 4.898-.136 8.776-.136 11.633 0h6.53c1.633 0 2.79-.068 3.47-.204.68-.272 1.292-.748 1.836-1.429.953-.816 2.041-1.768 3.266-2.857a76.737 76.737 0 013.265-3.061l4.082-4.082a379.889 379.889 0 017.347-7.143 360.972 360.972 0 006.938-6.734 182.272 182.272 0 007.347-6.939c1.089-.816 2.177-1.225 3.266-1.225h95.51c.816 0 1.36.409 1.633 1.225.408.68.272 1.36-.409 2.041l-8.775 8.775a812.885 812.885 0 00-10.816 11.021 90612.91 90612.91 0 00-9.388 9.387c-2.585 2.721-4.014 4.218-4.286 4.49-.952.953-2.041 1.429-3.265 1.429H557.348c-.952 0-2.041-.476-3.265-1.429l-35.715-35.918a2.666 2.666 0 01-1.224-1.225c-.136-.68-.204-1.36-.204-2.04v-40c0-1.497.476-2.654 1.428-3.47.953-.816 2.041-1.224 3.266-1.224h24.285c1.361 0 2.449-.477 3.266-1.429.952-.952 1.428-2.109 1.428-3.469v-19.388c0-1.361-.476-2.449-1.428-3.265-.817-.953-1.905-1.429-3.266-1.429h-24.285c-1.225 0-2.313-.476-3.266-1.429-.952-.952-1.428-2.04-1.428-3.265V68.571zM730.5 68.163c0-1.224.408-2.313 1.225-3.265.952-.952 2.108-1.429 3.469-1.429l24.694-.204c.544 0 1.02-.204 1.428-.612 1.089-.816 2.245-1.7 3.47-2.653a77.788 77.788 0 003.469-2.857c.544-.408.817-.953.817-1.633V28.98c.136-1.225.544-2.177 1.224-2.858a5.564 5.564 0 012.449-1.428h118.571c1.361 0 2.517.476 3.47 1.428l35.306 36.123c.816.952 1.224 2.109 1.224 3.47v89.795c0 1.089-.408 2.177-1.224 3.265l-30.612 31.429c-.953.952-1.429 2.041-1.429 3.265v21.429c0 1.36.476 2.517 1.429 3.469.952.953 2.109 1.429 3.469 1.429H1009.68c.96-.136 1.7-.272 2.25-.408.54-.272 1.02-.681 1.43-1.225l32.24-30.816c.82-.816 1.91-1.225 3.27-1.225h95.3c.96 0 1.57.409 1.84 1.225.41.68.27 1.292-.41 1.837-2.17 2.177-5.1 5.17-8.77 8.979a795.899 795.899 0 00-10.82 11.021c-3.54 3.537-6.67 6.666-9.39 9.387a604.452 604.452 0 01-4.28 4.49c-1.23.953-2.32 1.429-3.27 1.429H898.051c-1.224 0-2.313-.476-3.265-1.429-.953-.952-1.429-2.041-1.429-3.265V73.266c0-1.225.476-2.314 1.429-3.266.952-.952 2.041-1.429 3.265-1.429h25.306c.544 0 .953-.204 1.225-.612.408-.408.612-.816.612-1.224v-1.02c0-1.225-.612-1.838-1.837-1.838h-150c-1.224 0-2.313.477-3.265 1.43-.952.815-1.429 1.904-1.429 3.264v151.225c0 1.224-.476 2.313-1.428 3.265-.953.953-2.109 1.429-3.47 1.429h-28.571c-1.361 0-2.517-.476-3.469-1.429-.817-.952-1.225-2.041-1.225-3.265V68.163zM951.316 110c-1.224 0-2.313-.408-3.265-1.225-.952-.952-1.428-2.108-1.428-3.469V68.571c0-1.36.476-2.449 1.428-3.265.952-.952 2.041-1.428 3.265-1.428h24.694c.545 0 1.089-.205 1.633-.613a55.903 55.903 0 003.265-2.653 593.46 593.46 0 013.47-3.061c.68-.408 1.02-.952 1.02-1.633V28.98c.136-.953.476-1.77 1.02-2.45.681-.816 1.565-1.292 2.654-1.428l153.058-.408c1.36 0 2.52.476 3.47 1.428.95.817 1.43 1.905 1.43 3.266v29.591c0 1.497-.48 2.722-1.43 3.674-.95.816-2.11 1.224-3.47 1.224h-27.14c-1.22 0-2.31-.476-3.27-1.428-.95-.953-1.42-2.109-1.42-3.47V34.287c0-.545-.14-1.089-.41-1.633-.68-2.177-2.18-3.265-4.49-3.265h-21.43c-1.23 0-2.31.476-3.27 1.428l-23.87 23.878c-.96.952-1.84 1.837-2.66 2.653-.81.68-1.56 1.36-2.24 2.04-.68.681-1.29 1.293-1.84 1.837a8.09 8.09 0 01-1.22 1.02c-.41.273-.89.545-1.43.817-.14 0-.27.068-.41.204-.41.136-1.16.34-2.24.612-18.37 0-36.67.205-54.902.613-1.089.136-2.109.612-3.061 1.428-.817.817-1.293 1.837-1.429 3.061v5.715l-.204 22.245c-.272 1.088-.884 1.973-1.837 2.653-.816.68-1.768 1.02-2.857 1.02h-27.143c-1.36 0-2.041.612-2.041 1.837v1.02c0 1.225.681 1.837 2.041 1.837h46.943l46.73.204h58.37c.54 0 .95-.068 1.22-.204h35.51c1.36 0 2.52.476 3.47 1.429.95.952 1.43 2.04 1.43 3.265v28.98c0 1.36-.48 2.517-1.43 3.469-.95.816-2.11 1.224-3.47 1.224H948.663c-1.36 0-2.04-.612-2.04-1.836v-.817c0-1.36.68-2.04 2.04-2.04h26.939c1.361 0 2.449-.409 3.265-1.225.953-.952 1.429-2.177 1.429-3.673v-19.184c0-1.361-.476-2.517-1.429-3.469-.816-.953-1.904-1.429-3.265-1.429h-24.286z" fill="#FF4D00"/></svg>