<svg width="665" height="250" fill="none" xmlns="http://www.w3.org/2000/svg"><path d="M0 226.369L21.864 15.68l41.299 24.073-39.311 159.231L147.968 250 0 226.369z" fill="#A40009"/><path d="M100.927 183.746l15.238-141.343 34.011 29.373s-20.318 130.3-23.852 153.71c-.441 2.208-.662 3.533-.662 3.533l-24.735-45.273zm51.899-126.988L23.409 0l135.38 19.435-5.963 37.323z" fill="#FF4D00"/><mask id="a" maskUnits="userSpaceOnUse" x="197.988" y="17.5" width="467" height="203" fill="#000"><path fill="#fff" d="M197.988 17.5h467v203h-467z"/><path d="M227.812 102.31l-6.849-2.325 2.451-23.5c.837.293 3.267.942 7.288 1.948 4.022 1.005 8.504 2.115 13.447 3.33a1396.43 1396.43 0 0013.133 3.142l5.655 1.382-7.352 25.574-12.001-4.084c-.671 5.32-1.006 10.43-1.006 15.331 0 4.064.356 9.132 1.069 15.207.754 6.032 2.094 12.106 4.021 18.222a180.736 180.736 0 0118.034-5.467l-4.587-14.515 22.683-2.199 15.332 40.34-5.152 1.257-79.99 20.547.943-25.511 7.163-3.645a199.32 199.32 0 01-.503-14.075c0-7.079.524-15.185 1.571-24.317 1.089-9.174 2.639-18.055 4.65-26.642z"/><path d="M293.852 82.454c7.54.922 15.059 1.843 22.558 2.765 7.54.921 15.122 1.843 22.746 2.765l-8.671 18.85-2.451-.377a3336.69 3336.69 0 01-8.42-1.068 76.174 76.174 0 00-1.256 13.886v.44c0 4.608.628 8.693 1.885 12.253 1.256 3.561 3.435 5.865 6.535 6.912a8.514 8.514 0 002.576.377c2.765 0 6.179-1.11 10.242-3.33l13.887 26.768-60.008 33.679-4.713-31.48 9.111-4.901a184.63 184.63 0 01-.628-14.955c0-5.697.398-12.211 1.194-19.542a139.768 139.768 0 014.21-21.615 138.779 138.779 0 00-4.084-.063c-.671 0-1.655.021-2.954.063-1.256.042-2.346.188-3.267.44 1.382-.503 2.346-1.529 2.89-3.079.461-1.466.691-3.142.691-5.027 0-.168-.02-.817-.062-1.948 0-1.131-.168-2.702-.503-4.713-.335-2.01-.67-3.707-1.005-5.09l-.503-2.01zM308.807 32.5c3.351 0 6.409 1.131 9.174 3.393 2.764 2.262 4.964 5.3 6.597 9.111 1.676 3.77 2.514 7.96 2.514 12.567 0 4.608-.838 8.818-2.514 12.63-1.633 3.77-3.833 6.786-6.597 9.048-2.765 2.22-5.823 3.33-9.174 3.33-3.393 0-6.472-1.11-9.237-3.33-2.765-2.262-4.964-5.278-6.598-9.048-1.634-3.812-2.45-8.022-2.45-12.63 0-4.608.816-8.797 2.45-12.567 1.634-3.812 3.833-6.849 6.598-9.11 2.765-2.263 5.844-3.394 9.237-3.394z"/><path d="M371.516 111.358c-7.54-1.34-14.766-2.157-21.678-2.45a76.821 76.821 0 00-3.079-.063c-5.613 0-10.619.607-15.017 1.822l17.719-37.45 92.556 24.192-15.457 28.59-11.122-3.645c-7.414-2.387-16.484-4.901-27.208-7.54a137.165 137.165 0 00-.377 9.991c0 5.027.419 10.556 1.257 16.588.838 6.033 2.116 11.855 3.833 17.469 1.759 5.571 3.393 9.907 4.901 13.007l2.199 4.712-28.213 16.149c-2.722-8.755-4.314-17.95-4.775-27.585a194.516 194.516 0 01-.251-9.865c0-6.242.398-13.195 1.193-20.861a241.454 241.454 0 013.519-23.061zM517.294 88.612l13.949 3.833-4.335 9.865c-2.932 6.577-6.011 14.368-9.237 23.375-3.184 8.964-5.488 17.405-6.912 25.322a26.142 26.142 0 00-.314 3.896c0 2.723.607 5.215 1.822 7.477 1.215 2.263 3.079 4.022 5.593 5.279 2.555 1.214 5.173 1.989 7.854 2.325 1.927.251 3.665.377 5.215.377.545 0 1.425-.042 2.639-.126l1.823-.126c-1.383-10.598-2.074-20.212-2.074-28.841 0-.503.021-3.142.063-7.917.042-4.776.544-10.599 1.508-17.469 1.005-6.911 2.157-12.692 3.456-17.342 1.298-4.65 2.45-8.169 3.456-10.556l1.508-3.52 37.01 9.049-10.494 19.228-5.655-3.708c-3.267 7.75-5.383 16.254-6.346 25.511-.712 6.912-1.068 13.615-1.068 20.108 0 2.22.104 6.032.314 11.436.251 5.362.754 10.828 1.508 16.4l1.131 8.42-28.527-.315-.629-4.084c-4.482.88-8.545 1.32-12.19 1.32-4.775 0-9.509-1.048-14.201-3.142-4.649-2.136-8.336-6.032-11.059-11.687-2.681-5.697-4.251-12.002-4.712-18.914-.21-2.765-.314-5.487-.314-8.168 0-4.064.293-8.651.879-13.761.629-5.153 1.446-9.844 2.451-14.075l1.445-6.347-18.85-3.581 12.818-27.962 30.475 8.42z"/><path d="M582.517 118.71c-.922.796-2.011 1.864-3.267 3.205-1.257 1.34-2.221 2.639-2.891 3.895l-15.646-31.543 5.09-2.513c3.393-1.676 7.729-3.52 13.007-5.53 5.278-2.053 10.891-3.77 16.84-5.152 4.524-1.048 8.88-1.571 13.069-1.571 1.257 0 2.493.042 3.708.125 10.514.964 19.206 3.268 26.076 6.912 6.912 3.603 10.724 8.546 11.436 14.829.084.629.126 1.278.126 1.948 0 3.393-1.131 7.017-3.393 10.871-2.22 3.854-6.975 8.022-14.264 12.504-7.289 4.44-18.013 9.048-32.171 13.824 1.172 6.158 2.555 11.645 4.147 16.463 1.633 4.775 3.1 8.566 4.398 11.373l1.948 4.21-26.014 18.285c-2.262-7.163-3.665-15.06-4.21-23.689a208.02 208.02 0 01-.44-13.447c0-4.105.189-9.299.566-15.583a273.316 273.316 0 011.885-19.416zm16.274 7.352c2.933-.964 6.179-2.241 9.74-3.833 3.602-1.634 6.765-3.54 9.488-5.718 2.765-2.179 4.377-4.629 4.838-7.352l-.125-.251c-.084-.126-.252-.294-.503-.503-.251-.251-.628-.503-1.131-.754-.461-.251-1.089-.461-1.885-.628-.754-.168-1.676-.273-2.765-.315a11.05 11.05 0 00-1.194-.062c-.838 0-1.906.083-3.204.251-1.299.126-2.975.398-5.027.817-2.011.419-4.315 1.005-6.912 1.759-.922 4.859-1.382 9.635-1.382 14.327 0 .754.02 1.508.062 2.262z"/></mask><path d="M227.812 102.31l-6.849-2.325 2.451-23.5c.837.293 3.267.942 7.288 1.948 4.022 1.005 8.504 2.115 13.447 3.33a1396.43 1396.43 0 0013.133 3.142l5.655 1.382-7.352 25.574-12.001-4.084c-.671 5.32-1.006 10.43-1.006 15.331 0 4.064.356 9.132 1.069 15.207.754 6.032 2.094 12.106 4.021 18.222a180.736 180.736 0 0118.034-5.467l-4.587-14.515 22.683-2.199 15.332 40.34-5.152 1.257-79.99 20.547.943-25.511 7.163-3.645a199.32 199.32 0 01-.503-14.075c0-7.079.524-15.185 1.571-24.317 1.089-9.174 2.639-18.055 4.65-26.642z" fill="#FF4D00"/><path d="M293.852 82.454c7.54.922 15.059 1.843 22.558 2.765 7.54.921 15.122 1.843 22.746 2.765l-8.671 18.85-2.451-.377a3336.69 3336.69 0 01-8.42-1.068 76.174 76.174 0 00-1.256 13.886v.44c0 4.608.628 8.693 1.885 12.253 1.256 3.561 3.435 5.865 6.535 6.912a8.514 8.514 0 002.576.377c2.765 0 6.179-1.11 10.242-3.33l13.887 26.768-60.008 33.679-4.713-31.48 9.111-4.901a184.63 184.63 0 01-.628-14.955c0-5.697.398-12.211 1.194-19.542a139.768 139.768 0 014.21-21.615 138.779 138.779 0 00-4.084-.063c-.671 0-1.655.021-2.954.063-1.256.042-2.346.188-3.267.44 1.382-.503 2.346-1.529 2.89-3.079.461-1.466.691-3.142.691-5.027 0-.168-.02-.817-.062-1.948 0-1.131-.168-2.702-.503-4.713-.335-2.01-.67-3.707-1.005-5.09l-.503-2.01zM308.807 32.5c3.351 0 6.409 1.131 9.174 3.393 2.764 2.262 4.964 5.3 6.597 9.111 1.676 3.77 2.514 7.96 2.514 12.567 0 4.608-.838 8.818-2.514 12.63-1.633 3.77-3.833 6.786-6.597 9.048-2.765 2.22-5.823 3.33-9.174 3.33-3.393 0-6.472-1.11-9.237-3.33-2.765-2.262-4.964-5.278-6.598-9.048-1.634-3.812-2.45-8.022-2.45-12.63 0-4.608.816-8.797 2.45-12.567 1.634-3.812 3.833-6.849 6.598-9.11 2.765-2.263 5.844-3.394 9.237-3.394z" fill="#FF4D00"/><path d="M371.516 111.358c-7.54-1.34-14.766-2.157-21.678-2.45a76.821 76.821 0 00-3.079-.063c-5.613 0-10.619.607-15.017 1.822l17.719-37.45 92.556 24.192-15.457 28.59-11.122-3.645c-7.414-2.387-16.484-4.901-27.208-7.54a137.165 137.165 0 00-.377 9.991c0 5.027.419 10.556 1.257 16.588.838 6.033 2.116 11.855 3.833 17.469 1.759 5.571 3.393 9.907 4.901 13.007l2.199 4.712-28.213 16.149c-2.722-8.755-4.314-17.95-4.775-27.585a194.516 194.516 0 01-.251-9.865c0-6.242.398-13.195 1.193-20.861a241.454 241.454 0 013.519-23.061zM517.294 88.612l13.949 3.833-4.335 9.865c-2.932 6.577-6.011 14.368-9.237 23.375-3.184 8.964-5.488 17.405-6.912 25.322a26.142 26.142 0 00-.314 3.896c0 2.723.607 5.215 1.822 7.477 1.215 2.263 3.079 4.022 5.593 5.279 2.555 1.214 5.173 1.989 7.854 2.325 1.927.251 3.665.377 5.215.377.545 0 1.425-.042 2.639-.126l1.823-.126c-1.383-10.598-2.074-20.212-2.074-28.841 0-.503.021-3.142.063-7.917.042-4.776.544-10.599 1.508-17.469 1.005-6.911 2.157-12.692 3.456-17.342 1.298-4.65 2.45-8.169 3.456-10.556l1.508-3.52 37.01 9.049-10.494 19.228-5.655-3.708c-3.267 7.75-5.383 16.254-6.346 25.511-.712 6.912-1.068 13.615-1.068 20.108 0 2.22.104 6.032.314 11.436.251 5.362.754 10.828 1.508 16.4l1.131 8.42-28.527-.315-.629-4.084c-4.482.88-8.545 1.32-12.19 1.32-4.775 0-9.509-1.048-14.201-3.142-4.649-2.136-8.336-6.032-11.059-11.687-2.681-5.697-4.251-12.002-4.712-18.914-.21-2.765-.314-5.487-.314-8.168 0-4.064.293-8.651.879-13.761.629-5.153 1.446-9.844 2.451-14.075l1.445-6.347-18.85-3.581 12.818-27.962 30.475 8.42z" fill="#FF4D00"/><path d="M582.517 118.71c-.922.796-2.011 1.864-3.267 3.205-1.257 1.34-2.221 2.639-2.891 3.895l-15.646-31.543 5.09-2.513c3.393-1.676 7.729-3.52 13.007-5.53 5.278-2.053 10.891-3.77 16.84-5.152 4.524-1.048 8.88-1.571 13.069-1.571 1.257 0 2.493.042 3.708.125 10.514.964 19.206 3.268 26.076 6.912 6.912 3.603 10.724 8.546 11.436 14.829.084.629.126 1.278.126 1.948 0 3.393-1.131 7.017-3.393 10.871-2.22 3.854-6.975 8.022-14.264 12.504-7.289 4.44-18.013 9.048-32.171 13.824 1.172 6.158 2.555 11.645 4.147 16.463 1.633 4.775 3.1 8.566 4.398 11.373l1.948 4.21-26.014 18.285c-2.262-7.163-3.665-15.06-4.21-23.689a208.02 208.02 0 01-.44-13.447c0-4.105.189-9.299.566-15.583a273.316 273.316 0 011.885-19.416zm16.274 7.352c2.933-.964 6.179-2.241 9.74-3.833 3.602-1.634 6.765-3.54 9.488-5.718 2.765-2.179 4.377-4.629 4.838-7.352l-.125-.251c-.084-.126-.252-.294-.503-.503-.251-.251-.628-.503-1.131-.754-.461-.251-1.089-.461-1.885-.628-.754-.168-1.676-.273-2.765-.315a11.05 11.05 0 00-1.194-.062c-.838 0-1.906.083-3.204.251-1.299.126-2.975.398-5.027.817-2.011.419-4.315 1.005-6.912 1.759-.922 4.859-1.382 9.635-1.382 14.327 0 .754.02 1.508.062 2.262z" fill="#FF4D00"/><path d="M227.812 102.31l-6.849-2.325 2.451-23.5c.837.293 3.267.942 7.288 1.948 4.022 1.005 8.504 2.115 13.447 3.33a1396.43 1396.43 0 0013.133 3.142l5.655 1.382-7.352 25.574-12.001-4.084c-.671 5.32-1.006 10.43-1.006 15.331 0 4.064.356 9.132 1.069 15.207.754 6.032 2.094 12.106 4.021 18.222a180.736 180.736 0 0118.034-5.467l-4.587-14.515 22.683-2.199 15.332 40.34-5.152 1.257-79.99 20.547.943-25.511 7.163-3.645a199.32 199.32 0 01-.503-14.075c0-7.079.524-15.185 1.571-24.317 1.089-9.174 2.639-18.055 4.65-26.642z" stroke="#A30009" stroke-width="29.347" mask="url(#a)"/><path d="M293.852 82.454c7.54.922 15.059 1.843 22.558 2.765 7.54.921 15.122 1.843 22.746 2.765l-8.671 18.85-2.451-.377a3336.69 3336.69 0 01-8.42-1.068 76.174 76.174 0 00-1.256 13.886v.44c0 4.608.628 8.693 1.885 12.253 1.256 3.561 3.435 5.865 6.535 6.912a8.514 8.514 0 002.576.377c2.765 0 6.179-1.11 10.242-3.33l13.887 26.768-60.008 33.679-4.713-31.48 9.111-4.901a184.63 184.63 0 01-.628-14.955c0-5.697.398-12.211 1.194-19.542a139.768 139.768 0 014.21-21.615 138.779 138.779 0 00-4.084-.063c-.671 0-1.655.021-2.954.063-1.256.042-2.346.188-3.267.44 1.382-.503 2.346-1.529 2.89-3.079.461-1.466.691-3.142.691-5.027 0-.168-.02-.817-.062-1.948 0-1.131-.168-2.702-.503-4.713-.335-2.01-.67-3.707-1.005-5.09l-.503-2.01zM308.807 32.5c3.351 0 6.409 1.131 9.174 3.393 2.764 2.262 4.964 5.3 6.597 9.111 1.676 3.77 2.514 7.96 2.514 12.567 0 4.608-.838 8.818-2.514 12.63-1.633 3.77-3.833 6.786-6.597 9.048-2.765 2.22-5.823 3.33-9.174 3.33-3.393 0-6.472-1.11-9.237-3.33-2.765-2.262-4.964-5.278-6.598-9.048-1.634-3.812-2.45-8.022-2.45-12.63 0-4.608.816-8.797 2.45-12.567 1.634-3.812 3.833-6.849 6.598-9.11 2.765-2.263 5.844-3.394 9.237-3.394z" stroke="#A30009" stroke-width="29.347" mask="url(#a)"/><path d="M371.516 111.358c-7.54-1.34-14.766-2.157-21.678-2.45a76.821 76.821 0 00-3.079-.063c-5.613 0-10.619.607-15.017 1.822l17.719-37.45 92.556 24.192-15.457 28.59-11.122-3.645c-7.414-2.387-16.484-4.901-27.208-7.54a137.165 137.165 0 00-.377 9.991c0 5.027.419 10.556 1.257 16.588.838 6.033 2.116 11.855 3.833 17.469 1.759 5.571 3.393 9.907 4.901 13.007l2.199 4.712-28.213 16.149c-2.722-8.755-4.314-17.95-4.775-27.585a194.516 194.516 0 01-.251-9.865c0-6.242.398-13.195 1.193-20.861a241.454 241.454 0 013.519-23.061zM517.294 88.612l13.949 3.833-4.335 9.865c-2.932 6.577-6.011 14.368-9.237 23.375-3.184 8.964-5.488 17.405-6.912 25.322a26.142 26.142 0 00-.314 3.896c0 2.723.607 5.215 1.822 7.477 1.215 2.263 3.079 4.022 5.593 5.279 2.555 1.214 5.173 1.989 7.854 2.325 1.927.251 3.665.377 5.215.377.545 0 1.425-.042 2.639-.126l1.823-.126c-1.383-10.598-2.074-20.212-2.074-28.841 0-.503.021-3.142.063-7.917.042-4.776.544-10.599 1.508-17.469 1.005-6.911 2.157-12.692 3.456-17.342 1.298-4.65 2.45-8.169 3.456-10.556l1.508-3.52 37.01 9.049-10.494 19.228-5.655-3.708c-3.267 7.75-5.383 16.254-6.346 25.511-.712 6.912-1.068 13.615-1.068 20.108 0 2.22.104 6.032.314 11.436.251 5.362.754 10.828 1.508 16.4l1.131 8.42-28.527-.315-.629-4.084c-4.482.88-8.545 1.32-12.19 1.32-4.775 0-9.509-1.048-14.201-3.142-4.649-2.136-8.336-6.032-11.059-11.687-2.681-5.697-4.251-12.002-4.712-18.914-.21-2.765-.314-5.487-.314-8.168 0-4.064.293-8.651.879-13.761.629-5.153 1.446-9.844 2.451-14.075l1.445-6.347-18.85-3.581 12.818-27.962 30.475 8.42z" stroke="#A30009" stroke-width="29.347" mask="url(#a)"/><path d="M582.517 118.71c-.922.796-2.011 1.864-3.267 3.205-1.257 1.34-2.221 2.639-2.891 3.895l-15.646-31.543 5.09-2.513c3.393-1.676 7.729-3.52 13.007-5.53 5.278-2.053 10.891-3.77 16.84-5.152 4.524-1.048 8.88-1.571 13.069-1.571 1.257 0 2.493.042 3.708.125 10.514.964 19.206 3.268 26.076 6.912 6.912 3.603 10.724 8.546 11.436 14.829.084.629.126 1.278.126 1.948 0 3.393-1.131 7.017-3.393 10.871-2.22 3.854-6.975 8.022-14.264 12.504-7.289 4.44-18.013 9.048-32.171 13.824 1.172 6.158 2.555 11.645 4.147 16.463 1.633 4.775 3.1 8.566 4.398 11.373l1.948 4.21-26.014 18.285c-2.262-7.163-3.665-15.06-4.21-23.689a208.02 208.02 0 01-.44-13.447c0-4.105.189-9.299.566-15.583a273.316 273.316 0 011.885-19.416zm16.274 7.352c2.933-.964 6.179-2.241 9.74-3.833 3.602-1.634 6.765-3.54 9.488-5.718 2.765-2.179 4.377-4.629 4.838-7.352l-.125-.251c-.084-.126-.252-.294-.503-.503-.251-.251-.628-.503-1.131-.754-.461-.251-1.089-.461-1.885-.628-.754-.168-1.676-.273-2.765-.315a11.05 11.05 0 00-1.194-.062c-.838 0-1.906.083-3.204.251-1.299.126-2.975.398-5.027.817-2.011.419-4.315 1.005-6.912 1.759-.922 4.859-1.382 9.635-1.382 14.327 0 .754.02 1.508.062 2.262z" stroke="#A30009" stroke-width="29.347" mask="url(#a)"/></svg>