<svg width="665" height="250" viewBox="0 0 665 250" fill="none" xmlns="http://www.w3.org/2000/svg">
<path d="M0 226.369L21.864 15.6802L63.1626 39.7526L23.8516 198.984L147.968 250L0 226.369Z" fill="#A40009"/>
<path d="M100.927 183.746L116.165 42.4028L150.176 71.7756C150.176 71.7756 129.858 202.076 126.324 225.486C125.883 227.694 125.662 229.019 125.662 229.019L100.927 183.746ZM152.826 56.758L23.4092 0L158.789 19.4346L152.826 56.758Z" fill="#FF4D00"/>
<mask id="path-3-outside-1_878_644" maskUnits="userSpaceOnUse" x="197.988" y="17.5" width="467" height="203" fill="black">
<rect fill="white" x="197.988" y="17.5" width="467" height="203"/>
<path d="M227.812 102.31L220.963 99.9851L223.414 76.4847C224.251 76.7779 226.681 77.4272 230.702 78.4326C234.724 79.4379 239.206 80.548 244.149 81.7628C249.134 82.9777 253.512 84.0249 257.282 84.9046L262.937 86.287L255.585 111.861L243.584 107.777C242.913 113.097 242.578 118.207 242.578 123.108C242.578 127.172 242.934 132.24 243.647 138.315C244.401 144.347 245.741 150.421 247.668 156.537C253.449 154.442 259.46 152.62 265.702 151.07L261.115 136.555L283.798 134.356L299.13 174.696L293.978 175.953L213.988 196.5L214.931 170.989L222.094 167.344C221.759 162.611 221.591 157.919 221.591 153.269C221.591 146.19 222.115 138.084 223.162 128.952C224.251 119.778 225.801 110.897 227.812 102.31Z"/>
<path d="M293.852 82.454C301.392 83.3756 308.911 84.2972 316.41 85.2188C323.95 86.1404 331.532 87.0619 339.156 87.9835L330.485 106.834L328.034 106.457C326.359 106.248 323.552 105.892 319.614 105.389C318.777 109.913 318.358 114.542 318.358 119.275V119.715C318.358 124.323 318.986 128.408 320.243 131.968C321.499 135.529 323.678 137.833 326.778 138.88C327.573 139.131 328.432 139.257 329.354 139.257C332.119 139.257 335.533 138.147 339.596 135.927L353.483 162.695L293.475 196.374L288.762 164.894L297.873 159.993C297.454 154.84 297.245 149.855 297.245 145.038C297.245 139.341 297.643 132.827 298.439 125.496C299.277 118.165 300.68 110.96 302.649 103.881C301.225 103.839 299.863 103.818 298.565 103.818C297.894 103.818 296.91 103.839 295.611 103.881C294.355 103.923 293.265 104.069 292.344 104.321C293.726 103.818 294.69 102.792 295.234 101.242C295.695 99.7756 295.925 98.1 295.925 96.2149C295.925 96.0474 295.905 95.3981 295.863 94.2671C295.863 93.136 295.695 91.5651 295.36 89.5544C295.025 87.5437 294.69 85.8471 294.355 84.4648L293.852 82.454ZM308.807 32.5C312.158 32.5 315.216 33.631 317.981 35.8931C320.745 38.1552 322.945 41.1922 324.578 45.0042C326.254 48.7743 327.092 52.9633 327.092 57.5713C327.092 62.1792 326.254 66.3891 324.578 70.2012C322.945 73.9713 320.745 76.9874 317.981 79.2494C315.216 81.4696 312.158 82.5797 308.807 82.5797C305.414 82.5797 302.335 81.4696 299.57 79.2494C296.805 76.9874 294.606 73.9713 292.972 70.2012C291.338 66.3891 290.522 62.1792 290.522 57.5713C290.522 52.9633 291.338 48.7743 292.972 45.0042C294.606 41.1922 296.805 38.1552 299.57 35.8931C302.335 33.631 305.414 32.5 308.807 32.5Z"/>
<path d="M371.516 111.358C363.976 110.018 356.75 109.201 349.838 108.908C348.791 108.866 347.765 108.845 346.759 108.845C341.146 108.845 336.14 109.452 331.742 110.667L349.461 73.2172L442.017 97.4088L426.56 125.999L415.438 122.354C408.024 119.967 398.954 117.453 388.23 114.814C387.979 118.249 387.853 121.579 387.853 124.805C387.853 129.832 388.272 135.361 389.11 141.393C389.948 147.426 391.226 153.248 392.943 158.862C394.702 164.433 396.336 168.769 397.844 171.869L400.043 176.581L371.83 192.73C369.108 183.975 367.516 174.78 367.055 165.145C366.887 161.836 366.804 158.548 366.804 155.28C366.804 149.038 367.202 142.085 367.997 134.419C368.793 126.711 369.966 119.024 371.516 111.358Z"/>
<path d="M517.294 88.6119L531.243 92.4448L526.908 102.31C523.976 108.887 520.897 116.678 517.671 125.685C514.487 134.649 512.183 143.09 510.759 151.007C510.55 152.39 510.445 153.688 510.445 154.903C510.445 157.626 511.052 160.118 512.267 162.38C513.482 164.643 515.346 166.402 517.86 167.659C520.415 168.873 523.033 169.648 525.714 169.984C527.641 170.235 529.379 170.361 530.929 170.361C531.474 170.361 532.354 170.319 533.568 170.235L535.391 170.109C534.008 159.511 533.317 149.897 533.317 141.268C533.317 140.765 533.338 138.126 533.38 133.351C533.422 128.575 533.924 122.752 534.888 115.882C535.893 108.971 537.045 103.19 538.344 98.5398C539.642 93.89 540.794 90.3713 541.8 87.9835L543.308 84.4648L580.318 93.513L569.824 112.741L564.169 109.033C560.902 116.783 558.786 125.287 557.823 134.544C557.111 141.456 556.755 148.159 556.755 154.652C556.755 156.872 556.859 160.684 557.069 166.088C557.32 171.45 557.823 176.916 558.577 182.488L559.708 190.908L531.181 190.593L530.552 186.509C526.07 187.389 522.007 187.829 518.362 187.829C513.587 187.829 508.853 186.781 504.161 184.687C499.512 182.551 495.825 178.655 493.102 173C490.421 167.303 488.851 160.998 488.39 154.086C488.18 151.321 488.076 148.599 488.076 145.918C488.076 141.854 488.369 137.267 488.955 132.157C489.584 127.004 490.401 122.313 491.406 118.082L492.851 111.735L474.001 108.154L486.819 80.192L517.294 88.6119Z"/>
<path d="M582.517 118.71C581.595 119.506 580.506 120.574 579.25 121.915C577.993 123.255 577.029 124.554 576.359 125.81L560.713 94.2671L565.803 91.7536C569.196 90.078 573.532 88.2349 578.81 86.2241C584.088 84.1715 589.701 82.454 595.65 81.0716C600.174 80.0244 604.53 79.5008 608.719 79.5008C609.976 79.5008 611.212 79.5427 612.427 79.6264C622.941 80.5899 631.633 82.8939 638.503 86.5383C645.415 90.1409 649.227 95.0839 649.939 101.367C650.023 101.996 650.065 102.645 650.065 103.315C650.065 106.708 648.934 110.332 646.672 114.186C644.452 118.04 639.697 122.208 632.408 126.69C625.119 131.13 614.395 135.738 600.237 140.514C601.409 146.672 602.792 152.159 604.384 156.977C606.017 161.752 607.484 165.543 608.782 168.35L610.73 172.56L584.716 190.845C582.454 183.682 581.051 175.785 580.506 167.156C580.213 162.632 580.066 158.15 580.066 153.709C580.066 149.604 580.255 144.41 580.632 138.126C581.009 131.843 581.637 125.371 582.517 118.71ZM598.791 126.062C601.724 125.098 604.97 123.821 608.531 122.229C612.133 120.595 615.296 118.689 618.019 116.511C620.784 114.332 622.396 111.882 622.857 109.159L622.732 108.908C622.648 108.782 622.48 108.614 622.229 108.405C621.978 108.154 621.601 107.902 621.098 107.651C620.637 107.4 620.009 107.19 619.213 107.023C618.459 106.855 617.537 106.75 616.448 106.708C616.071 106.667 615.673 106.646 615.254 106.646C614.416 106.646 613.348 106.729 612.05 106.897C610.751 107.023 609.075 107.295 607.023 107.714C605.012 108.133 602.708 108.719 600.111 109.473C599.189 114.332 598.729 119.108 598.729 123.8C598.729 124.554 598.749 125.308 598.791 126.062Z"/>
</mask>
<path d="M227.812 102.31L220.963 99.9851L223.414 76.4847C224.251 76.7779 226.681 77.4272 230.702 78.4326C234.724 79.4379 239.206 80.548 244.149 81.7628C249.134 82.9777 253.512 84.0249 257.282 84.9046L262.937 86.287L255.585 111.861L243.584 107.777C242.913 113.097 242.578 118.207 242.578 123.108C242.578 127.172 242.934 132.24 243.647 138.315C244.401 144.347 245.741 150.421 247.668 156.537C253.449 154.442 259.46 152.62 265.702 151.07L261.115 136.555L283.798 134.356L299.13 174.696L293.978 175.953L213.988 196.5L214.931 170.989L222.094 167.344C221.759 162.611 221.591 157.919 221.591 153.269C221.591 146.19 222.115 138.084 223.162 128.952C224.251 119.778 225.801 110.897 227.812 102.31Z" fill="#FF4D00"/>
<path d="M293.852 82.454C301.392 83.3756 308.911 84.2972 316.41 85.2188C323.95 86.1404 331.532 87.0619 339.156 87.9835L330.485 106.834L328.034 106.457C326.359 106.248 323.552 105.892 319.614 105.389C318.777 109.913 318.358 114.542 318.358 119.275V119.715C318.358 124.323 318.986 128.408 320.243 131.968C321.499 135.529 323.678 137.833 326.778 138.88C327.573 139.131 328.432 139.257 329.354 139.257C332.119 139.257 335.533 138.147 339.596 135.927L353.483 162.695L293.475 196.374L288.762 164.894L297.873 159.993C297.454 154.84 297.245 149.855 297.245 145.038C297.245 139.341 297.643 132.827 298.439 125.496C299.277 118.165 300.68 110.96 302.649 103.881C301.225 103.839 299.863 103.818 298.565 103.818C297.894 103.818 296.91 103.839 295.611 103.881C294.355 103.923 293.265 104.069 292.344 104.321C293.726 103.818 294.69 102.792 295.234 101.242C295.695 99.7756 295.925 98.1 295.925 96.2149C295.925 96.0474 295.905 95.3981 295.863 94.2671C295.863 93.136 295.695 91.5651 295.36 89.5544C295.025 87.5437 294.69 85.8471 294.355 84.4648L293.852 82.454ZM308.807 32.5C312.158 32.5 315.216 33.631 317.981 35.8931C320.745 38.1552 322.945 41.1922 324.578 45.0042C326.254 48.7743 327.092 52.9633 327.092 57.5713C327.092 62.1792 326.254 66.3891 324.578 70.2012C322.945 73.9713 320.745 76.9874 317.981 79.2494C315.216 81.4696 312.158 82.5797 308.807 82.5797C305.414 82.5797 302.335 81.4696 299.57 79.2494C296.805 76.9874 294.606 73.9713 292.972 70.2012C291.338 66.3891 290.522 62.1792 290.522 57.5713C290.522 52.9633 291.338 48.7743 292.972 45.0042C294.606 41.1922 296.805 38.1552 299.57 35.8931C302.335 33.631 305.414 32.5 308.807 32.5Z" fill="#FF4D00"/>
<path d="M371.516 111.358C363.976 110.018 356.75 109.201 349.838 108.908C348.791 108.866 347.765 108.845 346.759 108.845C341.146 108.845 336.14 109.452 331.742 110.667L349.461 73.2172L442.017 97.4088L426.56 125.999L415.438 122.354C408.024 119.967 398.954 117.453 388.23 114.814C387.979 118.249 387.853 121.579 387.853 124.805C387.853 129.832 388.272 135.361 389.11 141.393C389.948 147.426 391.226 153.248 392.943 158.862C394.702 164.433 396.336 168.769 397.844 171.869L400.043 176.581L371.83 192.73C369.108 183.975 367.516 174.78 367.055 165.145C366.887 161.836 366.804 158.548 366.804 155.28C366.804 149.038 367.202 142.085 367.997 134.419C368.793 126.711 369.966 119.024 371.516 111.358Z" fill="#FF4D00"/>
<path d="M517.294 88.6119L531.243 92.4448L526.908 102.31C523.976 108.887 520.897 116.678 517.671 125.685C514.487 134.649 512.183 143.09 510.759 151.007C510.55 152.39 510.445 153.688 510.445 154.903C510.445 157.626 511.052 160.118 512.267 162.38C513.482 164.643 515.346 166.402 517.86 167.659C520.415 168.873 523.033 169.648 525.714 169.984C527.641 170.235 529.379 170.361 530.929 170.361C531.474 170.361 532.354 170.319 533.568 170.235L535.391 170.109C534.008 159.511 533.317 149.897 533.317 141.268C533.317 140.765 533.338 138.126 533.38 133.351C533.422 128.575 533.924 122.752 534.888 115.882C535.893 108.971 537.045 103.19 538.344 98.5398C539.642 93.89 540.794 90.3713 541.8 87.9835L543.308 84.4648L580.318 93.513L569.824 112.741L564.169 109.033C560.902 116.783 558.786 125.287 557.823 134.544C557.111 141.456 556.755 148.159 556.755 154.652C556.755 156.872 556.859 160.684 557.069 166.088C557.32 171.45 557.823 176.916 558.577 182.488L559.708 190.908L531.181 190.593L530.552 186.509C526.07 187.389 522.007 187.829 518.362 187.829C513.587 187.829 508.853 186.781 504.161 184.687C499.512 182.551 495.825 178.655 493.102 173C490.421 167.303 488.851 160.998 488.39 154.086C488.18 151.321 488.076 148.599 488.076 145.918C488.076 141.854 488.369 137.267 488.955 132.157C489.584 127.004 490.401 122.313 491.406 118.082L492.851 111.735L474.001 108.154L486.819 80.192L517.294 88.6119Z" fill="#FF4D00"/>
<path d="M582.517 118.71C581.595 119.506 580.506 120.574 579.25 121.915C577.993 123.255 577.029 124.554 576.359 125.81L560.713 94.2671L565.803 91.7536C569.196 90.078 573.532 88.2349 578.81 86.2241C584.088 84.1715 589.701 82.454 595.65 81.0716C600.174 80.0244 604.53 79.5008 608.719 79.5008C609.976 79.5008 611.212 79.5427 612.427 79.6264C622.941 80.5899 631.633 82.8939 638.503 86.5383C645.415 90.1409 649.227 95.0839 649.939 101.367C650.023 101.996 650.065 102.645 650.065 103.315C650.065 106.708 648.934 110.332 646.672 114.186C644.452 118.04 639.697 122.208 632.408 126.69C625.119 131.13 614.395 135.738 600.237 140.514C601.409 146.672 602.792 152.159 604.384 156.977C606.017 161.752 607.484 165.543 608.782 168.35L610.73 172.56L584.716 190.845C582.454 183.682 581.051 175.785 580.506 167.156C580.213 162.632 580.066 158.15 580.066 153.709C580.066 149.604 580.255 144.41 580.632 138.126C581.009 131.843 581.637 125.371 582.517 118.71ZM598.791 126.062C601.724 125.098 604.97 123.821 608.531 122.229C612.133 120.595 615.296 118.689 618.019 116.511C620.784 114.332 622.396 111.882 622.857 109.159L622.732 108.908C622.648 108.782 622.48 108.614 622.229 108.405C621.978 108.154 621.601 107.902 621.098 107.651C620.637 107.4 620.009 107.19 619.213 107.023C618.459 106.855 617.537 106.75 616.448 106.708C616.071 106.667 615.673 106.646 615.254 106.646C614.416 106.646 613.348 106.729 612.05 106.897C610.751 107.023 609.075 107.295 607.023 107.714C605.012 108.133 602.708 108.719 600.111 109.473C599.189 114.332 598.729 119.108 598.729 123.8C598.729 124.554 598.749 125.308 598.791 126.062Z" fill="#FF4D00"/>
<path d="M227.812 102.31L220.963 99.9851L223.414 76.4847C224.251 76.7779 226.681 77.4272 230.702 78.4326C234.724 79.4379 239.206 80.548 244.149 81.7628C249.134 82.9777 253.512 84.0249 257.282 84.9046L262.937 86.287L255.585 111.861L243.584 107.777C242.913 113.097 242.578 118.207 242.578 123.108C242.578 127.172 242.934 132.24 243.647 138.315C244.401 144.347 245.741 150.421 247.668 156.537C253.449 154.442 259.46 152.62 265.702 151.07L261.115 136.555L283.798 134.356L299.13 174.696L293.978 175.953L213.988 196.5L214.931 170.989L222.094 167.344C221.759 162.611 221.591 157.919 221.591 153.269C221.591 146.19 222.115 138.084 223.162 128.952C224.251 119.778 225.801 110.897 227.812 102.31Z" stroke="#A30009" stroke-width="29.3474" mask="url(#path-3-outside-1_878_644)"/>
<path d="M293.852 82.454C301.392 83.3756 308.911 84.2972 316.41 85.2188C323.95 86.1404 331.532 87.0619 339.156 87.9835L330.485 106.834L328.034 106.457C326.359 106.248 323.552 105.892 319.614 105.389C318.777 109.913 318.358 114.542 318.358 119.275V119.715C318.358 124.323 318.986 128.408 320.243 131.968C321.499 135.529 323.678 137.833 326.778 138.88C327.573 139.131 328.432 139.257 329.354 139.257C332.119 139.257 335.533 138.147 339.596 135.927L353.483 162.695L293.475 196.374L288.762 164.894L297.873 159.993C297.454 154.84 297.245 149.855 297.245 145.038C297.245 139.341 297.643 132.827 298.439 125.496C299.277 118.165 300.68 110.96 302.649 103.881C301.225 103.839 299.863 103.818 298.565 103.818C297.894 103.818 296.91 103.839 295.611 103.881C294.355 103.923 293.265 104.069 292.344 104.321C293.726 103.818 294.69 102.792 295.234 101.242C295.695 99.7756 295.925 98.1 295.925 96.2149C295.925 96.0474 295.905 95.3981 295.863 94.2671C295.863 93.136 295.695 91.5651 295.36 89.5544C295.025 87.5437 294.69 85.8471 294.355 84.4648L293.852 82.454ZM308.807 32.5C312.158 32.5 315.216 33.631 317.981 35.8931C320.745 38.1552 322.945 41.1922 324.578 45.0042C326.254 48.7743 327.092 52.9633 327.092 57.5713C327.092 62.1792 326.254 66.3891 324.578 70.2012C322.945 73.9713 320.745 76.9874 317.981 79.2494C315.216 81.4696 312.158 82.5797 308.807 82.5797C305.414 82.5797 302.335 81.4696 299.57 79.2494C296.805 76.9874 294.606 73.9713 292.972 70.2012C291.338 66.3891 290.522 62.1792 290.522 57.5713C290.522 52.9633 291.338 48.7743 292.972 45.0042C294.606 41.1922 296.805 38.1552 299.57 35.8931C302.335 33.631 305.414 32.5 308.807 32.5Z" stroke="#A30009" stroke-width="29.3474" mask="url(#path-3-outside-1_878_644)"/>
<path d="M371.516 111.358C363.976 110.018 356.75 109.201 349.838 108.908C348.791 108.866 347.765 108.845 346.759 108.845C341.146 108.845 336.14 109.452 331.742 110.667L349.461 73.2172L442.017 97.4088L426.56 125.999L415.438 122.354C408.024 119.967 398.954 117.453 388.23 114.814C387.979 118.249 387.853 121.579 387.853 124.805C387.853 129.832 388.272 135.361 389.11 141.393C389.948 147.426 391.226 153.248 392.943 158.862C394.702 164.433 396.336 168.769 397.844 171.869L400.043 176.581L371.83 192.73C369.108 183.975 367.516 174.78 367.055 165.145C366.887 161.836 366.804 158.548 366.804 155.28C366.804 149.038 367.202 142.085 367.997 134.419C368.793 126.711 369.966 119.024 371.516 111.358Z" stroke="#A30009" stroke-width="29.3474" mask="url(#path-3-outside-1_878_644)"/>
<path d="M517.294 88.6119L531.243 92.4448L526.908 102.31C523.976 108.887 520.897 116.678 517.671 125.685C514.487 134.649 512.183 143.09 510.759 151.007C510.55 152.39 510.445 153.688 510.445 154.903C510.445 157.626 511.052 160.118 512.267 162.38C513.482 164.643 515.346 166.402 517.86 167.659C520.415 168.873 523.033 169.648 525.714 169.984C527.641 170.235 529.379 170.361 530.929 170.361C531.474 170.361 532.354 170.319 533.568 170.235L535.391 170.109C534.008 159.511 533.317 149.897 533.317 141.268C533.317 140.765 533.338 138.126 533.38 133.351C533.422 128.575 533.924 122.752 534.888 115.882C535.893 108.971 537.045 103.19 538.344 98.5398C539.642 93.89 540.794 90.3713 541.8 87.9835L543.308 84.4648L580.318 93.513L569.824 112.741L564.169 109.033C560.902 116.783 558.786 125.287 557.823 134.544C557.111 141.456 556.755 148.159 556.755 154.652C556.755 156.872 556.859 160.684 557.069 166.088C557.32 171.45 557.823 176.916 558.577 182.488L559.708 190.908L531.181 190.593L530.552 186.509C526.07 187.389 522.007 187.829 518.362 187.829C513.587 187.829 508.853 186.781 504.161 184.687C499.512 182.551 495.825 178.655 493.102 173C490.421 167.303 488.851 160.998 488.39 154.086C488.18 151.321 488.076 148.599 488.076 145.918C488.076 141.854 488.369 137.267 488.955 132.157C489.584 127.004 490.401 122.313 491.406 118.082L492.851 111.735L474.001 108.154L486.819 80.192L517.294 88.6119Z" stroke="#A30009" stroke-width="29.3474" mask="url(#path-3-outside-1_878_644)"/>
<path d="M582.517 118.71C581.595 119.506 580.506 120.574 579.25 121.915C577.993 123.255 577.029 124.554 576.359 125.81L560.713 94.2671L565.803 91.7536C569.196 90.078 573.532 88.2349 578.81 86.2241C584.088 84.1715 589.701 82.454 595.65 81.0716C600.174 80.0244 604.53 79.5008 608.719 79.5008C609.976 79.5008 611.212 79.5427 612.427 79.6264C622.941 80.5899 631.633 82.8939 638.503 86.5383C645.415 90.1409 649.227 95.0839 649.939 101.367C650.023 101.996 650.065 102.645 650.065 103.315C650.065 106.708 648.934 110.332 646.672 114.186C644.452 118.04 639.697 122.208 632.408 126.69C625.119 131.13 614.395 135.738 600.237 140.514C601.409 146.672 602.792 152.159 604.384 156.977C606.017 161.752 607.484 165.543 608.782 168.35L610.73 172.56L584.716 190.845C582.454 183.682 581.051 175.785 580.506 167.156C580.213 162.632 580.066 158.15 580.066 153.709C580.066 149.604 580.255 144.41 580.632 138.126C581.009 131.843 581.637 125.371 582.517 118.71ZM598.791 126.062C601.724 125.098 604.97 123.821 608.531 122.229C612.133 120.595 615.296 118.689 618.019 116.511C620.784 114.332 622.396 111.882 622.857 109.159L622.732 108.908C622.648 108.782 622.48 108.614 622.229 108.405C621.978 108.154 621.601 107.902 621.098 107.651C620.637 107.4 620.009 107.19 619.213 107.023C618.459 106.855 617.537 106.75 616.448 106.708C616.071 106.667 615.673 106.646 615.254 106.646C614.416 106.646 613.348 106.729 612.05 106.897C610.751 107.023 609.075 107.295 607.023 107.714C605.012 108.133 602.708 108.719 600.111 109.473C599.189 114.332 598.729 119.108 598.729 123.8C598.729 124.554 598.749 125.308 598.791 126.062Z" stroke="#A30009" stroke-width="29.3474" mask="url(#path-3-outside-1_878_644)"/>
</svg>
