<svg width="514" height="250" fill="none" xmlns="http://www.w3.org/2000/svg"><path d="M0 55.215c0-1.875.596-3.323 1.79-4.346 1.192-1.193 2.556-1.79 4.09-1.79l11.247-.255H37.32c.511 0 1.108-.17 1.79-.511a312.292 312.292 0 004.345-3.323 747.427 747.427 0 014.346-3.835c.852-.51 1.278-1.193 1.278-2.045V5.368C49.42 2.301 50.954.596 53.68.256L127.301 0h74.897c1.705 0 3.068.596 4.09 1.79 2.045 2.044 5.113 5.197 9.203 9.457a509.28 509.28 0 0113.037 13.549 444.726 444.726 0 0112.781 13.292c4.09 4.26 7.072 7.328 8.947 9.202 1.022 1.023 1.533 2.386 1.533 4.09v192.485c0 1.534-.596 2.897-1.789 4.09-1.023 1.193-2.386 1.789-4.09 1.789h-35.787c-1.534 0-2.897-.596-4.09-1.789s-1.79-2.556-1.79-4.09v-36.554c0-1.704.597-3.068 1.79-4.09 1.193-1.193 2.556-1.789 4.09-1.789h28.63c1.874 0 3.323-.597 4.345-1.79 1.023-1.193 1.534-2.641 1.534-4.345v-26.841c0-1.704-.511-3.153-1.534-4.346l-37.321-37.321c-1.022-1.022-1.534-2.385-1.534-4.09V61.094c0-1.704.597-3.153 1.79-4.346 1.193-1.192 2.556-1.789 4.09-1.789h32.208c1.704 0 2.557-.767 2.557-2.3v-1.534c0-1.534-.853-2.3-2.557-2.3h-29.908c-3.408-.512-5.112-2.472-5.112-5.88V11.759c0-.852-.085-1.534-.256-2.045-1.193-2.557-3.152-3.835-5.879-3.835-6.646.17-11.844.256-15.593.256-3.749-.17-6.646-.256-8.691-.256-2.045 0-3.579.086-4.602.256-.852.17-1.704.682-2.556 1.534L139.315 37.32l-3.323 3.323a41.963 41.963 0 01-2.556 2.812l-2.301 2.3a10.16 10.16 0 00-1.534 1.279c-.511.34-1.107.681-1.789 1.022l-.511.256c-.341.17-.767.255-1.279.255-.34 0-.681.086-1.022.256H53.681c-1.534 0-2.897.597-4.09 1.79-1.193 1.192-1.79 2.64-1.79 4.345v17.382c.171 7.499.256 16.02.256 25.563V243.865c0 1.534-.596 2.897-1.79 4.09-1.192 1.193-2.555 1.789-4.09 1.789H6.392c-1.705 0-3.153-.596-4.346-1.789-1.023-1.193-1.534-2.556-1.534-4.09v-17.382-21.728c0-7.84-.085-15.849-.255-24.029v-24.284c0-18.576-.086-38.003-.256-58.283V55.215zM267.894 202.198c-1.705 0-3.153-.511-4.346-1.533-1.022-1.193-1.534-2.642-1.534-4.346v-44.734c0-1.704.597-3.153 1.79-4.346l44.734-44.734c1.022-1.022 2.386-1.534 4.09-1.534h86.145c1.875 0 3.323.597 4.346 1.79 1.192 1.022 1.789 2.386 1.789 4.09v36.298c0 1.534-.597 2.897-1.789 4.09-1.023 1.193-2.471 1.79-4.346 1.79H271.984c-1.534 0-2.301.767-2.301 2.3v1.278c0 1.534.767 2.301 2.301 2.301h31.697c1.534 0 2.897.596 4.09 1.789s1.789 2.642 1.789 4.346v35.02c0 1.705.597 3.153 1.79 4.346 1.193 1.022 2.641 1.534 4.345 1.534h71.575c1.363.17 2.556.681 3.579 1.533l39.877 38.6c.852.852 1.619 1.448 2.301 1.789.852.17 2.215.256 4.09.256h7.924c3.408-.171 8.095-.171 14.059 0 1.875 0 3.323-.597 4.346-1.79 1.193-1.193 1.789-2.641 1.789-4.345V61.094c0-1.534.511-2.812 1.534-3.834 1.193-1.193 2.641-1.79 4.345-1.79h33.232c1.533 0 2.3-.852 2.3-2.556v-1.278c0-.852-.255-1.449-.767-1.79-.341-.34-1.533-.51-3.578-.51-1.875-.171-4.772-.171-8.692 0-3.919 0-9.458.085-16.615.255h-27.096c-10.907 0-24.199-.085-39.878-.256-3.578-.17-6.901-.255-9.969-.255h-7.413c-.852 0-1.449-.085-1.789-.256-.852 0-1.79-.17-2.812-.511l-.511-.256-2.045-1.022-1.279-1.278-8.435-8.436L345.859 7.67c-1.023-1.023-2.386-1.534-4.09-1.534H312.22c-1.534 0-2.301-.852-2.301-2.556v-.767c0-1.704.767-2.556 2.301-2.556h75.817l74.898.255c1.533 0 2.897.597 4.089 1.79l44.99 45.245c1.193 1.193 1.79 2.556 1.79 4.09l-.256 147.751c0 1.874-.596 3.323-1.789 4.345l-44.735 44.479c-1.533 1.193-2.897 1.789-4.089 1.789h-77.454l-71.319-.256c-2.727-.511-4.261-2.13-4.602-4.856v-32.72c0-.852-.341-1.619-1.022-2.301a41.77 41.77 0 00-4.346-3.323 97.146 97.146 0 01-4.345-3.579c-.341-.341-.938-.511-1.79-.511l-30.163-.256z" fill="#FF4D00"/></svg>