<svg width="1031" height="250" viewBox="0 0 1031 250" fill="none" xmlns="http://www.w3.org/2000/svg">
<path d="M281.223 191.274L302.75 89.2292H329.244L320.137 128.557H321.172C330.072 106.409 351.392 85.7104 382.233 85.7104C406.865 85.7104 424.665 101.027 418.042 131.455L405.83 191.274H378.714L389.478 138.699C393.617 119.863 383.889 106.616 363.19 106.616C337.11 106.616 320.344 128.971 317.653 142.218L306.683 191.274H281.223Z" fill="#A30009"/>
<path d="M441.765 105.374L445.283 89.0222H454.391L461.014 57.5601H486.681L480.057 89.0222H498.065L494.546 105.374H476.745L469.294 139.941C463.291 168.091 478.401 168.505 491.648 168.505L486.681 191.895H475.71C451.286 191.895 436.176 177.199 442.178 146.979L450.872 105.374H441.765Z" fill="#A30009"/>
<path d="M507.818 191.274L529.344 89.2292H556.046L546.731 130.006H547.559C557.495 108.065 578.4 84.4685 610.691 86.1244L605.309 112.205C576.124 104.96 548.18 124.624 544.248 142.011L533.484 191.274H507.818Z" fill="#A30009"/>
<path d="M660.156 89.0222L638.422 191.274H612.549L634.489 89.0222H660.156ZM637.18 75.568L638.422 70.3934H664.295L663.053 75.568H637.18Z" fill="#A30009"/>
<path d="M668.209 139.527C674.211 109.721 705.053 85.7104 736.722 85.7104C768.805 85.7104 788.675 109.721 782.673 139.527C776.049 169.126 745.829 193.137 713.953 193.137C682.284 193.137 661.585 169.126 668.209 139.527ZM688.08 139.527C684.768 155.258 698.636 168.919 719.128 168.919C739.412 168.919 758.869 155.258 762.181 139.527C765.493 124.003 752.039 110.342 731.754 110.342C711.262 110.342 691.391 124.003 688.08 139.527Z" fill="#A30009"/>
<path d="M796.266 191.274L801.234 167.884H824.623L819.656 191.274H796.266Z" fill="#A30009"/>
<path d="M938.66 139.32C941.351 124.417 932.244 106.616 909.889 106.616C883.809 106.616 869.941 123.589 867.043 139.32C863.731 155.879 871.597 171.61 894.779 171.61C919.825 171.61 935.763 154.43 938.66 139.32ZM937.005 152.567H936.177C926.862 175.957 908.647 188.79 889.604 191.895C885.258 192.516 881.325 192.723 877.392 192.516C855.038 190.86 836.616 173.266 843.239 139.32C849.863 104.753 875.736 87.7803 898.505 86.1244C903.266 85.9174 907.819 86.3314 912.166 87.3663C928.932 90.6781 940.523 103.925 941.351 126.28H942.179L949.01 89.2292H974.262L954.185 191.274H929.346L937.005 152.567Z" fill="#A30009"/>
<path d="M1026.22 89.0222L1004.49 191.274H978.617L1000.56 89.0222H1026.22ZM1003.25 75.568L1004.49 70.3934H1030.36L1029.12 75.568H1003.25Z" fill="#A30009"/>
<path d="M0 125.603L53.1404 93.5982V155.797L108.092 188.405L107.488 250L0 187.198V125.603Z" fill="#FF4D00"/>
<path d="M162.441 31.3998V95.41L108.912 63.3561L53.1429 93.6016L0.00243257 62.1987L108.912 0L162.441 31.3998Z" fill="#FF4D00"/>
<path d="M162.804 218.69L108.092 188.405L162.382 157.572L162.442 95.4086L216.79 63.4036L216.146 187.893L162.804 218.69Z" fill="#FF4D00"/>
<path d="M108.802 150.054H137.555L145.041 137.805L152.357 125.385L137.555 100.545H123.434L116.288 112.795H130.58L137.555 125.385L130.41 137.805H116.288L109.142 125.214H94.851L108.802 150.054Z" fill="#FF4D00"/>
<path d="M109.142 100.375H80.3894L72.9034 112.624L65.5875 125.044L80.3894 149.884H94.5107L101.656 137.634H87.365L80.3894 125.044L87.5351 112.624H101.997L109.142 125.214H123.094L109.142 100.375Z" fill="#FF4D00"/>
</svg>
