<svg width="215" height="250" viewBox="0 0 215 250" fill="none" xmlns="http://www.w3.org/2000/svg">
<g filter="url(#filter0_ii_3044_1734)">
<path d="M121.466 217.542C120.475 217.542 118.741 217.129 116.263 216.303C113.786 215.643 111.473 214.651 109.326 213.33C107.178 212.009 105.939 210.522 105.609 208.87C104.618 202.098 103.627 194.252 102.636 185.332C101.81 176.247 101.067 166.749 100.406 156.838C99.9104 146.762 99.6626 136.934 99.6626 127.354C99.6626 117.939 99.993 109.019 100.654 100.595C101.314 92.1705 102.223 84.9025 103.379 78.7909C101.893 80.2775 100.158 82.2597 98.176 84.7374C96.1938 87.2151 94.2943 89.5276 92.4773 91.6749C90.8255 93.6571 89.7518 94.6482 89.2563 94.6482C88.7607 94.6482 88.513 94.2352 88.513 93.4093V92.666C90.4951 88.3713 93.138 83.4985 96.4416 78.0476C99.7452 72.4314 103.214 66.8979 106.848 61.447C110.482 55.8309 113.786 50.8755 116.759 46.5808C116.759 46.4156 117.007 46.333 117.502 46.333C118.493 46.333 119.98 46.9111 121.962 48.0674C123.944 49.2236 125.761 50.5451 127.413 52.0317C129.065 53.5183 129.891 54.9224 129.891 56.2438V56.4916C125.761 63.4291 122.457 71.7707 119.98 81.5164C117.667 91.0968 116.015 101.503 115.024 112.735C114.198 123.802 113.786 135.117 113.786 146.68C113.786 153.122 113.868 159.481 114.033 165.758C114.364 172.035 114.694 178.147 115.024 184.093C116.346 170.383 119.154 157.169 123.449 144.45C127.743 131.566 132.533 118.847 137.819 106.293C143.105 93.5745 147.813 80.5253 151.942 67.1457C154.915 57.5652 157.476 50.2973 159.623 45.3419C161.936 40.2213 164 36.7526 165.817 34.9356C167.634 32.9534 169.203 31.9623 170.525 31.9623C171.02 31.9623 172.094 32.7882 173.746 34.44C175.563 35.9267 177.297 37.8262 178.949 40.1388C180.601 42.4513 181.427 44.7638 181.427 47.0763C181.427 47.9022 181.344 48.4803 181.179 48.8107C178.701 60.5385 176.554 72.8444 174.737 85.7284C172.92 98.4473 172.011 111.249 172.011 124.133C172.011 130.244 172.342 136.934 173.003 144.202C173.663 151.47 174.654 158.408 175.976 165.015C177.462 171.622 179.197 176.99 181.179 181.12C183.161 185.249 185.474 187.314 188.117 187.314C189.934 187.314 191.998 186.158 194.311 183.845C196.788 181.533 199.349 177.899 201.992 172.944C203.148 170.961 204.469 168.071 205.956 164.272C207.608 160.307 209.177 156.756 210.664 153.617C212.15 150.479 213.141 148.91 213.637 148.91C214.132 148.91 214.38 149.901 214.38 151.883C214.38 154.03 213.885 156.673 212.894 159.812C211.902 162.95 210.746 166.006 209.425 168.979C208.269 171.787 207.36 173.935 206.699 175.421C201.909 185.002 197.284 191.857 192.824 195.986C188.529 199.95 184.648 201.933 181.179 201.933C177.049 201.933 173.416 199.703 170.277 195.243C167.139 190.618 164.496 184.589 162.348 177.156C160.201 169.722 158.467 161.546 157.145 152.626C155.824 143.541 154.833 134.457 154.172 125.372C153.677 116.122 153.429 107.615 153.429 99.8513C153.429 97.3736 153.429 94.8959 153.429 92.4182C153.429 89.9405 153.511 87.4628 153.677 84.9851C150.538 92.7486 146.904 101.09 142.775 110.01C138.81 118.764 134.929 128.84 131.129 140.238C127.33 151.635 124.192 165.18 121.714 180.872C121.384 183.35 121.136 185.91 120.971 188.553C120.806 191.031 120.723 193.591 120.723 196.234C120.723 201.189 120.888 205.649 121.219 209.613C121.714 213.578 122.127 216.138 122.457 217.294C122.457 217.46 122.127 217.542 121.466 217.542Z" fill="url(#paint0_linear_3044_1734)"/>
<path d="M86.224 203.419C86.224 213.826 84.0767 222.498 79.782 229.435C75.6525 236.373 70.1189 241.493 63.1814 244.797C56.409 248.266 49.1411 250 41.3776 250C31.9623 250 23.2904 247.77 15.3617 243.31C7.59828 238.85 2.4777 232.739 0 224.975C2.97324 219.359 5.36835 211.926 7.18533 202.676C9.00231 193.261 9.9108 183.845 9.9108 174.43C9.9108 157.747 7.02015 145.028 1.23885 136.274C11.8104 140.403 19.2435 147.836 23.5382 158.573C27.8328 169.144 29.9802 182.194 29.9802 197.721C29.9802 204.163 29.7324 210.605 29.2369 217.047C28.2458 219.689 27.7503 222.002 27.7503 223.984C27.7503 227.288 28.7413 229.765 30.7235 231.417C32.7057 233.234 35.2659 234.143 38.4044 234.143C41.8731 234.143 45.3419 232.986 48.8107 230.674C52.4447 228.361 55.4179 224.893 57.7304 220.268C60.2081 215.477 61.447 209.779 61.447 203.171V152.874C61.447 146.762 59.5474 141.559 55.7483 137.265C52.1143 132.805 46.2504 127.436 38.1566 121.16C30.0628 114.883 23.4556 109.184 18.335 104.063C13.3796 98.9429 9.0849 92.3356 5.45094 84.2418C1.81698 76.148 0 66.485 0 55.2527C0 45.3419 1.89957 36.257 5.69871 27.998C9.49785 19.5738 15.114 12.8014 22.5471 7.68086C30.1454 2.56029 39.3129 0 50.0496 0C57.813 0 64.8332 1.40403 71.11 4.21208C77.552 6.85497 81.9293 9.82821 84.2418 13.1318C80.7731 17.5917 77.7172 24.9422 75.0743 35.1833C72.5966 45.2593 71.3578 55.5831 71.3578 66.1546C71.3578 79.369 73.5877 90.4361 78.0476 99.3558C68.9627 95.887 61.9425 89.3624 56.9871 79.782C52.1969 70.2015 49.8018 59.2996 49.8018 47.0763C49.8018 35.8441 51.784 25.5203 55.7483 16.1051C45.3419 15.2792 37.6611 18.6653 32.7057 26.2636C27.7503 33.8619 25.2725 43.6075 25.2725 55.5005C25.2725 61.9425 26.5114 67.7238 28.9891 72.8444C31.4668 77.7998 34.5226 82.0945 38.1566 85.7285C41.9557 89.3624 47.0763 93.7397 53.5183 98.8603C60.4559 104.311 65.9894 109.184 70.1189 113.479C74.4136 117.608 78.0476 122.729 81.0208 128.84C84.1592 134.952 85.8936 142.137 86.224 150.396V203.419Z" fill="url(#paint1_linear_3044_1734)"/>
</g>
<defs>
<filter id="filter0_ii_3044_1734" x="-2.54653" y="0" width="219.818" height="251.583" filterUnits="userSpaceOnUse" color-interpolation-filters="sRGB">
<feFlood flood-opacity="0" result="BackgroundImageFix"/>
<feBlend mode="normal" in="SourceGraphic" in2="BackgroundImageFix" result="shape"/>
<feColorMatrix in="SourceAlpha" type="matrix" values="0 0 0 0 0 0 0 0 0 0 0 0 0 0 0 0 0 0 127 0" result="hardAlpha"/>
<feOffset dx="2.89065" dy="0.2753"/>
<feGaussianBlur stdDeviation="1.49006"/>
<feComposite in2="hardAlpha" operator="arithmetic" k2="-1" k3="1"/>
<feColorMatrix type="matrix" values="0 0 0 0 0.538462 0 0 0 0 0 0 0 0 0 0 0 0 0 0.55 0"/>
<feBlend mode="normal" in2="shape" result="effect1_innerShadow_3044_1734"/>
<feColorMatrix in="SourceAlpha" type="matrix" values="0 0 0 0 0 0 0 0 0 0 0 0 0 0 0 0 0 0 127 0" result="hardAlpha"/>
<feOffset dx="-2.54653" dy="1.58298"/>
<feGaussianBlur stdDeviation="4.33254"/>
<feComposite in2="hardAlpha" operator="arithmetic" k2="-1" k3="1"/>
<feColorMatrix type="matrix" values="0 0 0 0 1 0 0 0 0 0.851077 0 0 0 0 0.767308 0 0 0 0.38 0"/>
<feBlend mode="normal" in2="effect1_innerShadow_3044_1734" result="effect2_innerShadow_3044_1734"/>
</filter>
<linearGradient id="paint0_linear_3044_1734" x1="107.19" y1="0" x2="107.19" y2="250" gradientUnits="userSpaceOnUse">
<stop stop-color="#B20000"/>
<stop offset="1" stop-color="#FF5C00"/>
</linearGradient>
<linearGradient id="paint1_linear_3044_1734" x1="107.19" y1="0" x2="107.19" y2="250" gradientUnits="userSpaceOnUse">
<stop stop-color="#B20000"/>
<stop offset="1" stop-color="#FF5C00"/>
</linearGradient>
</defs>
</svg>
