<svg width="971" height="250" viewBox="0 0 971 250" fill="none" xmlns="http://www.w3.org/2000/svg">
<path d="M43.6364 0L97.3691 77.78C82.6415 90.2064 71.6342 108.539 64.3471 132.778L0.834438 120.467C2.13844 105.279 4.93821 90.4749 9.23376 76.0541C13.5293 61.6334 18.17 48.9769 23.1559 38.0846C28.2185 27.1156 32.8592 18.0643 37.0781 10.9306C41.2969 3.72025 43.483 0.0767061 43.6364 0ZM55.6026 139.452C54.2986 139.528 53.4548 140.257 53.0713 141.638C52.9179 142.942 53.4932 143.671 54.7972 143.824C56.1012 143.747 56.945 143.057 57.3285 141.753C57.4819 140.449 56.9066 139.682 55.6026 139.452ZM48.2388 138.071C46.8581 138.148 45.976 138.876 45.5924 140.257C45.439 141.561 46.0143 142.29 47.3183 142.443C48.6223 142.367 49.4661 141.676 49.8496 140.372C50.003 138.991 49.4661 138.224 48.2388 138.071ZM62.7363 138.531C61.4323 143.287 60.3967 147.736 59.6297 151.878C58.9393 156.02 58.4024 159.51 58.0188 162.348C57.712 165.187 57.5586 166.606 57.5586 166.606C61.4706 151.648 67.2236 140.104 74.8175 131.973C82.4881 123.765 90.9258 118.856 100.13 117.245C109.335 115.558 118.233 116.593 126.824 120.352C135.492 124.11 142.741 129.94 148.57 137.841C154.4 145.742 157.737 154.946 158.581 165.455C159.424 175.964 157.008 186.856 151.332 198.132C144.965 210.788 136.834 221.335 126.939 229.773C117.121 238.211 106.497 244.002 95.0679 247.147C83.7154 250.215 72.4396 250.33 61.2405 247.492C50.1181 244.654 39.9546 238.556 30.7498 229.198C21.5451 219.763 14.2197 207.222 8.77352 191.574C1.71656 171.17 -1.08321 149.155 0.374201 125.53L62.7363 138.531ZM101.396 155.445C99.4018 155.445 97.5608 156.749 95.8733 159.357C94.2625 161.965 92.9585 165.493 91.9613 169.942C90.9641 174.391 90.4655 179.224 90.4655 184.44C90.4655 189.733 90.9641 194.603 91.9613 199.052C92.9585 203.501 94.2625 207.03 95.8733 209.638C97.5608 212.246 99.4018 213.55 101.396 213.55C103.314 213.55 105.078 212.246 106.689 209.638C108.376 207.03 109.719 203.501 110.716 199.052C111.713 194.603 112.212 189.733 112.212 184.44C112.212 179.224 111.713 174.391 110.716 169.942C109.795 165.493 108.491 161.965 106.804 159.357C105.116 156.749 103.314 155.445 101.396 155.445Z" fill="#FF4D00"/>
<path d="M288.493 0.462078L234.761 78.2421C249.488 90.6685 260.496 109.001 267.783 133.24L331.295 120.929C329.991 105.741 327.192 90.9369 322.896 76.5162C318.601 62.0954 313.96 49.4389 308.974 38.5467C303.911 27.5777 299.271 18.5264 295.052 11.3927C290.833 4.18232 288.647 0.538784 288.493 0.462078ZM276.527 139.914C277.831 139.99 278.675 140.719 279.059 142.1C279.212 143.404 278.637 144.133 277.333 144.286C276.029 144.209 275.185 143.519 274.801 142.215C274.648 140.911 275.223 140.144 276.527 139.914ZM283.891 138.533C285.272 138.61 286.154 139.338 286.537 140.719C286.691 142.023 286.115 142.752 284.811 142.905C283.507 142.829 282.664 142.138 282.28 140.834C282.127 139.454 282.664 138.686 283.891 138.533ZM269.394 138.993C270.698 143.749 271.733 148.198 272.5 152.34C273.191 156.482 273.727 159.972 274.111 162.811C274.418 165.649 274.571 167.068 274.571 167.068C270.659 152.11 264.906 140.566 257.312 132.435C249.642 124.227 241.204 119.318 231.999 117.707C222.795 116.02 213.897 117.055 205.306 120.814C196.638 124.573 189.389 130.402 183.559 138.303C177.73 146.204 174.393 155.408 173.549 165.917C172.706 176.426 175.122 187.318 180.798 198.594C187.165 211.25 195.295 221.798 205.191 230.235C215.009 238.673 225.633 244.464 237.062 247.609C248.414 250.677 259.69 250.792 270.889 247.954C282.012 245.116 292.175 239.018 301.38 229.66C310.585 220.225 317.91 207.684 323.356 192.036C330.413 171.632 333.213 149.617 331.756 125.992L269.394 138.993ZM230.734 155.907C232.728 155.907 234.569 157.211 236.257 159.819C237.867 162.427 239.171 165.956 240.169 170.404C241.166 174.853 241.664 179.686 241.664 184.902C241.664 190.195 241.166 195.065 240.169 199.514C239.171 203.963 237.867 207.492 236.257 210.1C234.569 212.708 232.728 214.012 230.734 214.012C228.816 214.012 227.052 212.708 225.441 210.1C223.753 207.492 222.411 203.963 221.414 199.514C220.417 195.065 219.918 190.195 219.918 184.902C219.918 179.686 220.417 174.853 221.414 170.404C222.334 165.956 223.638 162.427 225.326 159.819C227.013 157.211 228.816 155.907 230.734 155.907Z" fill="#FF4D00"/>
<path d="M447.726 38.4136C450.153 37.1983 452.579 36.2388 455.006 35.5352C457.432 34.7676 459.976 34.1919 462.638 33.8081C465.377 33.3603 468.273 33.0725 471.326 32.9446C474.457 32.8166 477.901 32.7527 481.658 32.7527H508.78C512.537 32.7527 515.942 32.8166 518.995 32.9446C522.126 33.0725 525.022 33.3603 527.684 33.8081C530.345 34.1919 532.889 34.7676 535.315 35.5352C537.742 36.2388 540.207 37.1983 542.712 38.4136C541.382 40.5245 540.403 42.8913 539.777 45.5139C539.151 48.1365 538.759 50.7591 538.603 53.3817C538.446 56.0043 538.485 58.4989 538.72 60.8657C538.955 63.2324 539.268 65.2154 539.66 66.8145C536.372 64.4478 533.163 62.4968 530.032 60.9616C526.901 59.3625 523.731 58.1151 520.521 57.2196C517.312 56.2601 513.986 55.5885 510.541 55.2047C507.097 54.8209 503.419 54.629 499.505 54.629C496.53 54.629 493.399 54.7249 490.112 54.9168V55.3006C494.26 55.1087 497.783 55.3006 500.679 55.8763C503.575 56.3881 505.923 57.3475 507.724 58.7548C509.524 60.0981 510.776 61.9531 511.481 64.3198C512.264 66.6226 512.616 69.4371 512.537 72.7633C512.224 82.678 512.342 92.3369 512.89 101.74C513.516 111.143 514.925 120.962 517.117 131.196C513.125 129.981 508.976 129.117 504.671 128.606C500.366 128.158 495.748 127.934 490.816 127.934C488.781 127.934 486.707 127.966 484.593 128.03C482.558 128.094 480.445 128.19 478.253 128.318C479.897 116.292 480.915 104.203 481.306 92.049C481.776 79.8316 481.423 67.5181 480.249 55.1087C477.197 55.3646 474.418 55.7804 471.913 56.3561C469.408 56.9318 466.982 57.6994 464.634 58.6589C462.364 59.6183 460.094 60.7697 457.824 62.113C455.632 63.4563 453.284 65.0235 450.779 66.8145C451.092 65.2154 451.366 63.2324 451.601 60.8657C451.836 58.4989 451.875 56.0043 451.718 53.3817C451.64 50.7591 451.288 48.1365 450.662 45.5139C450.035 42.8913 449.057 40.5245 447.726 38.4136Z" fill="#A30009"/>
<path d="M545.075 131.1C546.014 123.232 546.758 115.173 547.306 106.921C547.854 98.6695 548.128 90.3859 548.128 82.0704C548.206 73.6908 547.971 65.3753 547.423 57.1237C546.954 48.8081 546.132 40.6844 544.958 32.7527C547.697 32.7527 550.828 32.7207 554.351 32.6567C557.873 32.5928 561.435 32.4968 565.035 32.3689C568.636 32.177 572.08 31.9211 575.367 31.6013C578.733 31.2175 581.59 30.7377 583.938 30.162C578.068 37.6461 573.998 45.4179 571.728 53.4776C569.536 61.5373 568.557 69.693 568.792 77.9446C569.027 86.1322 570.123 94.3198 572.08 102.507C574.115 110.695 576.424 118.659 579.007 126.399H579.712C579.007 123.904 578.146 120.962 577.129 117.571C576.189 114.117 575.25 110.471 574.311 106.633C573.371 102.731 572.55 98.7335 571.845 94.6397C571.141 90.4819 570.71 86.42 570.553 82.4542C570.397 78.4883 570.593 74.7463 571.141 71.2281C571.767 67.71 572.902 64.6077 574.545 61.9211C576.189 59.1706 578.42 56.9957 581.238 55.3966C584.134 53.7335 587.774 52.838 592.157 52.71C597.402 52.5181 601.589 53.3817 604.72 55.3006C607.929 57.2196 610.356 59.8422 612 63.1684C613.722 66.4307 614.857 70.2687 615.405 74.6823C615.953 79.032 616.227 83.5736 616.227 88.307C616.227 99.5011 617.283 110.791 619.397 122.177C614.231 123.264 609.26 124.416 604.485 125.631C599.789 126.846 595.093 127.998 590.396 129.085C598.615 127.294 607.186 125.599 616.109 124C625.032 122.337 633.721 120.45 642.175 118.339C650.628 116.228 658.573 113.765 666.009 110.951C673.524 108.136 679.942 104.65 685.265 100.493C684.873 102.156 684.678 103.947 684.678 105.866C684.678 107.721 684.834 109.64 685.147 111.623C685.46 113.606 685.891 115.588 686.439 117.571C687.065 119.554 687.769 121.441 688.552 123.232C682.447 125.663 676.185 127.294 669.766 128.126C663.426 128.893 656.812 129.277 649.924 129.277C644.758 129.277 639.513 129.181 634.191 128.989C628.868 128.797 623.389 128.701 617.753 128.701C612.352 128.701 606.951 128.861 601.55 129.181C596.149 129.501 590.631 130.141 584.995 131.1C585.465 127.198 585.895 123.072 586.287 118.723C586.678 114.373 586.913 110.023 586.991 105.674C587.148 101.26 587.069 96.9104 586.756 92.6247C586.521 88.339 585.974 84.3092 585.112 80.5352C584.33 76.7612 583.195 73.339 581.708 70.2687C580.299 67.1983 578.459 64.6716 576.189 62.6887C574.467 64.9915 573.293 67.838 572.667 71.2281C572.041 74.5544 571.767 78.2004 571.845 82.1663C572.002 86.1322 572.432 90.258 573.137 94.5437C573.841 98.8294 574.663 103.051 575.602 107.209C576.62 111.303 577.676 115.173 578.772 118.819C579.868 122.465 580.847 125.631 581.708 128.318C578.42 128.318 575.328 128.35 572.432 128.414C569.614 128.478 566.757 128.606 563.861 128.797C561.043 129.053 558.108 129.341 555.055 129.661C552.002 130.045 548.676 130.525 545.075 131.1ZM619.397 90.5139C619.084 85.7804 619.632 81.1429 621.04 76.6013C622.449 72.0597 624.719 68.0299 627.85 64.5117C631.06 60.9296 635.169 58.0832 640.179 55.9723C645.188 53.7974 651.137 52.742 658.025 52.806C664.209 52.9339 669.375 54.1173 673.523 56.3561C677.75 58.5949 680.999 61.3774 683.269 64.7036C685.617 67.9659 687.026 71.516 687.495 75.3539C687.965 79.1919 687.535 82.806 686.204 86.1962C684.952 89.5224 682.799 92.3689 679.746 94.7356C676.772 97.1023 672.976 98.4456 668.357 98.7655C665.931 98.9574 663.426 98.7335 660.843 98.0938C658.338 97.4542 656.186 96.2068 654.385 94.3518C652.663 92.4328 651.567 89.7783 651.098 86.3881C650.628 82.9339 651.294 78.5203 653.094 73.1471H652.507C651.881 74.5544 651.294 76.2815 650.746 78.3284C650.198 80.3753 649.845 82.5501 649.689 84.8529C649.611 87.0917 649.767 89.3625 650.159 91.6652C650.55 93.9041 651.372 95.951 652.624 97.806C653.955 99.597 655.794 101.068 658.143 102.22C660.491 103.371 663.504 103.947 667.183 103.947C671.019 103.947 675.833 103.179 681.625 101.644C679.511 103.051 676.811 104.586 673.523 106.249C670.314 107.849 666.909 109.352 663.309 110.759C659.708 112.166 656.107 113.35 652.507 114.309C648.906 115.205 645.658 115.652 642.762 115.652C636.343 115.652 630.981 113.606 626.676 109.512C622.371 105.354 619.945 99.0213 619.397 90.5139ZM654.385 73.1471C653.681 74.8742 653.094 76.8252 652.624 79C652.233 81.1748 652.115 83.3817 652.272 85.6205C652.507 89.5224 653.759 91.4734 656.029 91.4734C656.89 91.4734 657.556 91.1535 658.025 90.5139C658.495 89.8742 658.847 89.1066 659.082 88.2111C659.317 87.3156 659.434 86.3881 659.434 85.4286C659.434 84.4051 659.395 83.5096 659.317 82.742C658.925 80.7591 658.299 78.936 657.438 77.2729C656.577 75.5458 655.559 74.1706 654.385 73.1471Z" fill="#A30009"/>
<path d="M739.11 121.985C739.893 119.746 740.362 117.284 740.519 114.597C740.675 111.846 740.636 109.032 740.401 106.154C740.167 103.275 739.775 100.429 739.227 97.6141C738.758 94.7356 738.249 92.0171 737.701 89.4584C738.64 90.1621 739.932 91.0576 741.575 92.145C743.297 93.1684 745.176 94.2878 747.211 95.5032C749.325 96.6546 751.516 97.838 753.786 99.0533C756.134 100.269 758.404 101.388 760.596 102.412C762.788 103.371 764.823 104.171 766.702 104.81C768.658 105.386 770.341 105.674 771.75 105.674C773.003 105.674 773.707 105.354 773.864 104.714C774.098 104.011 773.942 103.115 773.394 102.028C772.846 100.94 771.985 99.725 770.811 98.3817C769.637 97.0384 768.306 95.7271 766.819 94.4478C764.392 92.2729 761.653 89.8102 758.6 87.0597C755.547 84.2452 752.651 81.2388 749.912 78.0405C747.25 74.8422 744.98 71.452 743.102 67.8699C741.301 64.2878 740.401 60.6098 740.401 56.8358C740.401 53.7015 740.988 50.6951 742.162 47.8166C743.337 44.8742 745.176 42.3156 747.681 40.1407C750.264 37.9019 753.512 36.1109 757.426 34.7676C761.34 33.4243 765.997 32.7527 771.398 32.7527C774.999 32.7527 778.443 33.1365 781.73 33.904C785.096 34.6716 788.149 35.7271 790.888 37.0704C793.706 38.4136 796.172 40.0448 798.285 41.9638C800.477 43.8188 802.238 45.8657 803.569 48.1045C801.221 49.5757 798.911 51.3348 796.642 53.3817C794.45 55.4286 792.376 57.6354 790.419 60.0021C788.54 62.3049 786.857 64.7036 785.37 67.1983C783.961 69.629 782.865 71.9957 782.082 74.2985C784.274 76.4094 786.544 78.6162 788.892 80.919C791.319 83.2218 793.55 85.5885 795.585 88.0192C797.62 90.3859 799.342 92.8486 800.751 95.4072C802.238 97.9019 803.177 100.493 803.569 103.179C804.195 107.209 803.686 110.791 802.042 113.925C800.477 117.06 798.09 119.682 794.88 121.793C791.671 123.904 787.836 125.535 783.374 126.687C778.912 127.774 774.138 128.318 769.05 128.318C764.118 128.318 759.109 127.806 754.021 126.783C749.011 125.759 744.041 124.16 739.11 121.985ZM774.92 52.806C773.511 52.742 772.259 53.1898 771.163 54.1493C770.146 55.0448 769.872 56.7718 770.341 59.3305C770.733 61.5053 771.985 63.8081 774.098 66.2388C776.212 68.6055 778.678 71.1642 781.495 73.9147C781.495 72.1876 781.456 70.1407 781.378 67.774C781.378 65.3433 781.182 63.0725 780.791 60.9616C780.4 58.7868 779.734 56.9318 778.795 55.3966C777.934 53.7974 776.642 52.9339 774.92 52.806Z" fill="#A30009"/>
<path d="M806.267 44.3625C806.267 42.7633 806.737 41.2601 807.676 39.8529C808.694 38.4456 810.064 37.2303 811.786 36.2068C813.508 35.1194 815.504 34.2878 817.774 33.7121C820.122 33.0725 822.627 32.7527 825.288 32.7527C827.871 32.7527 830.298 33.0725 832.568 33.7121C834.916 34.2878 836.951 35.1194 838.673 36.2068C840.395 37.2303 841.726 38.4456 842.665 39.8529C843.683 41.2601 844.191 42.7633 844.191 44.3625L847.127 45.0341C844.7 51.1748 842.822 57.6034 841.491 64.3198C840.239 71.0362 839.495 77.9126 839.26 84.9488C839.025 91.9851 839.299 99.1493 840.082 106.441C840.865 113.67 842.078 120.898 843.722 128.126C839.965 128.126 836.521 128.19 833.39 128.318C830.337 128.382 827.362 128.51 824.466 128.701C821.57 128.957 818.674 129.277 815.778 129.661C812.882 130.045 809.79 130.525 806.502 131.1C807.442 124.959 808.146 118.691 808.616 112.294C809.164 105.898 809.438 99.5011 809.438 93.1045C809.438 86.7079 809.203 80.4073 808.733 74.2026C808.263 67.9979 807.52 61.9851 806.502 56.1642C809.242 56.1642 812.177 56.1322 815.308 56.0682C818.517 56.0043 821.648 55.7804 824.701 55.3966C827.832 54.9488 830.728 54.2772 833.39 53.3817C836.129 52.4222 838.399 51.1109 840.199 49.4478L839.73 49.064C837.851 50.7271 835.268 52.0384 831.981 52.9979C828.693 53.9574 825.288 54.4371 821.766 54.4371C819.731 54.4371 817.774 54.2452 815.895 53.8614C814.017 53.4776 812.373 52.9019 810.964 52.1343C809.555 51.3028 808.42 50.2473 807.559 48.968C806.698 47.6887 806.267 46.1535 806.267 44.3625Z" fill="#A30009"/>
<path d="M849.494 128.414C849.807 127.006 850.12 125.695 850.433 124.48C850.825 123.264 851.177 122.081 851.49 120.93C851.803 119.714 852.077 118.467 852.312 117.188C852.625 115.844 852.86 114.373 853.016 112.774C853.486 109.064 854.386 105.93 855.717 103.371C857.126 100.812 858.887 98.7335 861 97.1343C863.114 95.4712 865.501 94.2239 868.163 93.3923C870.824 92.5608 873.681 92.0171 876.734 91.7612V91.4734C874.229 91.4094 871.724 91.1855 869.219 90.8017C866.793 90.3539 864.523 89.5544 862.409 88.403C860.296 87.1876 858.496 85.4606 857.008 83.2218C855.521 80.983 854.504 78.0085 853.956 74.2985C853.408 70.8443 852.86 67.1023 852.312 63.0725C851.764 58.9787 850.903 54.629 849.729 50.0235C855.678 50.855 861.431 51.5586 866.988 52.1343C872.624 52.6461 878.73 52.9019 885.305 52.9019C884.757 57.0597 884.287 61.1855 883.896 65.2793C883.583 69.3731 883.465 73.1791 883.544 76.6972C883.622 80.2154 883.935 83.3177 884.483 86.0043C885.109 88.6269 886.087 90.5778 887.418 91.8571C888.905 90.5139 889.962 88.5309 890.588 85.9083C891.214 83.2218 891.528 80.1514 891.528 76.6972C891.528 73.1791 891.293 69.4051 890.823 65.3753C890.432 61.2814 889.962 57.1237 889.414 52.9019C896.067 52.9019 902.173 52.6461 907.73 52.1343C913.366 51.5586 919.119 50.855 924.99 50.0235C923.894 54.629 923.072 58.9787 922.524 63.0725C921.976 67.1023 921.389 70.8443 920.763 74.2985C920.137 78.0725 919.08 81.1748 917.593 83.6055C916.106 86.0362 914.344 87.9872 912.309 89.4584C910.274 90.8657 908.004 91.8891 905.5 92.5288C903.073 93.1045 900.607 93.4243 898.103 93.4883V93.8721C900.999 94.064 903.777 94.4797 906.439 95.1194C909.1 95.6951 911.487 96.6866 913.601 98.0938C915.714 99.5011 917.475 101.388 918.884 103.755C920.372 106.058 921.35 109.064 921.82 112.774C922.211 116.036 922.681 119.203 923.229 122.273C923.855 125.343 924.559 128.318 925.342 131.196C919.393 130.301 913.601 129.597 907.965 129.085C902.329 128.574 896.146 128.318 889.414 128.318C890.04 123.392 890.471 119.043 890.706 115.269C891.019 111.431 891.097 108.136 890.94 105.386C890.862 102.571 890.51 100.237 889.884 98.3817C889.336 96.5267 888.514 95.0554 887.418 93.968C885.07 96.0149 883.817 100.205 883.661 106.537C883.504 112.87 884.052 121.058 885.305 131.1C882.017 130.652 878.964 130.237 876.147 129.853C873.407 129.469 870.667 129.149 867.928 128.893C865.188 128.638 862.331 128.446 859.357 128.318C856.382 128.254 853.095 128.286 849.494 128.414Z" fill="#A30009"/>
<path d="M402.822 169.183C402.822 163.131 403.313 157.24 404.294 151.51C405.357 145.715 407.319 140.564 410.181 136.057C413.124 131.55 417.171 127.912 422.322 125.144C427.555 122.375 434.341 120.991 442.681 120.991C445.788 120.991 448.608 121.377 451.143 122.15C453.759 122.922 456.13 123.985 458.256 125.337C460.464 126.689 462.385 128.331 464.02 130.262C465.737 132.129 467.291 134.19 468.681 136.443C466.064 137.989 463.489 140.274 460.954 143.3C458.42 146.326 456.09 149.61 453.964 153.151C451.92 156.628 450.162 160.105 448.69 163.582C447.218 166.994 446.196 169.892 445.624 172.274C445.624 169.892 445.624 167.22 445.624 164.258C445.706 161.296 445.624 158.431 445.379 155.662C445.134 152.894 444.684 150.415 444.03 148.226C443.376 145.972 442.354 144.427 440.964 143.59C439.492 144.17 438.266 145.264 437.284 146.874C436.385 148.419 435.649 150.351 435.077 152.668C434.586 154.922 434.259 157.465 434.096 160.298C433.932 163.131 433.932 166.061 434.096 169.087C434.178 172.435 434.545 175.268 435.2 177.586C435.854 179.839 436.753 181.674 437.898 183.091C439.042 184.507 440.391 185.537 441.945 186.181C443.498 186.825 445.215 187.147 447.096 187.147C450.039 187.147 453.31 186.503 456.907 185.215C460.586 183.863 464.511 182.222 468.681 180.29C468.108 182.028 467.454 184.185 466.718 186.761C466.064 189.336 465.492 192.073 465.001 194.97C464.593 197.803 464.388 200.668 464.388 203.565C464.47 206.398 464.92 208.974 465.737 211.292C461.895 213.352 458.215 214.865 454.7 215.831C451.184 216.732 447.178 217.183 442.681 217.183C437.284 217.183 432.542 216.571 428.454 215.348C424.448 214.06 420.932 212.322 417.907 210.133C414.964 207.879 412.511 205.239 410.549 202.213C408.668 199.123 407.115 195.807 405.888 192.266C404.744 188.724 403.926 184.99 403.435 181.063C403.027 177.135 402.822 173.175 402.822 169.183Z" fill="#A30009"/>
<path d="M475.624 181.352C475.624 174.721 475.256 168.121 474.521 161.554C473.867 154.986 472.722 148.226 471.087 141.272C474.848 141.272 478.241 141.24 481.266 141.176C484.291 141.047 487.194 140.886 489.973 140.693C492.835 140.5 495.697 140.21 498.558 139.824C501.502 139.437 504.731 138.954 508.247 138.375C507.756 142.302 507.307 146.455 506.898 150.833C506.489 155.212 506.203 159.654 506.039 164.161C505.958 168.604 506.039 172.982 506.285 177.296C506.53 181.545 507.061 185.602 507.879 189.465C508.778 193.264 509.964 196.708 511.436 199.799C512.989 202.889 514.992 205.433 517.445 207.428C519.244 205.175 520.47 202.342 521.124 198.93C521.778 195.453 522.024 191.718 521.86 187.727C521.778 183.67 521.329 179.485 520.511 175.171C519.775 170.793 518.876 166.544 517.813 162.423C516.832 158.238 515.769 154.343 514.624 150.737C513.561 147.067 512.621 143.912 511.804 141.272C515.238 141.272 518.467 141.24 521.492 141.176C524.517 141.047 527.502 140.886 530.445 140.693C533.47 140.5 536.577 140.21 539.766 139.824C542.955 139.437 546.389 138.954 550.068 138.375C549.414 143.654 548.801 148.548 548.228 153.055C547.738 157.562 547.329 161.908 547.002 166.093C546.756 170.214 546.675 174.27 546.756 178.262C546.838 182.254 547.124 186.407 547.615 190.72C548.106 194.97 548.841 199.477 549.823 204.241C550.804 208.942 552.112 214.092 553.747 219.694C548.841 218.793 543.977 218.084 539.153 217.569C534.329 217.054 529.587 216.797 524.926 216.797C523.863 216.797 522.801 216.797 521.738 216.797C520.756 216.797 519.694 216.861 518.549 216.99C520.92 213.449 522.637 209.682 523.7 205.69C524.763 201.698 525.335 197.578 525.417 193.328C525.58 189.079 525.335 184.765 524.681 180.387C524.027 176.008 523.168 171.694 522.106 167.445C521.043 163.131 519.816 158.946 518.426 154.89C517.118 150.769 515.851 146.874 514.624 143.204H513.888C514.624 145.715 515.483 148.677 516.464 152.089C517.527 155.501 518.549 159.171 519.53 163.099C520.511 166.962 521.37 170.986 522.106 175.171C522.841 179.292 523.291 183.348 523.455 187.34C523.618 191.268 523.414 195.034 522.841 198.64C522.269 202.181 521.124 205.304 519.407 208.008C517.69 210.712 515.319 212.901 512.294 214.575C509.351 216.185 505.549 217.054 500.889 217.183C495.329 217.376 490.873 216.539 487.521 214.672C484.25 212.74 481.716 210.133 479.917 206.849C478.118 203.501 476.933 199.638 476.36 195.26C475.87 190.817 475.624 186.181 475.624 181.352Z" fill="#A30009"/>
<path d="M557.835 212.064C558.653 210.262 559.062 208.233 559.062 205.98C559.062 203.662 558.857 201.312 558.449 198.93C558.122 196.483 557.713 194.101 557.222 191.783C556.732 189.465 556.405 187.372 556.241 185.505C557.958 186.278 560.411 187.34 563.6 188.692C566.788 190.044 570.141 191.396 573.656 192.749C577.172 194.036 580.606 195.163 583.958 196.129C587.31 197.095 589.968 197.578 591.93 197.578C592.993 197.578 593.606 197.384 593.769 196.998C593.933 196.612 593.729 196.097 593.156 195.453C592.584 194.745 591.725 193.972 590.581 193.135C589.518 192.233 588.251 191.268 586.779 190.238C584.244 188.499 581.383 186.535 578.194 184.346C575.005 182.093 571.98 179.71 569.118 177.199C566.339 174.624 563.967 171.92 562.005 169.087C560.125 166.254 559.185 163.356 559.185 160.395C559.185 157.884 559.798 155.469 561.024 153.151C562.251 150.833 564.172 148.805 566.788 147.067C569.486 145.264 572.839 143.848 576.845 142.817C580.933 141.723 585.798 141.176 591.439 141.176C597.653 141.176 603.867 141.401 610.081 141.852C616.295 142.238 622.263 142.431 627.986 142.431C632.647 142.431 637.021 142.174 641.109 141.659C645.279 141.079 648.999 140.017 652.269 138.471C655.622 136.926 658.442 134.769 660.732 132.001C663.103 129.168 664.861 125.498 666.005 120.991V121.087C665.433 124.757 664.983 128.363 664.656 131.904C664.411 135.445 664.207 138.858 664.043 142.141C666.169 142.013 668.131 141.884 669.93 141.755C671.81 141.626 673.568 141.433 675.203 141.176C673.323 145.811 672.137 150.254 671.647 154.503C671.238 158.753 671.238 162.906 671.647 166.962C670.911 166.576 669.848 166.254 668.458 165.996C667.068 165.674 665.678 165.417 664.288 165.224C664.37 166.511 664.452 167.638 664.534 168.604C664.615 169.57 664.697 170.407 664.779 171.115C664.861 171.501 664.902 171.888 664.902 172.274C664.902 172.596 664.942 172.918 665.024 173.24C665.351 177.36 665.31 180.805 664.902 183.574C664.493 186.342 663.471 188.564 661.836 190.238C660.282 191.847 657.993 192.974 654.968 193.618C651.942 194.262 648.018 194.487 643.194 194.294V194.873C645.483 195.002 647.568 195.099 649.449 195.163C651.329 195.163 653.128 195.163 654.845 195.163C657.87 195.163 660.65 195.002 663.185 194.68C665.719 194.358 668.172 193.811 670.543 193.038C672.996 192.266 675.49 191.203 678.024 189.851C680.559 188.499 683.38 186.761 686.486 184.636C686.159 186.31 685.873 188.242 685.628 190.431C685.383 192.62 685.342 194.938 685.505 197.384C685.669 199.767 686.037 202.181 686.609 204.628C687.263 207.01 688.285 209.264 689.675 211.388C687.141 212.612 684.647 213.61 682.194 214.382C679.823 215.155 677.37 215.766 674.836 216.217C672.301 216.603 669.603 216.861 666.741 216.99C663.88 217.119 660.691 217.183 657.175 217.183H655.581C650.185 217.183 645.729 216.668 642.213 215.638C638.697 214.608 635.917 213.255 633.873 211.581C631.911 209.907 630.521 208.008 629.703 205.883C628.886 203.694 628.395 201.505 628.232 199.316C628.15 197.062 628.313 194.873 628.722 192.749C629.131 190.624 629.54 188.724 629.949 187.05C630.685 184.024 631.42 181.063 632.156 178.165C632.892 175.268 634.078 172.725 635.713 170.536C637.348 168.282 639.637 166.544 642.581 165.32C645.524 164.033 649.53 163.517 654.6 163.775V163.485C652.392 163.356 649.163 163.002 644.911 162.423C640.741 161.843 636.122 161.264 631.052 160.684C626.065 160.041 620.996 159.461 615.845 158.946C610.776 158.431 606.238 158.173 602.232 158.173C598.798 158.173 596.018 158.431 593.892 158.946C591.766 159.461 590.703 160.363 590.703 161.65C590.703 163.131 591.48 164.709 593.034 166.383C594.587 167.992 596.549 169.731 598.92 171.598C601.291 173.401 603.908 175.3 606.769 177.296C609.631 179.228 612.329 181.288 614.864 183.477C617.398 185.602 619.606 187.823 621.486 190.141C623.367 192.394 624.552 194.745 625.043 197.191C625.615 199.895 625.207 202.471 623.817 204.917C622.508 207.3 620.301 209.424 617.194 211.292C614.087 213.094 610.122 214.543 605.298 215.638C600.556 216.668 595.078 217.183 588.864 217.183C586.574 217.183 584.122 217.086 581.505 216.893C578.889 216.636 576.232 216.314 573.534 215.927C570.835 215.477 568.137 214.929 565.439 214.286C562.823 213.642 560.288 212.901 557.835 212.064Z" fill="#A30009"/>
<path d="M731.177 217.183C723.9 217.183 717.768 216.153 712.781 214.092C707.875 211.968 703.869 209.167 700.762 205.69C697.737 202.149 695.57 198.093 694.262 193.521C692.954 188.885 692.299 184.089 692.299 179.131C692.299 174.109 692.913 169.312 694.139 164.741C695.366 160.169 697.491 156.145 700.516 152.668C703.542 149.127 707.63 146.326 712.781 144.266C717.932 142.206 724.432 141.176 732.281 141.176C740.702 141.176 748.306 141.24 755.092 141.369C761.878 141.433 768.051 141.433 773.611 141.369C779.171 141.24 784.24 140.982 788.818 140.596C793.397 140.21 797.73 139.534 801.818 138.568C799.447 141.98 797.73 145.747 796.668 149.868C795.605 153.924 795.032 158.173 794.951 162.616C794.869 167.059 795.155 171.63 795.809 176.33C796.463 180.966 797.322 185.57 798.384 190.141C799.529 194.648 800.756 199.058 802.064 203.372C803.454 207.622 804.762 211.581 805.988 215.251H806.724C805.988 212.74 805.089 209.779 804.026 206.366C803.045 202.954 802.064 199.284 801.083 195.356C800.102 191.429 799.243 187.405 798.507 183.284C797.771 179.099 797.322 175.042 797.158 171.115C796.995 167.123 797.199 163.356 797.771 159.815C798.344 156.21 799.488 153.055 801.205 150.351C802.922 147.646 805.252 145.489 808.196 143.88C811.221 142.206 815.023 141.304 819.602 141.176C824.998 140.982 829.208 141.787 832.234 143.59C835.259 145.393 837.589 147.936 839.224 151.22C840.859 154.439 842.045 158.27 842.781 162.713C843.598 167.091 844.416 171.823 845.234 176.91C846.296 183.541 847.686 190.044 849.403 196.419C851.202 202.728 853.083 209.006 855.045 215.251H855.781C855.045 212.74 854.146 209.779 853.083 206.366C852.102 202.954 851.12 199.284 850.139 195.356C849.158 191.429 848.3 187.405 847.564 183.284C846.828 179.099 846.378 175.042 846.215 171.115C846.051 167.123 846.256 163.356 846.828 159.815C847.482 156.21 848.668 153.055 850.385 150.351C852.102 147.646 854.432 145.489 857.375 143.88C860.4 142.206 864.202 141.304 868.781 141.176C874.341 140.982 878.756 141.852 882.026 143.783C885.378 145.715 887.954 148.355 889.753 151.703C891.551 154.986 892.696 158.85 893.186 163.292C893.759 167.67 894.045 172.21 894.045 176.91C894.045 183.67 894.413 190.334 895.149 196.901C895.885 203.469 897.029 210.229 898.583 217.183C894.822 217.183 891.429 217.215 888.403 217.28C885.378 217.344 882.435 217.473 879.573 217.666C876.793 217.923 873.932 218.213 870.988 218.535C868.127 218.921 864.938 219.404 861.422 219.984C861.913 216.056 862.362 211.903 862.771 207.525C863.18 203.147 863.425 198.736 863.507 194.294C863.589 189.851 863.507 185.505 863.262 181.256C863.017 176.942 862.444 172.886 861.545 169.087C860.727 165.288 859.542 161.843 857.988 158.753C856.517 155.662 854.595 153.119 852.224 151.123C850.425 153.441 849.199 156.306 848.545 159.719C847.891 163.067 847.605 166.737 847.686 170.729C847.85 174.721 848.3 178.873 849.035 183.187C849.771 187.501 850.63 191.718 851.611 195.839C852.674 199.96 853.737 203.887 854.8 207.622C855.944 211.292 856.966 214.479 857.866 217.183C851.079 217.183 843.966 217.28 836.526 217.473C829.168 217.73 821.073 218.567 812.243 219.984C812.734 216.056 813.183 211.903 813.592 207.525C814.001 203.147 814.246 198.736 814.328 194.294C814.41 189.851 814.328 185.505 814.083 181.256C813.837 176.942 813.265 172.886 812.366 169.087C811.548 165.288 810.362 161.843 808.809 158.753C807.337 155.662 805.416 153.119 803.045 151.123C801.246 153.441 800.02 156.274 799.366 159.622C798.712 162.97 798.425 166.64 798.507 170.632C798.671 174.56 799.12 178.68 799.856 182.994C800.592 187.244 801.451 191.429 802.432 195.549C803.495 199.67 804.557 203.598 805.62 207.332C806.765 211.066 807.787 214.35 808.686 217.183C805.334 217.183 802.146 217.215 799.12 217.28C796.177 217.344 793.193 217.473 790.167 217.666C787.224 217.923 784.158 218.213 780.969 218.535C777.781 218.921 774.265 219.404 770.422 219.984C770.913 215.863 771.362 212 771.771 208.394C772.18 204.789 772.507 201.344 772.752 198.06C773.079 194.712 773.325 191.525 773.488 188.499C773.652 185.409 773.734 182.318 773.734 179.228C773.734 177.296 773.652 175.075 773.488 172.564C773.325 170.053 772.957 167.477 772.384 164.837C771.812 162.198 770.995 159.622 769.932 157.111C768.951 154.536 767.601 152.25 765.884 150.254C764.249 148.258 762.205 146.648 759.752 145.425C757.381 144.202 754.52 143.59 751.167 143.59C747.734 143.59 744.586 144.234 741.724 145.522C738.862 146.809 736.369 148.87 734.243 151.703C732.199 154.536 730.564 158.206 729.337 162.713C728.193 167.155 727.62 172.564 727.62 178.938C727.62 187.244 729.133 195.292 732.158 203.082C733.384 199.734 734.243 196.225 734.733 192.555C735.224 188.821 735.428 185.054 735.347 181.256C735.265 177.457 734.938 173.658 734.366 169.859C733.793 165.996 733.057 162.23 732.158 158.56C733.711 154.697 736.164 151.638 739.517 149.385C742.869 147.067 746.425 145.908 750.186 145.908C752.639 145.908 755.051 146.52 757.422 147.743C759.793 148.902 761.878 150.801 763.677 153.441C765.557 156.017 767.07 159.429 768.215 163.678C769.359 167.928 769.932 173.079 769.932 179.131C769.932 184.282 769.4 189.175 768.337 193.811C767.274 198.382 765.271 202.406 762.328 205.883C759.466 209.36 755.501 212.129 750.432 214.189C745.444 216.185 739.026 217.183 731.177 217.183Z" fill="#A30009"/>
<path d="M902.645 212.064C903.463 210.326 903.872 208.298 903.872 205.98C903.872 203.662 903.667 201.312 903.258 198.93C902.931 196.483 902.523 194.101 902.032 191.783C901.541 189.465 901.214 187.372 901.051 185.505C902.686 186.278 905.098 187.34 908.287 188.692C911.475 190.044 914.828 191.396 918.343 192.749C921.941 194.101 925.375 195.26 928.645 196.225C931.997 197.191 934.655 197.674 936.617 197.674C937.762 197.674 938.416 197.481 938.579 197.095C938.743 196.708 938.538 196.193 937.966 195.549C937.475 194.841 936.658 194.036 935.513 193.135C934.368 192.233 933.06 191.268 931.589 190.238C929.054 188.499 926.192 186.535 923.004 184.346C919.815 182.093 916.79 179.71 913.928 177.199C911.148 174.624 908.777 171.92 906.815 169.087C904.934 166.254 903.994 163.356 903.994 160.395C903.994 157.884 904.607 155.469 905.834 153.151C907.06 150.833 908.982 148.805 911.598 147.067C914.296 145.329 917.689 143.944 921.777 142.914C925.865 141.819 930.73 141.272 936.372 141.272C943.975 141.272 950.557 142.431 956.117 144.749C961.677 147.067 966.296 149.964 969.975 153.441C967.523 154.6 965.111 156.017 962.74 157.691C960.45 159.3 958.284 161.039 956.24 162.906C954.277 164.709 952.519 166.608 950.966 168.604C949.494 170.6 948.35 172.499 947.532 174.302C949.821 175.976 952.192 177.715 954.645 179.517C957.18 181.32 959.51 183.187 961.636 185.119C963.762 187.05 965.56 189.046 967.032 191.107C968.585 193.103 969.567 195.163 969.975 197.288C970.63 200.443 970.098 203.243 968.381 205.69C966.746 208.137 964.252 210.229 960.9 211.968C957.548 213.642 953.541 214.929 948.881 215.831C944.221 216.732 939.233 217.183 933.919 217.183C928.768 217.183 923.535 216.764 918.221 215.927C912.988 215.09 907.796 213.803 902.645 212.064ZM940.051 158.946C937.68 158.817 936.208 159.526 935.636 161.071C935.063 162.552 935.84 164.419 937.966 166.672C939.111 167.767 940.419 168.926 941.891 170.149C943.444 171.373 945.12 172.628 946.919 173.916C946.919 172.499 946.878 170.954 946.796 169.28C946.796 167.606 946.592 166.029 946.183 164.548C945.774 163.002 945.079 161.715 944.098 160.684C943.199 159.654 941.85 159.075 940.051 158.946Z" fill="#A30009"/>
</svg>
