<svg width="992" height="343" fill="none" xmlns="http://www.w3.org/2000/svg"><g opacity=".53" filter="url(#filter0_f_881_869)"><path fill-rule="evenodd" clip-rule="evenodd" d="M249.593 5.547c-1.402.192-5.007.75-8.011 1.243-13.158 2.154-17.847 2.087-26.261-.378l-.773-.227-.821 1.153c-.452.635-1.21 2.303-1.685 3.707l-.864 2.553v3.003c0 4.852 1.368 8.13 4.404 10.55.982.784 1.786 1.63 1.786 1.882 0 .25-.651 2.723-1.448 5.493-.796 2.77-1.644 6.208-1.885 7.638l-.437 2.602.82 2.761c.492 1.657.718 3.093.567 3.589-.34 1.113-1.248 3.126-4.218 9.343l-2.502 5.238v3.415l.819.746c1.049.955 2.164 1.526 4.048 2.073l1.505.437.032 4.734.803 1.3c.442.715.804 1.854.806 2.532.001.677.404 1.886.895 2.688l.894 1.456-.215 2.401c-.132 1.487-.046 2.912.229 3.741.991 3.005 3.76 4.943 7.469 5.23l2.195.17 7.437-1.898 3.03 1.212 1.062 1.672c.585.92 1.311 2.523 1.614 3.561l.55 1.889-.732 1.435c-1.247 2.444-5.922 6.095-12.437 9.714-3.987 2.215-7.507 3.656-15.024 6.151-3.369 1.118-7.235 2.616-8.59 3.328-9.068 4.765-15.03 14.727-16.773 28.028-.209 1.602-.536 6.6-.724 11.106-.209 5.01-.562 9.085-.907 10.491-.31 1.264-1.714 5.251-3.121 8.859-1.406 3.609-3.038 8.276-3.627 10.372-.945 3.367-2.406 11.262-3.107 16.794-.133 1.052-.378 1.912-.544 1.912-.476 0-4.877-8.536-6.477-12.563-3.084-7.759-4.942-15.749-4.412-18.976 1.093-6.65-.446-12.226-5.021-18.204a235.84 235.84 0 01-2.619-3.468c-.304-.425-.926-3.982-1.536-8.787-1.148-9.044-2.18-13.224-4.374-17.708l-1.497-3.059-2.33-2.296c-2.554-2.516-6.102-4.487-9.748-5.414-1.185-.301-4.544-.881-7.464-1.288-2.921-.407-6.532-1.073-8.025-1.48-5.574-1.518-10.222-4.825-12.077-8.59l-.865-1.76.041-8.01.821-2.085c.952-2.414 2.201-3.559 3.884-3.559.654 0 3.106.328 5.449.728 8.406 1.437 11.592.697 13.334-3.095l.668-1.456.017-5.953.963-1.145c1.196-1.422 1.697-3.403 1.737-6.875l.03-2.686 2.003-.88c2.473-1.084 3.259-2.04 3.269-3.98l.008-1.492-2.048-3.241c-3.881-6.14-4.14-6.598-4.366-7.731l-.227-1.137 1.114-1.738c3.738-5.831 5.326-13.64 3.893-19.143-1.39-5.335-5.378-10.298-10.245-12.749-1.799-.906-3.056-1.866-4.147-3.17-1.79-2.138-5.788-4.957-9.591-6.763-3.418-1.624-8.772-2.957-13.867-3.455l-4.102-.4-3.787.389c-17.27 1.775-30.607 11.534-37.145 27.18-2.015 4.821-3.7 10.995-5.094 18.652-.666 3.657-1.358 6.6-1.538 6.54-.18-.06-1.34-2.397-2.575-5.193-10.483-23.721-21.798-39.022-33.353-45.103-4.111-2.163-8.68-3.379-9.248-2.46-.103.167 1.24 1.095 2.983 2.063 9.986 5.54 17.632 13.781 26.436 28.492 3.092 5.166 7.082 13.411 10.354 21.392 3.075 7.502 5.887 15.215 5.887 16.148 0 .412-1.126 1.613-2.822 3.01-8.109 6.68-15.315 15.497-19.487 23.841-1.98 3.962-3.789 9.749-4.653 14.896l-.796 4.733.407 10.924.895 3.823c1.163 4.965 2.412 8.041 6.953 17.114 4.244 8.479 4.96 10.447 6.035 16.567 1.72 9.807 4.469 18.316 8.525 26.397 4.1 8.168 8.217 13.805 14.592 19.981 8.064 7.812 14.782 12.196 32.55 21.243 17.002 8.657 23.897 13.254 32.11 21.407l4.952 4.915 4.552 6.918c4.402 6.688 6.631 10.356 12.393 20.391 14.385 25.051 25.168 43.072 26.676 44.58l.886.885.868-.396c.569-.259 2.598-3.258 5.894-8.713 5.543-9.174 31.634-52.539 38.524-64.029 2.401-4.005 4.601-7.553 4.887-7.884.85-.982 7.915-3.306 19.771-6.505 28.755-7.757 41.566-12.046 52.939-17.725 21.62-10.793 36.331-27.076 42.865-47.446 1.637-5.104 3.108-11.017 4.001-16.086l.79-4.487.04-5.826c.101-14.606-5.122-27.165-14.401-34.63-1.49-1.199-5.239-3.717-8.333-5.597-7.757-4.716-18.771-11.959-22.91-15.068-3.95-2.968-8.249-7.166-9.261-9.046l-.691-1.284 2.477-6.148c7.837-19.45 17.955-39.886 26.116-52.749 7.104-11.196 15.595-19.805 23.983-24.315 1.58-.85 2.874-1.667 2.877-1.817.009-.468-2.319-.3-4.389.313-9.123 2.709-18.417 11.633-27.978 26.866-5.055 8.053-14.078 25.572-18.774 36.45-5.732 13.28-6.917 15.845-7.273 15.732-.52-.165-1.55-3.313-2.009-6.143-.9-5.547-.325-9.566 2.584-18.04 4.054-11.81 5.05-16.519 5.033-23.773-.013-5.037-.59-8.924-1.802-12.127-1.13-2.985-4.059-7.205-6.284-9.056-1.042-.866-2.386-2.148-2.987-2.849-3.853-4.495-7.618-6.709-14.379-8.454l-4.21-1.087-5.28-.122c-2.904-.068-6.426.034-7.828.225zm0 3.769c-1.602.27-5.863 1.008-9.467 1.638-3.605.63-8.603 1.241-11.106 1.358l-4.552.212-3.459-.626c-1.902-.344-3.698-.65-3.989-.68-.84-.088-1.578 1.89-1.759 4.711-.281 4.375 1.066 7.178 4.603 9.58 1.181.801 2.226 1.67 2.323 1.93.097.26-.438 2.357-1.189 4.66-.751 2.303-1.744 5.866-2.207 7.919l-.841 3.73.528 2.278c.291 1.251.515 3.341.498 4.643l-.031 2.367-2.214 4.733a513.158 513.158 0 01-3.156 6.643c-.517 1.05-.94 2.144-.94 2.429 0 .312.909.82 2.293 1.281 1.261.42 2.651 1.014 3.089 1.32 1.049.735 1.483 2.522 1.078 4.434l-.327 1.543.759 1.066c.418.587.868 1.855.999 2.818.133.964.563 2.298.957 2.965l.716 1.213-.472 5.967.716 1.163c.488.793 1.196 1.307 2.223 1.615l1.507.452 3.335-.759c8.043-1.829 20.405-7.56 23.946-11.101 2.087-2.088 3.689-5.23 4.997-9.802 1.09-3.811 1.862-4.464 2.318-1.96.553 3.03-.719 9.168-2.444 11.79-2.168 3.297-4.084 4.723-11.554 8.596-3.355 1.74-6.099 3.228-6.099 3.307 0 .078.657 1.006 1.459 2.062 2.703 3.554 3.987 8.332 3.996 14.878l.007 4.22-.724 2.831c-.852 3.33-2.109 5.782-3.057 5.964l-.677.131.218-1.401c.37-2.388.719-12.142.434-12.142-.148 0-1.033.674-1.965 1.498-2.25 1.99-9.051 6.459-12.337 8.107-3.621 1.816-7.39 3.286-13.389 5.221-5.74 1.851-8.203 2.994-11.106 5.152-5.783 4.298-9.802 12.089-11.267 21.841-.221 1.472-.64 6.797-.93 11.834-.29 5.037-.766 10.141-1.058 11.342-.292 1.202-1.46 4.479-2.595 7.283-1.136 2.804-2.613 6.702-3.284 8.663-2.551 7.464-4.621 18.897-5.281 29.159-.194 3.029-.485 6.082-.645 6.783l-.291 1.274-.706-.122c-1.061-.182-1.127-.315-2.147-4.356-1.208-4.786-2.402-7.768-5.963-14.896-3.528-7.063-5.279-11.456-6.523-16.367-.524-2.071-1.071-3.766-1.216-3.766-.323 0-3.264 4.981-4.408 7.464l-.839 1.821.087 12.016.754 3.483c1.291 5.967 3.166 10.116 9.044 20.016 1.372 2.31 2.892 5.055 3.377 6.099.484 1.044 1.076 1.898 1.314 1.898.237 0 1.741-1.597 3.341-3.55 1.6-1.952 5.105-5.912 7.789-8.799 9.374-10.083 11.949-13.385 14.648-18.783 3.985-7.97 4.459-12.605 3.15-30.768-.664-9.214.111-16.449 2.48-23.174 1.906-5.407 5.319-11.053 6.681-11.053.47 0 .455.063-1.483 5.98-2.135 6.52-3.23 11.643-3.688 17.252-.33 4.04-.267 5.527.808 19.097l.455 5.735-.419 4.096c-.774 7.564-2.761 13.008-7.219 19.777-2.496 3.79-4.198 5.862-10.069 12.252-6.173 6.72-8.789 9.719-12.082 13.853l-2.829 3.552.433 2.571c.238 1.413.32 2.682.18 2.819-.139.137-.77-.366-1.402-1.116-.632-.752-1.262-1.366-1.4-1.366-.371 0-4.178 6.261-5.976 9.828-3.221 6.391-5.523 13.59-6.362 19.897-.559 4.194-.233 14.713.566 18.284 1.245 5.569 4.722 14.378 6.56 16.622l.597.729-.23-1.639c-.6-4.274-.857-12.15-.535-16.385 1.099-14.478 6.799-28.424 16.741-40.964 5.017-6.328 14.088-14.693 22.207-20.479 5.911-4.213 19.39-11.59 30.222-16.542 3.504-1.602 6.656-3.167 7.003-3.478.701-.629 4.318-9.643 8.221-20.491 3.09-8.588 5.722-16.297 16.158-47.336 6.862-20.406 13.928-40.372 18.075-51.073l1.096-2.828-1.375-3.18c-1.993-4.61-2.609-7.33-2.831-12.492l-.196-4.578.612-3.069c.337-1.687 1.745-6.427 3.128-10.532 1.384-4.106 2.865-8.776 3.292-10.378l.777-2.913.37-11.652-.772-3.235c-.999-4.194-2.555-7.057-5.229-9.624a257.373 257.373 0 01-4.943-4.928l-2.787-2.858-3.277-1.581c-1.803-.87-4.588-1.932-6.19-2.36l-2.913-.777-4.916-.14c-3.102-.088-5.99.043-7.828.354zM91.087 12.264c-8.092 1.425-15.988 5.49-21.08 10.851-8.29 8.726-11.723 16.997-14.516 34.975l-1.308 8.418.12 2.986c.067 1.642.3 3.164.518 3.382l.396.396 3.245-2.227c7.64-5.244 16.086-9.746 30.008-15.994 22.242-9.982 29.027-14.909 33.894-24.607l1.47-2.93.416-5.502-1.332-1.474c-2.92-3.232-9.251-6.386-15.566-7.755-4.556-.987-12.218-1.232-16.265-.52zm37.8 13.794c0 .082.8 1.926 1.777 4.096 2.173 4.826 3.227 8.909 3.629 14.058.168 2.153.409 4.018.535 4.144.602.603 2.038-5.202 2.057-8.32.029-4.664-1.966-9.536-5.107-12.474-1.475-1.38-2.891-2.116-2.891-1.504zm-2.04 7.406c-3.162 10.235-7.659 15.74-22.72 27.81-10.915 8.748-14.858 14.433-17.664 25.471-1.186 4.664-3.235 10.48-4.726 13.416-2.118 4.171-4.554 7.161-9.034 11.087-1.341 1.176-2.44 2.35-2.44 2.609 0 .96 4.583 6.662 8.33 10.364 4.88 4.822 10.114 8.742 24.077 18.034 6.108 4.064 12.417 8.448 14.019 9.742 11.678 9.428 17.434 21.653 15.876 33.723-.607 4.712-1.366 7.277-4.451 15.057-4.199 10.585-5.112 14.65-5.098 22.693.013 8.118 1.366 15.444 4.588 24.852 2.032 5.933 3.679 9.45 5.654 12.08 1.908 2.54 8.312 12.839 11.094 17.842 5.983 10.758 8.644 15.293 8.974 15.293.235 0 .279-1.199.123-3.368-.269-3.742.304-11.731 1.143-15.931 1.525-7.629 5.874-17.909 10.677-25.235 1.418-2.165 2.579-4.117 2.579-4.34 0-.524-4.189-8.482-6.155-11.695-2.13-3.48-5.667-10.241-6.58-12.577-2.361-6.045-3.499-14.099-2.95-20.881l.316-3.907 1.081-2.283c.595-1.256 2.139-4.017 3.432-6.137 4.049-6.637 4.979-11.459 3.224-16.719-1.547-4.638-4.57-8.398-11.846-14.739-6.199-5.4-9.85-9.729-12.292-14.572-1.133-2.246-1.773-4.482-1.357-4.739.171-.106 1.58 1.409 3.13 3.365 1.551 1.957 3.814 4.639 5.029 5.96 2.501 2.716 8.065 7.612 8.652 7.612.886 0-.798-12.7-2.24-16.89-1.086-3.155-2.687-5.717-4.858-7.77-3.379-3.196-5.45-3.913-15.405-5.339-3.453-.495-7.473-1.315-9.085-1.854-9.528-3.186-14.735-9.415-14.719-17.609.01-5.462 2.083-10.914 4.844-12.741l1.425-.943 2.258-.144c1.409-.09 3.672.145 6.017.623 2.066.421 4.725.766 5.908.766h2.151l1.787-1.787v-6.85l1.802-2.655-.218-1.086a2.644 2.644 0 01.374-1.987c.328-.501.591-1.645.591-2.572 0-2.395.743-3.546 3.075-4.764 1.112-.581 2.021-1.302 2.021-1.602-.001-.3-1.065-2.185-2.365-4.188-1.301-2.003-2.709-4.542-3.13-5.644L131 56.313l-.605-15.658-.747-2.548c-1.347-4.59-2.319-6.203-2.801-4.643zM115.299 44.57c-5.194 4.139-13.564 8.748-25.009 13.772-14.747 6.474-33.863 17.533-33.863 19.59 0 1.12 7.464 22.908 9.37 27.356 1.015 2.367 2.033 4.233 2.342 4.293.756.147 6.07-5.165 7.98-7.977 2.347-3.457 4.09-7.753 6.188-15.25 3.93-14.051 7.025-18.414 20.608-29.05 3.639-2.85 7.935-6.422 9.548-7.938 2.847-2.678 5.762-6.202 5.417-6.547-.094-.094-1.255.694-2.581 1.75zM48.133 84.167c-8.59 7.623-15.258 17.147-18.355 26.217-1.646 4.822-2.172 7.774-2.384 13.391-.244 6.426.274 10.572 1.988 15.921 1.2 3.746 5.13 12.252 5.872 12.711.185.114.443-1.207.58-2.975.98-12.602 4.94-22.536 10.996-27.578 2.555-2.128 4.453-3.27 10.143-6.105 2.804-1.396 5.533-2.847 6.064-3.224l.966-.684-2.385-5.881c-1.312-3.234-3.812-10.157-5.555-15.384-2.015-6.042-3.36-9.54-3.691-9.606-.287-.056-2.194 1.382-4.24 3.197zm237.548 18.485c-4 10.423-8.878 24.298-16.8 47.786-12.876 38.171-12.293 36.483-17.647 51.158-1.169 3.205-2.467 6.693-2.884 7.751-.418 1.059-.76 2.001-.76 2.094 0 .458 1.12-.018 4.85-2.059 10.549-5.771 16.747-10.229 23.205-16.688 7.712-7.715 12.202-14.422 16.485-24.628 1.239-2.954 2.482-5.448 2.762-5.541l.508-.169-.254 2.507c-.325 3.21-2.66 10.215-4.759 14.274-7.772 15.033-19.375 25.465-40.44 36.356l-5.186 2.682-.468 1.178c-1.817 4.575-11.048 22.728-14.451 28.417-.696 1.163-1.201 2.179-1.122 2.258.078.078 1.939-.41 4.136-1.084a342.695 342.695 0 018.908-2.562l8.921-2.424c22.225-6.049 33.406-9.87 44.059-15.058 12.632-6.152 21.962-13.286 29.472-22.535 10.415-12.824 16.956-31.641 16.951-48.755-.004-14.21-4.685-24.799-14.197-32.112-1.102-.847-5.527-3.72-9.833-6.382-15.154-9.371-22.466-14.528-26.763-18.876-1.201-1.215-2.348-2.213-2.549-2.218-.2-.004-1.165 2.08-2.144 4.63zM59.147 119.058c-6.814 3.472-9.217 5.072-11.487 7.644-2.941 3.332-5.46 9.545-6.745 16.635l-.66 3.641-.003 7.465c-.002 8.108.345 11.58 1.969 19.662 3.61 17.97 13.309 34.399 26.247 44.462 7.147 5.559 13.775 9.544 26.626 16.008 8.351 4.2 12.894 6.641 16.954 9.107 1.395.847 2.278 1.207 2.208.899-.063-.282-2.515-3.351-5.447-6.82-21.325-25.231-27.8-34.068-33.839-46.178-4.328-8.681-7.046-16.733-8.144-24.122-.873-5.883-.706-11.074.304-9.439.103.166.614 1.927 1.137 3.914 4.25 16.159 10.636 30.249 19.14 42.223 3.317 4.671 14.364 18.544 20.576 25.839 2.899 3.404 7.846 9.331 10.992 13.171 3.146 3.84 5.769 6.932 5.83 6.871.061-.06-.707-2.546-1.705-5.524-.998-2.979-2.271-7.381-2.829-9.785l-1.015-4.369-.018-15.293 1.022-3.92c1.007-3.864 2.419-7.879 5.535-15.743.873-2.203 1.876-5.07 2.229-6.372l.642-2.366.039-9.832-1.041-3.095c-3.555-10.562-9.485-16.719-26.996-28.03-17.983-11.615-25.71-18.023-32.066-26.592-1.335-1.8-2.614-3.261-2.84-3.247-.228.014-3.205 1.448-6.615 3.186zm173.514 104.69a220.777 220.777 0 00-28.331 15.7l-4.622 3.027-5.48 5.446c-9.459 9.401-13.668 14.935-18.209 23.944-6.932 13.751-8.92 27.14-6.294 42.389.534 3.104.892 2.26 1.142-2.693.252-4.998 1.374-10.575 3.037-15.096 6.917-18.809 21.365-32.823 43.256-41.954 2.418-1.009 4.592-2.021 4.831-2.25 1.401-1.338 16.496-29.203 16.496-30.452 0-.645-.802-.379-5.826 1.939zm-20.252 37.528c-12.615 6.335-20.882 13.271-27.737 23.273-5.572 8.13-8.86 17.376-9.929 27.922-.553 5.463.042 16.389.893 16.382.222-.003 2.514-3.543 5.092-7.869 2.578-4.325 6.52-10.837 8.76-14.47 8.991-14.586 28.703-47.595 28.527-47.771-.103-.104-2.626 1.036-5.606 2.533z" fill="#FF4D00"/></g><path fill-rule="evenodd" clip-rule="evenodd" d="M249.593 5.547c-1.402.192-5.007.75-8.011 1.243-13.158 2.154-17.847 2.087-26.261-.378l-.773-.227-.821 1.153c-.452.635-1.21 2.303-1.685 3.707l-.864 2.553v3.003c0 4.852 1.368 8.13 4.404 10.55.982.784 1.786 1.63 1.786 1.882 0 .25-.651 2.723-1.448 5.493-.796 2.77-1.644 6.208-1.885 7.638l-.437 2.602.82 2.761c.492 1.657.718 3.093.567 3.589-.34 1.113-1.248 3.126-4.218 9.343l-2.502 5.238v3.415l.819.746c1.049.955 2.164 1.526 4.048 2.073l1.505.437.032 4.734.803 1.3c.442.715.804 1.854.806 2.532.001.677.404 1.886.895 2.688l.894 1.456-.215 2.401c-.132 1.487-.046 2.912.229 3.741.991 3.005 3.76 4.943 7.469 5.23l2.195.17 7.437-1.898 3.03 1.212 1.062 1.672c.585.92 1.311 2.523 1.614 3.561l.55 1.889-.732 1.435c-1.247 2.444-5.922 6.095-12.437 9.714-3.987 2.215-7.507 3.656-15.024 6.151-3.369 1.118-7.235 2.616-8.59 3.328-9.068 4.765-15.03 14.727-16.773 28.028-.209 1.602-.536 6.6-.724 11.106-.209 5.01-.562 9.085-.907 10.491-.31 1.264-1.714 5.251-3.121 8.859-1.406 3.609-3.038 8.276-3.627 10.372-.945 3.367-2.406 11.262-3.107 16.794-.133 1.052-.378 1.912-.544 1.912-.476 0-4.877-8.536-6.477-12.563-3.084-7.759-4.942-15.749-4.412-18.976 1.093-6.65-.446-12.226-5.021-18.204a235.84 235.84 0 01-2.619-3.468c-.304-.425-.926-3.982-1.536-8.787-1.148-9.044-2.18-13.224-4.374-17.708l-1.497-3.059-2.33-2.296c-2.554-2.516-6.102-4.487-9.748-5.414-1.185-.301-4.544-.881-7.464-1.288-2.921-.407-6.532-1.073-8.025-1.48-5.574-1.518-10.222-4.825-12.077-8.59l-.865-1.76.041-8.01.821-2.085c.952-2.414 2.201-3.559 3.884-3.559.654 0 3.106.328 5.449.728 8.406 1.437 11.592.697 13.334-3.095l.668-1.456.017-5.953.963-1.145c1.196-1.422 1.697-3.403 1.737-6.875l.03-2.686 2.003-.88c2.473-1.084 3.259-2.04 3.269-3.98l.008-1.492-2.048-3.241c-3.881-6.14-4.14-6.598-4.366-7.731l-.227-1.137 1.114-1.738c3.738-5.831 5.326-13.64 3.893-19.143-1.39-5.335-5.378-10.298-10.245-12.749-1.799-.906-3.056-1.866-4.147-3.17-1.79-2.138-5.788-4.957-9.591-6.763-3.418-1.624-8.772-2.957-13.867-3.455l-4.102-.4-3.787.389c-17.27 1.775-30.607 11.534-37.145 27.18-2.015 4.821-3.7 10.995-5.094 18.652-.666 3.657-1.358 6.6-1.538 6.54-.18-.06-1.34-2.397-2.575-5.193-10.483-23.721-21.798-39.022-33.353-45.103-4.111-2.163-8.68-3.379-9.248-2.46-.103.167 1.24 1.095 2.983 2.063 9.986 5.54 17.632 13.781 26.436 28.492 3.092 5.166 7.082 13.411 10.354 21.392 3.075 7.502 5.887 15.215 5.887 16.148 0 .412-1.126 1.613-2.822 3.01-8.109 6.68-15.315 15.497-19.487 23.841-1.98 3.962-3.789 9.749-4.653 14.896l-.796 4.733.407 10.924.895 3.823c1.163 4.965 2.412 8.041 6.953 17.114 4.244 8.479 4.96 10.447 6.035 16.567 1.72 9.807 4.469 18.316 8.525 26.397 4.1 8.168 8.217 13.805 14.592 19.981 8.064 7.812 14.782 12.196 32.55 21.243 17.002 8.657 23.897 13.254 32.11 21.407l4.952 4.915 4.552 6.918c4.402 6.688 6.631 10.356 12.393 20.391 14.385 25.051 25.168 43.072 26.676 44.58l.886.885.868-.396c.569-.259 2.598-3.258 5.894-8.713 5.543-9.174 31.634-52.539 38.524-64.029 2.401-4.005 4.601-7.553 4.887-7.884.85-.982 7.915-3.306 19.771-6.505 28.755-7.757 41.566-12.046 52.939-17.725 21.62-10.793 36.331-27.076 42.865-47.446 1.637-5.104 3.108-11.017 4.001-16.086l.79-4.487.04-5.826c.101-14.606-5.122-27.165-14.401-34.63-1.49-1.199-5.239-3.717-8.333-5.597-7.757-4.716-18.771-11.959-22.91-15.068-3.95-2.968-8.249-7.166-9.261-9.046l-.691-1.284 2.477-6.148c7.837-19.45 17.955-39.886 26.116-52.749 7.104-11.196 15.595-19.805 23.983-24.315 1.58-.85 2.874-1.667 2.877-1.817.009-.468-2.319-.3-4.389.313-9.123 2.709-18.417 11.633-27.978 26.866-5.055 8.053-14.078 25.572-18.774 36.45-5.732 13.28-6.917 15.845-7.273 15.732-.52-.165-1.55-3.313-2.009-6.143-.9-5.547-.325-9.566 2.584-18.04 4.054-11.81 5.05-16.519 5.033-23.773-.013-5.037-.59-8.924-1.802-12.127-1.13-2.985-4.059-7.205-6.284-9.056-1.042-.866-2.386-2.148-2.987-2.849-3.853-4.495-7.618-6.709-14.379-8.454l-4.21-1.087-5.28-.122c-2.904-.068-6.426.034-7.828.225zm0 3.769c-1.602.27-5.863 1.008-9.467 1.638-3.605.63-8.603 1.241-11.106 1.358l-4.552.212-3.459-.626c-1.902-.344-3.698-.65-3.989-.68-.84-.088-1.578 1.89-1.759 4.711-.281 4.375 1.066 7.178 4.603 9.58 1.181.801 2.226 1.67 2.323 1.93.097.26-.438 2.357-1.189 4.66-.751 2.303-1.744 5.866-2.207 7.919l-.841 3.73.528 2.278c.291 1.251.515 3.341.498 4.643l-.031 2.367-2.214 4.733a513.158 513.158 0 01-3.156 6.643c-.517 1.05-.94 2.144-.94 2.429 0 .312.909.82 2.293 1.281 1.261.42 2.651 1.014 3.089 1.32 1.049.735 1.483 2.522 1.078 4.434l-.327 1.543.759 1.066c.418.587.868 1.855.999 2.818.133.964.563 2.298.957 2.965l.716 1.213-.472 5.967.716 1.163c.488.793 1.196 1.307 2.223 1.615l1.507.452 3.335-.759c8.043-1.829 20.405-7.56 23.946-11.101 2.087-2.088 3.689-5.23 4.997-9.802 1.09-3.811 1.862-4.464 2.318-1.96.553 3.03-.719 9.168-2.444 11.79-2.168 3.297-4.084 4.723-11.554 8.596-3.355 1.74-6.099 3.228-6.099 3.307 0 .078.657 1.006 1.459 2.062 2.703 3.554 3.987 8.332 3.996 14.878l.007 4.22-.724 2.831c-.852 3.33-2.109 5.782-3.057 5.964l-.677.131.218-1.401c.37-2.388.719-12.142.434-12.142-.148 0-1.033.674-1.965 1.498-2.25 1.99-9.051 6.459-12.337 8.107-3.621 1.816-7.39 3.286-13.389 5.221-5.74 1.851-8.203 2.994-11.106 5.152-5.783 4.298-9.802 12.089-11.267 21.841-.221 1.472-.64 6.797-.93 11.834-.29 5.037-.766 10.141-1.058 11.342-.292 1.202-1.46 4.479-2.595 7.283-1.136 2.804-2.613 6.702-3.284 8.663-2.551 7.464-4.621 18.897-5.281 29.159-.194 3.029-.485 6.082-.645 6.783l-.291 1.274-.706-.122c-1.061-.182-1.127-.315-2.147-4.356-1.208-4.786-2.402-7.768-5.963-14.896-3.528-7.063-5.279-11.456-6.523-16.367-.524-2.071-1.071-3.766-1.216-3.766-.323 0-3.264 4.981-4.408 7.464l-.839 1.821.087 12.016.754 3.483c1.291 5.967 3.166 10.116 9.044 20.016 1.372 2.31 2.892 5.055 3.377 6.099.484 1.044 1.076 1.898 1.314 1.898.237 0 1.741-1.597 3.341-3.55 1.6-1.952 5.105-5.912 7.789-8.799 9.374-10.083 11.949-13.385 14.648-18.783 3.985-7.97 4.459-12.605 3.15-30.768-.664-9.214.111-16.449 2.48-23.174 1.906-5.407 5.319-11.053 6.681-11.053.47 0 .455.063-1.483 5.98-2.135 6.52-3.23 11.643-3.688 17.252-.33 4.04-.267 5.527.808 19.097l.455 5.735-.419 4.096c-.774 7.564-2.761 13.008-7.219 19.777-2.496 3.79-4.198 5.862-10.069 12.252-6.173 6.72-8.789 9.719-12.082 13.853l-2.829 3.552.433 2.571c.238 1.413.32 2.682.18 2.819-.139.137-.77-.366-1.402-1.116-.632-.752-1.262-1.366-1.4-1.366-.371 0-4.178 6.261-5.976 9.828-3.221 6.391-5.523 13.59-6.362 19.897-.559 4.194-.233 14.713.566 18.284 1.245 5.569 4.722 14.378 6.56 16.622l.597.729-.23-1.639c-.6-4.274-.857-12.15-.535-16.385 1.099-14.478 6.799-28.424 16.741-40.964 5.017-6.328 14.088-14.693 22.207-20.479 5.911-4.213 19.39-11.59 30.222-16.542 3.504-1.602 6.656-3.167 7.003-3.478.701-.629 4.318-9.643 8.221-20.491 3.09-8.588 5.722-16.297 16.158-47.336 6.862-20.406 13.928-40.372 18.075-51.073l1.096-2.828-1.375-3.18c-1.993-4.61-2.609-7.33-2.831-12.492l-.196-4.578.612-3.069c.337-1.687 1.745-6.427 3.128-10.532 1.384-4.106 2.865-8.776 3.292-10.378l.777-2.913.37-11.652-.772-3.235c-.999-4.194-2.555-7.057-5.229-9.624a257.373 257.373 0 01-4.943-4.928l-2.787-2.858-3.277-1.581c-1.803-.87-4.588-1.932-6.19-2.36l-2.913-.777-4.916-.14c-3.102-.088-5.99.043-7.828.354zM91.087 12.264c-8.092 1.425-15.988 5.49-21.08 10.851-8.29 8.726-11.723 16.997-14.516 34.975l-1.308 8.418.12 2.986c.067 1.642.3 3.164.518 3.382l.396.396 3.245-2.227c7.64-5.244 16.086-9.746 30.008-15.994 22.242-9.982 29.027-14.909 33.894-24.607l1.47-2.93.416-5.502-1.332-1.474c-2.92-3.232-9.251-6.386-15.566-7.755-4.556-.987-12.218-1.232-16.265-.52zm37.8 13.794c0 .082.8 1.926 1.777 4.096 2.173 4.826 3.227 8.909 3.629 14.058.168 2.153.409 4.018.535 4.144.602.603 2.038-5.202 2.057-8.32.029-4.664-1.966-9.536-5.107-12.474-1.475-1.38-2.891-2.116-2.891-1.504zm-2.04 7.406c-3.162 10.235-7.659 15.74-22.72 27.81-10.915 8.748-14.858 14.433-17.664 25.471-1.186 4.664-3.235 10.48-4.726 13.416-2.118 4.171-4.554 7.161-9.034 11.087-1.341 1.176-2.44 2.35-2.44 2.609 0 .96 4.583 6.662 8.33 10.364 4.88 4.822 10.114 8.742 24.077 18.034 6.108 4.064 12.417 8.448 14.019 9.742 11.678 9.428 17.434 21.653 15.876 33.723-.607 4.712-1.366 7.277-4.451 15.057-4.199 10.585-5.112 14.65-5.098 22.693.013 8.118 1.366 15.444 4.588 24.852 2.032 5.933 3.679 9.45 5.654 12.08 1.908 2.54 8.312 12.839 11.094 17.842 5.983 10.758 8.644 15.293 8.974 15.293.235 0 .279-1.199.123-3.368-.269-3.742.304-11.731 1.143-15.931 1.525-7.629 5.874-17.909 10.677-25.235 1.418-2.165 2.579-4.117 2.579-4.34 0-.524-4.189-8.482-6.155-11.695-2.13-3.48-5.667-10.241-6.58-12.577-2.361-6.045-3.499-14.099-2.95-20.881l.316-3.907 1.081-2.283c.595-1.256 2.139-4.017 3.432-6.137 4.049-6.637 4.979-11.459 3.224-16.719-1.547-4.638-4.57-8.398-11.846-14.739-6.199-5.4-9.85-9.729-12.292-14.572-1.133-2.246-1.773-4.482-1.357-4.739.171-.106 1.58 1.409 3.13 3.365 1.551 1.957 3.814 4.639 5.029 5.96 2.501 2.716 8.065 7.612 8.652 7.612.886 0-.798-12.7-2.24-16.89-1.086-3.155-2.687-5.717-4.858-7.77-3.379-3.196-5.45-3.913-15.405-5.339-3.453-.495-7.473-1.315-9.085-1.854-9.528-3.186-14.735-9.415-14.719-17.609.01-5.462 2.083-10.914 4.844-12.741l1.425-.943 2.258-.144c1.409-.09 3.672.145 6.017.623 2.066.421 4.725.766 5.908.766h2.151l1.787-1.787v-6.85l1.802-2.655-.218-1.086a2.644 2.644 0 01.374-1.987c.328-.501.591-1.645.591-2.572 0-2.395.743-3.546 3.075-4.764 1.112-.581 2.021-1.302 2.021-1.602-.001-.3-1.065-2.185-2.365-4.188-1.301-2.003-2.709-4.542-3.13-5.644L131 56.313l-.605-15.658-.747-2.548c-1.347-4.59-2.319-6.203-2.801-4.643zM115.299 44.57c-5.194 4.139-13.564 8.748-25.009 13.772-14.747 6.474-33.863 17.533-33.863 19.59 0 1.12 7.464 22.908 9.37 27.356 1.015 2.367 2.033 4.233 2.342 4.293.756.147 6.07-5.165 7.98-7.977 2.347-3.457 4.09-7.753 6.188-15.25 3.93-14.051 7.025-18.414 20.608-29.05 3.639-2.85 7.935-6.422 9.548-7.938 2.847-2.678 5.762-6.202 5.417-6.547-.094-.094-1.255.694-2.581 1.75zM48.133 84.167c-8.59 7.623-15.258 17.147-18.355 26.217-1.646 4.822-2.172 7.774-2.384 13.391-.244 6.426.274 10.572 1.988 15.921 1.2 3.746 5.13 12.252 5.872 12.711.185.114.443-1.207.58-2.975.98-12.602 4.94-22.536 10.996-27.578 2.555-2.128 4.453-3.27 10.143-6.105 2.804-1.396 5.533-2.847 6.064-3.224l.966-.684-2.385-5.881c-1.312-3.234-3.812-10.157-5.555-15.384-2.015-6.042-3.36-9.54-3.691-9.606-.287-.056-2.194 1.382-4.24 3.197zm237.548 18.485c-4 10.423-8.878 24.298-16.8 47.786-12.876 38.171-12.293 36.483-17.647 51.158-1.169 3.205-2.467 6.693-2.884 7.751-.418 1.059-.76 2.001-.76 2.094 0 .458 1.12-.018 4.85-2.059 10.549-5.771 16.747-10.229 23.205-16.688 7.712-7.715 12.202-14.422 16.485-24.628 1.239-2.954 2.482-5.448 2.762-5.541l.508-.169-.254 2.507c-.325 3.21-2.66 10.215-4.759 14.274-7.772 15.033-19.375 25.465-40.44 36.356l-5.186 2.682-.468 1.178c-1.817 4.575-11.048 22.728-14.451 28.417-.696 1.163-1.201 2.179-1.122 2.258.078.078 1.939-.41 4.136-1.084a342.695 342.695 0 018.908-2.562l8.921-2.424c22.225-6.049 33.406-9.87 44.059-15.058 12.632-6.152 21.962-13.286 29.472-22.535 10.415-12.824 16.956-31.641 16.951-48.755-.004-14.21-4.685-24.799-14.197-32.112-1.102-.847-5.527-3.72-9.833-6.382-15.154-9.371-22.466-14.528-26.763-18.876-1.201-1.215-2.348-2.213-2.549-2.218-.2-.004-1.165 2.08-2.144 4.63zM59.147 119.058c-6.814 3.472-9.217 5.072-11.487 7.644-2.941 3.332-5.46 9.545-6.745 16.635l-.66 3.641-.003 7.465c-.002 8.108.345 11.58 1.969 19.662 3.61 17.97 13.309 34.399 26.247 44.462 7.147 5.559 13.775 9.544 26.626 16.008 8.351 4.2 12.894 6.641 16.954 9.107 1.395.847 2.278 1.207 2.208.899-.063-.282-2.515-3.351-5.447-6.82-21.325-25.231-27.8-34.068-33.839-46.178-4.328-8.681-7.046-16.733-8.144-24.122-.873-5.883-.706-11.074.304-9.439.103.166.614 1.927 1.137 3.914 4.25 16.159 10.636 30.249 19.14 42.223 3.317 4.671 14.364 18.544 20.576 25.839 2.899 3.404 7.846 9.331 10.992 13.171 3.146 3.84 5.769 6.932 5.83 6.871.061-.06-.707-2.546-1.705-5.524-.998-2.979-2.271-7.381-2.829-9.785l-1.015-4.369-.018-15.293 1.022-3.92c1.007-3.864 2.419-7.879 5.535-15.743.873-2.203 1.876-5.07 2.229-6.372l.642-2.366.039-9.832-1.041-3.095c-3.555-10.562-9.485-16.719-26.996-28.03-17.983-11.615-25.71-18.023-32.066-26.592-1.335-1.8-2.614-3.261-2.84-3.247-.228.014-3.205 1.448-6.615 3.186zm173.514 104.69a220.777 220.777 0 00-28.331 15.7l-4.622 3.027-5.48 5.446c-9.459 9.401-13.668 14.935-18.209 23.944-6.932 13.751-8.92 27.14-6.294 42.389.534 3.104.892 2.26 1.142-2.693.252-4.998 1.374-10.575 3.037-15.096 6.917-18.809 21.365-32.823 43.256-41.954 2.418-1.009 4.592-2.021 4.831-2.25 1.401-1.338 16.496-29.203 16.496-30.452 0-.645-.802-.379-5.826 1.939zm-20.252 37.528c-12.615 6.335-20.882 13.271-27.737 23.273-5.572 8.13-8.86 17.376-9.929 27.922-.553 5.463.042 16.389.893 16.382.222-.003 2.514-3.543 5.092-7.869 2.578-4.325 6.52-10.837 8.76-14.47 8.991-14.586 28.703-47.595 28.527-47.771-.103-.104-2.626 1.036-5.606 2.533z" fill="#FF4D00"/><path d="M439.577 223.717c0-1.08-.132-1.985-.394-2.714-.263-.759-.686-1.314-1.27-1.664h17.294l.262 2.89c0 .058-.029.102-.087.131-.058 0-.102-.044-.131-.131-.088-.497-.249-.891-.482-1.183a2.037 2.037 0 00-.876-.7 3.21 3.21 0 00-1.094-.35 7.997 7.997 0 00-1.226-.088h-7.618c-.321 0-.584.044-.788.131-.205.088-.307.38-.307.876v11.077h5.561c.788 0 1.415-.073 1.882-.219.467-.175.817-.394 1.051-.657.263-.262.438-.54.525-.832.088-.321.132-.642.132-.963 0-.058.029-.087.087-.087.088 0 .132.029.132.087v5.911c0 .058-.044.087-.132.087-.058 0-.087-.029-.087-.087 0-.292-.044-.599-.132-.92a1.947 1.947 0 00-.525-.875c-.234-.263-.584-.467-1.051-.613-.467-.175-1.094-.263-1.882-.263h-5.561v13.047c0 1.08.132 2 .394 2.758.263.73.686 1.27 1.27 1.62h-6.611c.584-.35 1.007-.89 1.27-1.62.262-.758.394-1.678.394-2.758v-21.891zm16.346 15.937c0-1.635.234-3.109.701-4.422.496-1.343 1.182-2.481 2.058-3.415a8.982 8.982 0 013.152-2.233c1.226-.525 2.598-.788 4.115-.788 1.518 0 2.89.263 4.116.788a8.982 8.982 0 013.152 2.233c.876.934 1.547 2.072 2.014 3.415.467 1.313.701 2.787.701 4.422 0 1.634-.234 3.123-.701 4.466-.467 1.342-1.138 2.495-2.014 3.458a9.255 9.255 0 01-3.152 2.189c-1.226.526-2.598.788-4.116.788-1.517 0-2.889-.262-4.115-.788a9.255 9.255 0 01-3.152-2.189c-.876-.963-1.562-2.116-2.058-3.458-.467-1.343-.701-2.832-.701-4.466zm3.547 2.67c.963 2.336 2.16 4.145 3.59 5.429 1.459 1.256 2.977 1.883 4.553 1.883.788 0 1.533-.146 2.233-.438a5.472 5.472 0 002.364-1.751c.613-.788 1.022-1.708 1.226-2.758.234-1.08.263-2.262.088-3.547-.175-1.313-.555-2.685-1.139-4.115-.963-2.335-2.174-4.145-3.634-5.429-1.43-1.284-2.933-1.926-4.509-1.926-.788 0-1.518.145-2.189.437a5.815 5.815 0 00-2.364 1.795c-.613.788-1.037 1.722-1.27 2.802-.234 1.051-.263 2.233-.088 3.547.175 1.284.555 2.641 1.139 4.071zm24.906 3.284c0 1.08.131 2 .394 2.758.263.73.686 1.27 1.27 1.62h-6.611c.584-.35 1.007-.89 1.269-1.62.263-.758.394-1.678.394-2.758v-11.952c0-1.051-.131-1.941-.394-2.671-.262-.73-.685-1.27-1.269-1.62h3.24c.671 0 1.123.19 1.357.569.233.35.35.905.35 1.664v.263a6.207 6.207 0 011.927-2.014c.437-.321.934-.57 1.488-.745a5.668 5.668 0 011.883-.306c.671 0 1.313.087 1.926.263a4.787 4.787 0 011.62.7c.496.292.89.657 1.182 1.095.292.437.438.919.438 1.444 0 .905-.452 1.358-1.357 1.358-.496 0-.832-.19-1.007-.569-.175-.38-.263-.701-.263-.964 0-.613-.19-1.167-.569-1.663-.379-.526-1.124-.788-2.233-.788-.788 0-1.503.145-2.145.437a6.165 6.165 0 00-1.576 1.051 4.82 4.82 0 00-.964 1.357c-.233.497-.35.934-.35 1.314v11.777zm58.736-23.379c-.233 0-.481.306-.744.919l-10.551 26.838h-.438l-12.04-27.188a2.469 2.469 0 00-.044.481V245.608c0 1.08.146 2 .438 2.758.292.73.788 1.27 1.488 1.62h-4.509c.7-.35 1.197-.89 1.488-1.62.292-.758.438-1.678.438-2.758v-21.891c0-1.08-.131-1.985-.394-2.714-.262-.759-.686-1.314-1.269-1.664h4.509l11.471 25.875 10.157-25.875h4.948c-.584.35-1.007.905-1.27 1.664-.263.729-.394 1.634-.394 2.714v21.891c0 1.08.131 2 .394 2.758.263.73.686 1.27 1.27 1.62h-6.611c.583-.35 1.007-.89 1.269-1.62.263-.758.394-1.678.394-2.758v-23.379zm8.456 17.425c0-1.635.234-3.109.701-4.422.496-1.343 1.182-2.481 2.057-3.415a8.995 8.995 0 013.153-2.233c1.226-.525 2.597-.788 4.115-.788 1.518 0 2.89.263 4.116.788a8.99 8.99 0 013.152 2.233c.876.934 1.547 2.072 2.014 3.415.467 1.313.7 2.787.7 4.422 0 1.634-.233 3.123-.7 4.466-.467 1.342-1.138 2.495-2.014 3.458a9.265 9.265 0 01-3.152 2.189c-1.226.526-2.598.788-4.116.788-1.518 0-2.889-.262-4.115-.788a9.27 9.27 0 01-3.153-2.189c-.875-.963-1.561-2.116-2.057-3.458-.467-1.343-.701-2.832-.701-4.466zm3.546 2.67c.964 2.336 2.16 4.145 3.591 5.429 1.459 1.256 2.977 1.883 4.553 1.883.788 0 1.532-.146 2.233-.438a5.472 5.472 0 002.364-1.751c.613-.788 1.022-1.708 1.226-2.758.233-1.08.263-2.262.087-3.547-.175-1.313-.554-2.685-1.138-4.115-.963-2.335-2.174-4.145-3.634-5.429-1.43-1.284-2.933-1.926-4.509-1.926-.788 0-1.518.145-2.189.437a5.811 5.811 0 00-2.365 1.795c-.613.788-1.036 1.722-1.269 2.802-.234 1.051-.263 2.233-.088 3.547.175 1.284.555 2.641 1.138 4.071zm21.623-8.668c0-1.051-.131-1.941-.394-2.671-.263-.73-.686-1.27-1.269-1.62h3.239c.672 0 1.124.19 1.358.569.233.35.35.905.35 1.664v.394c.233-.35.54-.701.919-1.051.409-.379.891-.73 1.445-1.051a8.784 8.784 0 011.839-.788 8.109 8.109 0 012.277-.306c3.269 0 5.37 1.167 6.304 3.502.175-.35.453-.729.832-1.138.409-.409.89-.788 1.445-1.138a9.395 9.395 0 011.97-.876 7.883 7.883 0 012.408-.35c2.364 0 4.086.584 5.166 1.751 1.109 1.138 1.664 2.802 1.664 4.991v10.07c0 1.08.131 2 .394 2.758.263.73.686 1.27 1.27 1.62h-6.611c.583-.35 1.007-.89 1.269-1.62.263-.758.394-1.678.394-2.758v-10.07c0-.846-.043-1.634-.131-2.364-.088-.73-.277-1.372-.569-1.926a3.03 3.03 0 00-1.226-1.27c-.525-.321-1.226-.482-2.102-.482a6.61 6.61 0 00-2.189.351 7.131 7.131 0 00-1.751.919 5.73 5.73 0 00-1.313 1.182c-.321.438-.54.861-.657 1.27.175.7.263 1.474.263 2.32v10.07c0 1.08.131 2 .394 2.758.262.73.686 1.27 1.269 1.62h-6.611c.584-.35 1.007-.89 1.27-1.62.263-.758.394-1.678.394-2.758v-10.07c0-.846-.044-1.634-.131-2.364-.088-.73-.278-1.372-.57-1.926a3.022 3.022 0 00-1.225-1.27c-.526-.321-1.226-.482-2.102-.482-.876 0-1.678.161-2.408.482a7.683 7.683 0 00-1.926 1.095c-.526.437-.934.904-1.226 1.401-.292.496-.438.948-.438 1.357v11.777c0 1.08.131 2 .394 2.758.263.73.686 1.27 1.27 1.62h-6.611c.583-.35 1.006-.89 1.269-1.62.263-.758.394-1.678.394-2.758v-11.952zm34.732 5.998c0-1.927.306-3.576.919-4.948.613-1.371 1.401-2.495 2.365-3.371a9.475 9.475 0 013.371-1.926 12.767 12.767 0 013.896-.613c1.431 0 2.686.204 3.766.613 1.109.408 2.014.934 2.714 1.576.73.642 1.27 1.357 1.62 2.145.38.788.569 1.547.569 2.277l-15.411 7.312a10.885 10.885 0 001.138 2.802 9.674 9.674 0 001.839 2.189 8.616 8.616 0 002.452 1.444 8.69 8.69 0 002.933.482 5.9 5.9 0 001.708-.263 4.91 4.91 0 001.62-.788c.496-.35.89-.788 1.182-1.313.321-.526.481-1.138.481-1.839a1.421 1.421 0 00-.306-.919 5.078 5.078 0 00-.175-.394 1.406 1.406 0 01-.088-.526c0-.263.088-.54.263-.832.175-.292.511-.438 1.007-.438.409 0 .73.132.963.395.263.262.394.598.394 1.007a5.444 5.444 0 01-.744 2.802 7.664 7.664 0 01-1.926 2.189 8.736 8.736 0 01-2.584 1.357 8.958 8.958 0 01-2.845.481c-1.927 0-3.591-.306-4.992-.919-1.401-.642-2.554-1.474-3.458-2.495a10.059 10.059 0 01-2.014-3.459 12.655 12.655 0 01-.657-4.028zm16.506-3.634c-.029-.671-.161-1.401-.394-2.189a6.325 6.325 0 00-1.007-2.146 5.626 5.626 0 00-1.839-1.663c-.759-.438-1.678-.657-2.758-.657-.876 0-1.737.146-2.584.438-.846.292-1.605.803-2.276 1.532-.672.701-1.226 1.664-1.664 2.89-.409 1.197-.613 2.714-.613 4.553 0 1.255.102 2.379.307 3.371l12.828-6.129zm7.936-2.364c0-1.051-.131-1.941-.394-2.671-.262-.73-.686-1.27-1.269-1.62h3.239c.672 0 1.124.19 1.358.569.233.35.35.905.35 1.664v.438c.233-.351.554-.715.963-1.095.438-.379.934-.73 1.489-1.051a9.54 9.54 0 011.926-.788 8.754 8.754 0 012.364-.306c2.452 0 4.247.584 5.385 1.751 1.139 1.138 1.708 2.802 1.708 4.991v10.07c0 1.08.131 2 .394 2.758.263.73.686 1.27 1.27 1.62h-6.611c.583-.35 1.007-.89 1.269-1.62.263-.758.394-1.678.394-2.758v-10.07c0-.846-.058-1.634-.175-2.364-.087-.73-.277-1.372-.569-1.926a2.915 2.915 0 00-1.313-1.27c-.555-.321-1.285-.482-2.19-.482-.934 0-1.78.161-2.539.482a8.302 8.302 0 00-2.014 1.095c-.554.437-.992.904-1.313 1.401-.292.496-.438.948-.438 1.357v11.777c0 1.08.131 2 .394 2.758.263.73.686 1.27 1.27 1.62h-6.611c.583-.35 1.007-.89 1.269-1.62.263-.758.394-1.678.394-2.758v-11.952zm26.143-4.291h4.772c.175 0 .263.088.263.263 0 .204-.088.306-.263.306h-4.772v13.923c0 2.101.248 3.648.744 4.641.526.992 1.401 1.488 2.627 1.488.642 0 1.226-.175 1.751-.525.555-.35.832-.949.832-1.795 0-.409.088-.774.263-1.095.204-.321.554-.481 1.051-.481.408 0 .729.116.963.35.233.233.35.555.35.963 0 .496-.146.949-.438 1.357-.292.38-.686.701-1.182.964a6.263 6.263 0 01-1.62.613 7.911 7.911 0 01-1.839.218c-2.335 0-4.057-.671-5.166-2.013-1.08-1.343-1.62-3.255-1.62-5.736v-12.872h-1.226c-.146 0-.219-.087-.219-.262v-.044c0-.175.073-.263.219-.263h.088c.263 0 .598-.058 1.007-.175a6.323 6.323 0 001.182-.569 4.277 4.277 0 001.051-.832c.292-.321.438-.686.438-1.095 0-.175-.059-.306-.176-.394a2.016 2.016 0 00-.394-.306 57.747 57.747 0 00-.35-.35c-.117-.117-.175-.292-.175-.526 0-.292.073-.496.219-.613a.927.927 0 01.613-.219c.671 0 1.007.584 1.007 1.752v3.327zm22.985 16.287c0-1.051-.307-1.897-.92-2.539-.583-.672-1.328-1.226-2.233-1.664a20.481 20.481 0 00-2.933-1.226 20.481 20.481 0 01-2.933-1.226c-.905-.496-1.664-1.08-2.277-1.751-.584-.672-.876-1.562-.876-2.671 0-.905.19-1.707.569-2.408a5.765 5.765 0 011.62-1.839 8.002 8.002 0 012.408-1.138 10.307 10.307 0 012.89-.394c.817 0 1.591.087 2.32.263.759.146 1.431.379 2.014.7.584.292 1.051.657 1.401 1.095.351.437.526.919.526 1.444 0 .905-.453 1.358-1.357 1.358-.497 0-.832-.19-1.007-.569-.176-.38-.263-.701-.263-.964a2.68 2.68 0 00-.175-.919c-.088-.321-.277-.613-.569-.876-.263-.262-.628-.467-1.095-.613-.467-.175-1.065-.262-1.795-.262-1.489 0-2.671.321-3.546.963-.876.613-1.314 1.474-1.314 2.583 0 .846.307 1.547.92 2.101.613.555 1.371 1.037 2.276 1.445a51.37 51.37 0 002.977 1.226c1.08.38 2.073.847 2.978 1.401a8.448 8.448 0 012.276 2.014c.613.788.92 1.795.92 3.021 0 1.08-.234 2.029-.701 2.846a6.08 6.08 0 01-1.795 2.058c-.759.525-1.649.919-2.671 1.182a11.11 11.11 0 01-3.152.438c-1.634 0-3.021-.365-4.159-1.095a7.028 7.028 0 01-2.496-3.021c-.087-.204-.058-.35.088-.438.175-.116.321-.073.438.132 1.167 2.276 3.21 3.415 6.129 3.415.759 0 1.474-.103 2.145-.307a6.051 6.051 0 001.752-.832c.496-.35.89-.773 1.182-1.269a3.222 3.222 0 00.438-1.664zm30.305 4.334c.584-.35 1.007-.89 1.27-1.62.262-.758.394-1.678.394-2.758v-24.693c0-.496-.102-.788-.307-.876-.204-.087-.467-.131-.788-.131h-1.357c-.525 0-1.065.044-1.62.131a5.552 5.552 0 00-1.445.351 3.202 3.202 0 00-1.094.7c-.292.292-.467.672-.526 1.139-.029.087-.073.131-.131.131-.058-.029-.088-.073-.088-.131l-.175-2.89h18.345l-.175 2.89c0 .058-.029.102-.088.131-.058 0-.102-.044-.131-.131-.059-.467-.234-.847-.526-1.139a3.192 3.192 0 00-1.094-.7 5.598 5.598 0 00-1.489-.351 9.622 9.622 0 00-1.576-.131h-1.357c-.321 0-.584.044-.788.131-.204.088-.307.38-.307.876v24.693c0 1.08.132 2 .394 2.758.263.73.686 1.27 1.27 1.62h-6.611zm30.175-14.448c0-.846-.058-1.634-.175-2.364-.087-.73-.277-1.372-.569-1.926a2.915 2.915 0 00-1.313-1.27c-.555-.321-1.285-.482-2.19-.482-.934 0-1.78.161-2.539.482a8.302 8.302 0 00-2.014 1.095c-.554.437-.992.904-1.313 1.401-.292.496-.438.948-.438 1.357v13.879c0 .759-.117 1.328-.35 1.707-.234.38-.686.569-1.358.569h-3.239c.583-.35 1.007-.89 1.269-1.62.263-.758.394-1.678.394-2.758v-21.891c0-1.08-.131-1.985-.394-2.714-.262-.759-.686-1.314-1.269-1.664h3.239c.672 0 1.124.19 1.358.569.233.38.35.949.35 1.708v10.42c.233-.351.554-.715.963-1.095.438-.379.934-.73 1.489-1.051a9.54 9.54 0 011.926-.788 8.754 8.754 0 012.364-.306c2.452 0 4.247.584 5.385 1.751 1.139 1.138 1.708 2.802 1.708 4.991v10.07c0 1.08.131 2 .394 2.758.263.73.686 1.27 1.27 1.62h-6.611c.583-.35 1.007-.89 1.269-1.62.263-.758.394-1.678.394-2.758v-10.07zm22.29-1.094c0-.496-.073-1.036-.219-1.62a4.083 4.083 0 00-.832-1.62c-.379-.526-.919-.963-1.62-1.314-.671-.35-1.547-.525-2.626-.525-.701 0-1.358.088-1.971.263a5.697 5.697 0 00-1.532.7 3.612 3.612 0 00-1.051.92c-.233.321-.35.656-.35 1.007 0 .233.029.452.087.656.088.176.132.394.132.657 0 .321-.088.628-.263.92-.175.291-.511.437-1.007.437-.408 0-.744-.131-1.007-.394-.233-.262-.35-.598-.35-1.007 0-.817.233-1.517.7-2.101a5.52 5.52 0 011.795-1.445 8.166 8.166 0 012.409-.876 11.35 11.35 0 012.583-.306c1.488 0 2.758.204 3.809.613 1.08.408 1.955.948 2.627 1.62a6.413 6.413 0 011.488 2.276c.321.847.482 1.708.482 2.584v9.719c0 1.08.131 2 .394 2.758.262.73.686 1.27 1.269 1.62h-3.239c-.672 0-1.124-.189-1.358-.569-.233-.379-.35-.948-.35-1.707v-1.795c-.175.408-.452.875-.832 1.401-.379.525-.875 1.036-1.488 1.532-.584.467-1.285.861-2.102 1.182-.788.35-1.693.525-2.714.525a9.186 9.186 0 01-2.54-.35 6.273 6.273 0 01-2.233-1.051c-.642-.496-1.167-1.138-1.576-1.926-.379-.817-.569-1.795-.569-2.933 0-1.168.234-2.131.701-2.89a6.243 6.243 0 011.838-1.97c.759-.526 1.62-.963 2.584-1.314.992-.35 1.999-.671 3.021-.963 1.547-.438 2.845-.875 3.896-1.313 1.051-.438 1.722-.861 2.014-1.27v-.131zm0 1.226c-.175.087-.803.35-1.882.788a57.94 57.94 0 01-3.678 1.269c-.701.234-1.372.497-2.014.788a5.798 5.798 0 00-1.62 1.139 5.276 5.276 0 00-1.051 1.707c-.263.642-.394 1.43-.394 2.365 0 1.692.453 2.991 1.357 3.896.934.905 2.029 1.357 3.284 1.357.759 0 1.489-.131 2.189-.394a6.29 6.29 0 001.839-1.05 5.556 5.556 0 001.313-1.577 5.19 5.19 0 00.657-1.926v-8.362zm12.08-6.305h4.772c.175 0 .263.088.263.263 0 .204-.088.306-.263.306h-4.772v13.923c0 2.101.248 3.648.744 4.641.526.992 1.401 1.488 2.627 1.488.642 0 1.226-.175 1.751-.525.555-.35.832-.949.832-1.795 0-.409.088-.774.263-1.095.204-.321.554-.481 1.051-.481.408 0 .729.116.963.35.233.233.35.555.35.963 0 .496-.146.949-.438 1.357-.292.38-.686.701-1.182.964a6.263 6.263 0 01-1.62.613 7.911 7.911 0 01-1.839.218c-2.335 0-4.057-.671-5.166-2.013-1.08-1.343-1.62-3.255-1.62-5.736v-12.872h-1.226c-.146 0-.219-.087-.219-.262v-.044c0-.175.073-.263.219-.263h.088c.263 0 .598-.058 1.007-.175a6.323 6.323 0 001.182-.569 4.277 4.277 0 001.051-.832c.292-.321.438-.686.438-1.095 0-.175-.059-.306-.176-.394a2.016 2.016 0 00-.394-.306 57.747 57.747 0 00-.35-.35c-.117-.117-.175-.292-.175-.526 0-.292.073-.496.219-.613a.927.927 0 01.613-.219c.671 0 1.007.584 1.007 1.752v3.327zm55.545-7.136c-.234 0-.482.306-.745.919l-10.551 26.838h-.438l-12.04-27.188a2.469 2.469 0 00-.044.481V245.608c0 1.08.146 2 .438 2.758.292.73.788 1.27 1.489 1.62h-4.51a2.995 2.995 0 001.489-1.62c.292-.758.438-1.678.438-2.758v-21.891c0-1.08-.132-1.985-.394-2.714-.263-.759-.686-1.314-1.27-1.664h4.509l11.471 25.875 10.158-25.875h4.947c-.584.35-1.007.905-1.27 1.664-.262.729-.394 1.634-.394 2.714v21.891c0 1.08.132 2 .394 2.758.263.73.686 1.27 1.27 1.62h-6.611c.584-.35 1.007-.89 1.27-1.62.262-.758.394-1.678.394-2.758v-23.379zm22.291 12.215c0-.496-.073-1.036-.219-1.62a4.096 4.096 0 00-.832-1.62c-.38-.526-.92-.963-1.62-1.314-.671-.35-1.547-.525-2.627-.525-.701 0-1.357.088-1.97.263a5.69 5.69 0 00-1.533.7 3.607 3.607 0 00-1.05.92c-.234.321-.351.656-.351 1.007 0 .233.03.452.088.656.087.176.131.394.131.657 0 .321-.087.628-.262.92-.176.291-.511.437-1.007.437-.409 0-.745-.131-1.007-.394-.234-.262-.351-.598-.351-1.007 0-.817.234-1.517.701-2.101a5.51 5.51 0 011.795-1.445 8.16 8.16 0 012.408-.876 11.364 11.364 0 012.583-.306c1.489 0 2.758.204 3.809.613 1.08.408 1.956.948 2.627 1.62a6.416 6.416 0 011.489 2.276c.321.847.481 1.708.481 2.584v9.719c0 1.08.132 2 .394 2.758.263.73.686 1.27 1.27 1.62h-3.24c-.671 0-1.124-.189-1.357-.569-.234-.379-.35-.948-.35-1.707v-1.795c-.176.408-.453.875-.832 1.401-.38.525-.876 1.036-1.489 1.532-.584.467-1.284.861-2.101 1.182-.789.35-1.693.525-2.715.525a9.173 9.173 0 01-2.539-.35 6.257 6.257 0 01-2.233-1.051c-.642-.496-1.168-1.138-1.576-1.926-.38-.817-.569-1.795-.569-2.933 0-1.168.233-2.131.7-2.89a6.235 6.235 0 011.839-1.97c.759-.526 1.62-.963 2.583-1.314.992-.35 1.999-.671 3.021-.963 1.547-.438 2.846-.875 3.897-1.313 1.05-.438 1.722-.861 2.014-1.27v-.131zm0 1.226c-.176.087-.803.35-1.883.788a57.94 57.94 0 01-3.678 1.269c-.7.234-1.372.497-2.014.788a5.798 5.798 0 00-1.62 1.139 5.274 5.274 0 00-1.05 1.707c-.263.642-.394 1.43-.394 2.365 0 1.692.452 2.991 1.357 3.896.934.905 2.028 1.357 3.283 1.357.759 0 1.489-.131 2.19-.394a6.297 6.297 0 001.838-1.05 5.56 5.56 0 001.314-1.577c.35-.613.569-1.255.657-1.926v-8.362zm12.079-6.305h4.772c.176 0 .263.088.263.263 0 .204-.087.306-.263.306h-4.772v13.923c0 2.101.248 3.648.745 4.641.525.992 1.401 1.488 2.626 1.488.643 0 1.226-.175 1.752-.525.554-.35.832-.949.832-1.795 0-.409.087-.774.262-1.095.205-.321.555-.481 1.051-.481.409 0 .73.116.963.35.234.233.351.555.351.963 0 .496-.146.949-.438 1.357-.292.38-.686.701-1.182.964a6.263 6.263 0 01-1.62.613 7.911 7.911 0 01-1.839.218c-2.335 0-4.057-.671-5.166-2.013-1.08-1.343-1.62-3.255-1.62-5.736v-12.872h-1.226c-.146 0-.219-.087-.219-.262v-.044c0-.175.073-.263.219-.263h.087c.263 0 .599-.058 1.007-.175a6.293 6.293 0 001.182-.569 4.277 4.277 0 001.051-.832c.292-.321.438-.686.438-1.095 0-.175-.058-.306-.175-.394a2.046 2.046 0 00-.394-.306l-.35-.35c-.117-.117-.176-.292-.176-.526 0-.292.073-.496.219-.613a.929.929 0 01.613-.219c.672 0 1.007.584 1.007 1.752v3.327zm14.409 0h4.772c.175 0 .263.088.263.263 0 .204-.088.306-.263.306h-4.772v13.923c0 2.101.248 3.648.744 4.641.526.992 1.401 1.488 2.627 1.488.642 0 1.226-.175 1.751-.525.555-.35.832-.949.832-1.795 0-.409.088-.774.263-1.095.204-.321.555-.481 1.051-.481.408 0 .729.116.963.35.233.233.35.555.35.963 0 .496-.146.949-.438 1.357-.291.38-.686.701-1.182.964a6.263 6.263 0 01-1.62.613 7.91 7.91 0 01-1.838.218c-2.336 0-4.058-.671-5.167-2.013-1.08-1.343-1.62-3.255-1.62-5.736v-12.872h-1.226c-.146 0-.218-.087-.218-.262v-.044c0-.175.072-.263.218-.263h.088c.263 0 .598-.058 1.007-.175a6.293 6.293 0 001.182-.569 4.277 4.277 0 001.051-.832c.292-.321.438-.686.438-1.095 0-.175-.059-.306-.175-.394a2.053 2.053 0 00-.395-.306 57.747 57.747 0 00-.35-.35c-.117-.117-.175-.292-.175-.526 0-.292.073-.496.219-.613a.927.927 0 01.613-.219c.671 0 1.007.584 1.007 1.752v3.327zm10.556 10.289c0-1.927.306-3.576.919-4.948.613-1.371 1.401-2.495 2.365-3.371a9.475 9.475 0 013.371-1.926 12.767 12.767 0 013.896-.613c1.431 0 2.686.204 3.766.613 1.109.408 2.014.934 2.714 1.576.73.642 1.27 1.357 1.62 2.145.379.788.569 1.547.569 2.277l-15.411 7.312a10.885 10.885 0 001.138 2.802 9.674 9.674 0 001.839 2.189 8.616 8.616 0 002.452 1.444 8.69 8.69 0 002.933.482 5.9 5.9 0 001.708-.263 4.91 4.91 0 001.62-.788c.496-.35.89-.788 1.182-1.313.321-.526.481-1.138.481-1.839a1.421 1.421 0 00-.306-.919 5.078 5.078 0 00-.175-.394 1.406 1.406 0 01-.088-.526c0-.263.088-.54.263-.832.175-.292.511-.438 1.007-.438.409 0 .73.132.963.395.263.262.394.598.394 1.007a5.444 5.444 0 01-.744 2.802 7.653 7.653 0 01-1.927 2.189 8.718 8.718 0 01-2.583 1.357 8.958 8.958 0 01-2.845.481c-1.927 0-3.591-.306-4.992-.919-1.401-.642-2.554-1.474-3.458-2.495a10.059 10.059 0 01-2.014-3.459 12.655 12.655 0 01-.657-4.028zm16.506-3.634c-.03-.671-.161-1.401-.394-2.189a6.325 6.325 0 00-1.007-2.146 5.626 5.626 0 00-1.839-1.663c-.759-.438-1.678-.657-2.758-.657-.876 0-1.737.146-2.584.438-.846.292-1.605.803-2.276 1.532-.672.701-1.226 1.664-1.664 2.89-.409 1.197-.613 2.714-.613 4.553 0 1.255.102 2.379.307 3.371l12.828-6.129zm11.22 9.588c0 1.08.131 2 .394 2.758.263.73.686 1.27 1.27 1.62h-6.612c.584-.35 1.007-.89 1.27-1.62.263-.758.394-1.678.394-2.758v-11.952c0-1.051-.131-1.941-.394-2.671-.263-.73-.686-1.27-1.27-1.62h3.24c.672 0 1.124.19 1.358.569.233.35.35.905.35 1.664v.263c.204-.351.467-.701.788-1.051a6.2 6.2 0 011.138-.963c.438-.321.934-.57 1.489-.745a5.666 5.666 0 011.882-.306c.672 0 1.314.087 1.927.263a4.787 4.787 0 011.62.7c.496.292.89.657 1.182 1.095.292.437.438.919.438 1.444 0 .905-.453 1.358-1.358 1.358-.496 0-.831-.19-1.007-.569-.175-.38-.262-.701-.262-.964 0-.613-.19-1.167-.569-1.663-.38-.526-1.124-.788-2.233-.788-.788 0-1.503.145-2.146.437a6.182 6.182 0 00-1.576 1.051 4.836 4.836 0 00-.963 1.357c-.233.497-.35.934-.35 1.314v11.777zM379.688 79.68h27.129v.695c-.87 2.261-1.392 4.696-1.392 7.13 0 .87.174 2.26.348 4.522.174 2.086.87 5.043 2.435 8.694 1.043 2.609 2.434 6.087 4.347 10.434 1.739 4.522 3.652 9.565 5.913 15.13 2.261 5.738 4.521 11.651 7.13 17.737a997.488 997.488 0 007.303 18.26c2.261 6.086 4.522 11.651 6.609 17.042a2971.82 2971.82 0 015.217 13.564c.347.869.869 1.217 1.565 1.391h.521c.522 0 .87-.174 1.218-.696 3.304-4.521 6.086-10.434 8.173-17.911 1.913-7.304 3.652-15.129 5.043-23.65 1.217-8.348 2.435-16.869 3.478-25.39.869-8.521 2.087-16.346 3.478-23.302 1.217-6.782 2.956-12.52 4.869-16.868 1.913-4.348 4.348-6.434 7.478-6.434h18.433v.521c-2.435.87-4.869 2.956-7.13 5.913-2.261 3.13-4.521 6.956-6.608 11.477-2.261 4.521-4.347 9.564-6.26 15.129-2.087 5.739-4.174 11.478-6.087 17.564-1.913 6.086-3.999 12.173-5.912 18.259-2.087 6.087-4.174 11.999-6.261 17.564-1.739 4.695-3.304 9.217-4.695 13.738-1.565 4.695-3.304 8.695-5.217 11.999-1.913 3.304-4.347 5.913-7.13 7.652-2.087 1.217-4.521 1.913-7.304 1.913-1.217 0-2.608-.174-3.999-.348l.174-.174a6149.928 6149.928 0 00-18.781-46.605c-2.435-6.086-4.87-11.999-7.304-18.085-2.435-5.913-4.695-11.478-6.608-16.521-2.087-5.043-3.826-9.39-5.391-13.042-1.565-3.652-2.609-6.087-3.13-7.478-.87-1.913-1.565-3.478-2.087-5.043-.696-1.565-1.391-2.956-2.087-4.521-.869-1.565-1.739-2.957-2.956-4.522-1.217-1.565-2.609-3.13-4.522-5.043v-.695zM504.209 201.409v-.87c.87-.347 1.913-1.391 2.783-3.304a15.21 15.21 0 001.391-6.434V90.288c0-2.435-.522-4.522-1.391-6.435-.87-1.913-1.913-2.956-2.783-3.304v-.87h70.082c1.913 0 3.304.522 4.347 1.566.87 1.043 1.565 2.26 1.739 3.652.174.695.174 1.565.174 2.26 0 .87-.174 1.913-.348 3.304-.174 1.218-.695 2.609-1.391 4-1.913-1.913-4.347-3.478-7.478-5.043-3.304-1.565-6.782-2.782-10.781-4-4-1.043-8.347-1.913-12.695-2.608-4.521-.522-9.043-.87-13.39-1.044h-9.043c-.695.87-1.217 2.087-1.739 3.652s-.869 3.13-.869 5.043v62.952c.695-1.913 1.739-4.348 3.13-7.478 1.217-3.13 3.13-6.26 5.565-9.564 2.26-3.13 5.217-6.087 8.868-8.695 3.478-2.609 7.652-4.522 12.695-5.391.696-.174 1.217-.174 1.913-.174 1.043 0 2.261.348 3.13.869 1.043.522 1.913 1.392 2.435 2.609a6.99 6.99 0 01.521 2.608c0 .348-.174 1.044-.347 1.913-.174.87-.696 1.565-1.739 2.261-1.218-.174-2.435-.174-3.478-.174-3.478 0-6.782.522-9.913 1.391a29.445 29.445 0 00-8.868 4c-2.609 1.913-4.87 3.826-6.609 6.086-1.739 2.261-3.13 4.522-4.173 6.609-1.217 2.086-1.913 3.825-2.261 5.217-.522 1.565-.695 2.434-.869 2.782v32.519c0 1.913.347 3.478.869 5.043s1.044 2.782 1.739 3.652h9.043c4.347-.174 8.869-.522 13.39-1.217 4.348-.522 8.695-1.392 12.695-2.609 3.999-1.043 7.477-2.261 10.781-3.826 3.131-1.565 5.565-3.13 7.478-5.043v-.174c.696 1.392 1.217 2.957 1.565 4.696.174.869.174 1.739.174 2.434 0 .87 0 1.739-.174 2.783-.174 1.217-.869 2.26-1.739 3.304-1.043 1.043-2.434 1.565-4.347 1.565h-70.082zM635.767 79.854c6.086 0 11.303 1.043 15.65 3.304 4.174 2.26 7.478 5.043 9.739 8.52 2.26 3.653 3.652 7.478 3.999 11.652 0 .869.174 1.565.174 2.435 0 3.477-.695 6.955-2.086 10.781-1.392 3.652-3.826 7.304-7.304 10.608-3.478 3.478-7.826 6.086-13.216 7.999-2.957.87-5.565 1.739-8 2.435-2.434.869-4.695 1.739-6.956 2.782 4.696.522 8.695 2.435 11.999 5.391 3.304 3.13 6.087 6.782 8.695 11.13a98.66 98.66 0 016.782 13.564c1.913 4.695 4 9.216 5.913 13.216 1.913 4 3.999 7.478 6.26 10.086 2.261 2.609 4.869 4 7.999 4 2.087 0 4.522-.87 7.13-2.435l.174 1.392c-3.304 2.26-6.434 3.825-9.39 4.695-2.957.869-5.565 1.391-8 1.391-3.652 0-6.782-1.043-9.39-2.956-2.783-1.913-5.217-4.348-7.13-7.478-2.087-2.956-3.826-6.434-5.391-10.434-1.565-4-3.13-7.999-4.347-11.999-1.392-4-2.609-7.999-3.826-11.825-1.217-3.652-2.435-6.956-3.826-9.738-.869-1.913-1.913-3.304-2.956-4.174a6.277 6.277 0 00-3.478-1.043c-1.913 0-4 .869-5.913 2.782-1.913 1.913-3.652 4.348-5.043 6.956h-1.913c1.218-2.608 2.609-5.043 4.522-6.956 1.913-1.913 3.826-3.652 5.912-5.217 2.087-1.565 4.174-2.782 6.261-4 2.086-1.217 3.999-2.26 5.738-3.304 4.348-2.608 7.652-5.738 10.086-9.39 2.435-3.478 4-7.13 4.87-10.956.347-1.913.521-3.826.521-5.738 0-1.913-.174-4.348-.695-7.13-.522-2.783-1.913-5.739-4-8.695-2.087-2.956-4.695-5.217-7.999-7.13-3.304-1.739-7.13-2.609-11.478-2.609h-17.563c-.696.87-1.218 2.087-1.739 3.652-.522 1.565-.87 3.13-.87 5.043 0 16.521 0 33.041.174 49.562.174 16.52.174 33.04.174 49.561 0 .869.174 1.739.348 2.956.174 1.217.347 2.261.869 3.304.348 1.217.87 2.087 1.391 2.956.522.87 1.218 1.392 2.087 1.739v.87h-23.302v-.87c.869-.347 1.913-1.391 2.782-3.304a15.195 15.195 0 001.391-6.434V90.461c0-2.434-.521-4.521-1.391-6.434-.869-1.913-1.913-2.956-2.782-3.304v-.87h48.344zM687.109 201.409v-.87c.869-.347 1.913-1.391 2.782-3.304a15.195 15.195 0 001.391-6.434V90.288c0-2.435-.521-4.522-1.391-6.435-.869-1.913-1.913-2.956-2.782-3.304v-.87h50.604c7.304 0 13.738 1.74 19.303 5.218 5.565 3.478 10.26 7.999 13.912 13.738 3.652 5.738 6.26 12.173 8.173 19.476 1.913 7.304 2.783 14.782 2.783 22.259 0 7.652-.87 15.13-2.783 22.433-1.913 7.304-4.521 13.738-8.173 19.477-3.652 5.739-8.347 10.434-13.738 13.912-5.565 3.478-11.999 5.217-19.477 5.217h-50.604zm18.781-10.782c0 1.913.348 3.478.869 5.043.522 1.565 1.044 2.783 1.739 3.652h20.173c6.434 0 11.999-1.739 16.694-5.043 4.695-3.304 8.695-7.825 11.999-13.39 3.13-5.565 5.565-11.825 7.13-18.955 1.565-6.956 2.434-14.086 2.434-21.564 0-7.477-.869-14.607-2.434-21.737-1.565-6.956-4-13.216-7.13-18.781-3.304-5.565-7.304-10.086-11.999-13.39-4.695-3.304-10.26-5.043-16.694-5.043h-20.173c-.695.87-1.217 2.087-1.739 3.652-.521 1.565-.869 3.13-.869 5.043v100.513zM790.531 201.409v-.87c.87-.347 1.913-1.391 2.782-3.304a15.195 15.195 0 001.392-6.434V90.288c0-2.435-.522-4.522-1.392-6.435-.869-1.913-1.912-2.956-2.782-3.304v-.87h70.081c1.913 0 3.304.522 4.348 1.566.869 1.043 1.565 2.26 1.739 3.652.174.695.174 1.565.174 2.26 0 .87-.174 1.913-.348 3.304-.174 1.218-.696 2.609-1.391 4-1.913-1.913-4.348-3.478-7.478-5.043-3.304-1.565-6.782-2.782-10.782-4-3.999-1.043-8.347-1.913-12.694-2.608-4.522-.522-9.043-.87-13.391-1.044h-9.042c-.696.87-1.218 2.087-1.739 3.652-.522 1.565-.87 3.13-.87 5.043v62.952c.696-1.913 1.739-4.348 3.13-7.478 1.218-3.13 3.131-6.26 5.565-9.564 2.261-3.13 5.217-6.087 8.869-8.695 3.478-2.609 7.651-4.522 12.695-5.391.695-.174 1.217-.174 1.912-.174 1.044 0 2.261.348 3.131.869 1.043.522 1.913 1.392 2.434 2.609.348.869.522 1.739.522 2.608 0 .348-.174 1.044-.348 1.913-.174.87-.695 1.565-1.739 2.261-1.217-.174-2.434-.174-3.478-.174-3.478 0-6.782.522-9.912 1.391a29.462 29.462 0 00-8.869 4c-2.608 1.913-4.869 3.826-6.608 6.086-1.739 2.261-3.13 4.522-4.174 6.609-1.217 2.086-1.913 3.825-2.26 5.217-.522 1.565-.696 2.434-.87 2.782v32.519c0 1.913.348 3.478.87 5.043.521 1.565 1.043 2.782 1.739 3.652h9.042c4.348-.174 8.869-.522 13.391-1.217 4.347-.522 8.695-1.392 12.694-2.609 4-1.043 7.478-2.261 10.782-3.826 3.13-1.565 5.565-3.13 7.478-5.043v-.174c.695 1.392 1.217 2.957 1.565 4.696.174.869.174 1.739.174 2.434 0 .87 0 1.739-.174 2.783-.174 1.217-.87 2.26-1.739 3.304-1.044 1.043-2.435 1.565-4.348 1.565h-70.081zM872.005 201.409v-.522c2.609-2.087 5.391-5.391 8.174-9.738 2.608-4.348 4.869-8.695 6.608-13.39.695-1.913 1.739-4.87 3.304-8.695 1.391-3.826 3.13-8.174 5.043-13.217 1.913-4.869 3.826-10.086 6.086-15.824 2.087-5.739 4.174-11.304 6.261-17.043 5.043-13.216 10.434-27.65 16.346-43.3h14.608c6.782 17.042 13.042 32.693 18.781 46.778 2.434 6.087 4.869 11.999 7.303 17.912 2.435 5.913 4.696 11.303 6.782 16.347 1.913 5.043 3.652 9.564 5.217 13.216 1.566 3.652 2.609 6.26 3.131 7.651a616.47 616.47 0 012.26 5.043c.522 1.565 1.218 2.957 2.087 4.522.696 1.565 1.565 2.956 2.782 4.521 1.218 1.565 2.609 3.13 4.522 5.043v.696h-28.867v-.696c1.043-2.434 1.391-5.043 1.391-7.825 0-.522 0-1.913-.174-4-.174-1.913-1.043-4.869-2.609-8.521-1.912-4.869-4.173-9.043-6.956-12.695-2.782-3.651-5.738-6.608-9.042-9.042-3.304-2.435-6.782-4.348-10.434-5.565-3.652-1.217-7.478-1.739-11.13-1.739-3.652 0-7.13.522-10.434 1.739-3.478 1.217-6.608 3.13-9.564 5.391-2.956 2.434-5.391 5.391-7.652 9.043-2.26 3.651-3.825 7.999-5.043 12.868-.521 2.435-.869 4.869-.869 7.13 0 4.869 1.217 9.217 3.652 13.39l.174.522h-21.738zm51.996-117.034c-.174.696-.87 2.608-1.913 5.565-1.217 2.956-2.608 6.782-4.173 11.303-1.739 4.695-3.652 9.738-5.739 15.303-2.087 5.739-4.174 11.478-6.434 17.216-2.261 5.913-4.348 11.651-6.435 17.39-2.086 5.739-3.999 10.956-5.564 15.651 3.304-5.913 7.651-10.26 13.042-13.042 5.391-2.783 10.956-4.174 16.868-4.174 6.261 0 12.347 1.391 18.433 4.347 6.087 2.957 11.13 7.304 15.13 12.869l-33.215-82.254v-.174z" fill="#FF4D00"/><defs><filter id="filter0_f_881_869" x="0" y=".001" width="350.614" height="342.663" filterUnits="userSpaceOnUse" color-interpolation-filters="sRGB"><feFlood flood-opacity="0" result="BackgroundImageFix"/><feBlend in="SourceGraphic" in2="BackgroundImageFix" result="shape"/><feGaussianBlur stdDeviation="2.65" result="effect1_foregroundBlur_881_869"/></filter></defs></svg>