<svg width="992" height="343" viewBox="0 0 992 343" fill="none" xmlns="http://www.w3.org/2000/svg">
<g opacity="0.53" filter="url(#filter0_f_881_869)">
<path fill-rule="evenodd" clip-rule="evenodd" d="M249.593 5.54735C248.191 5.73888 244.586 6.29781 241.582 6.78974C228.424 8.94387 223.735 8.8765 215.321 6.41177L214.548 6.18529L213.727 7.33846C213.275 7.97276 212.517 9.64078 212.042 11.0448L211.178 13.5984V16.6013C211.178 21.4525 212.546 24.7303 215.582 27.1517C216.564 27.9353 217.368 28.7818 217.368 29.0327C217.368 29.2836 216.717 31.7556 215.92 34.5262C215.124 37.2964 214.276 40.7337 214.035 42.1643L213.598 44.7656L214.418 47.5271C214.91 49.1838 215.136 50.6196 214.985 51.1159C214.645 52.2286 213.737 54.2415 210.767 60.4588L208.265 65.6974V69.1118L209.084 69.8582C210.133 70.8129 211.248 71.3842 213.132 71.9311L214.637 72.3684L214.669 77.1016L215.472 78.4019C215.914 79.117 216.276 80.2564 216.278 80.9336C216.279 81.6109 216.682 82.8205 217.173 83.6216L218.067 85.0781L217.852 87.4791C217.72 88.9658 217.806 90.3906 218.081 91.2204C219.072 94.2248 221.841 96.1633 225.55 96.4502L227.745 96.6203L235.182 94.7218L238.212 95.9343L239.274 97.6063C239.859 98.5261 240.585 100.129 240.888 101.167L241.438 103.056L240.706 104.491C239.459 106.935 234.784 110.586 228.269 114.205C224.282 116.42 220.762 117.861 213.245 120.356C209.876 121.474 206.01 122.972 204.655 123.684C195.587 128.449 189.625 138.411 187.882 151.712C187.673 153.314 187.346 158.312 187.158 162.818C186.949 167.828 186.596 171.903 186.251 173.309C185.941 174.573 184.537 178.56 183.13 182.168C181.724 185.777 180.092 190.444 179.503 192.54C178.558 195.907 177.097 203.802 176.396 209.334C176.263 210.386 176.018 211.246 175.852 211.246C175.376 211.246 170.975 202.71 169.375 198.683C166.291 190.924 164.433 182.934 164.963 179.707C166.056 173.057 164.517 167.481 159.942 161.503C158.783 159.989 157.604 158.428 157.323 158.035C157.019 157.61 156.397 154.053 155.787 149.248C154.639 140.204 153.607 136.024 151.413 131.54L149.916 128.481L147.586 126.185C145.032 123.669 141.484 121.698 137.838 120.771C136.653 120.47 133.294 119.89 130.374 119.483C127.453 119.076 123.842 118.41 122.349 118.003C116.775 116.485 112.127 113.178 110.272 109.413L109.407 107.653L109.448 99.6428L110.269 97.5575C111.221 95.1438 112.47 93.999 114.153 93.999C114.807 93.999 117.259 94.3267 119.602 94.7272C128.008 96.1644 131.194 95.4245 132.936 91.6322L133.604 90.1757L133.621 84.2235L134.584 83.0783C135.78 81.6564 136.281 79.6749 136.321 76.2026L136.351 73.5169L138.354 72.6379C140.827 71.5528 141.613 70.5963 141.623 68.6573L141.631 67.1652L139.583 63.9238C135.702 57.7833 135.443 57.3256 135.217 56.1928L134.99 55.056L136.104 53.3177C139.842 47.487 141.43 39.6778 139.997 34.1752C138.607 28.8397 134.619 23.8772 129.752 21.4263C127.953 20.5196 126.696 19.5598 125.605 18.2566C123.815 16.1181 119.817 13.2987 116.014 11.4931C112.596 9.86946 107.242 8.53568 102.147 8.0383L98.0449 7.63776L94.2584 8.02665C76.9875 9.80174 63.6505 19.5605 57.1131 35.2067C55.0984 40.0284 53.4122 46.2024 52.0187 53.8591C51.3535 57.5164 50.6613 60.4592 50.4807 60.3991C50.3004 60.339 49.1418 58.0021 47.906 55.206C37.423 31.4847 26.1083 16.184 14.5533 10.1032C10.442 7.93998 5.87306 6.72419 5.3054 7.6425C5.20199 7.80999 6.54414 8.73814 8.28791 9.70561C18.2739 15.2464 25.92 23.4872 34.7241 38.198C37.8155 43.3638 41.8062 51.6092 45.0778 59.5897C48.1532 67.092 50.9653 74.8051 50.9653 75.738C50.9653 76.1498 49.8394 77.3507 48.1434 78.7478C40.0344 85.4283 32.8278 94.2451 28.6557 102.589C26.6752 106.551 24.8674 112.338 24.0026 117.485L23.2074 122.218L23.6141 133.142L24.5094 136.965C25.6717 141.93 26.9214 145.006 31.4623 154.079C35.7058 162.558 36.4227 164.526 37.4969 170.646C39.2177 180.453 41.9657 188.962 46.022 197.043C50.122 205.211 54.2387 210.848 60.6138 217.024C68.6779 224.836 75.3956 229.22 93.1632 238.267C110.166 246.924 117.061 251.521 125.274 259.674L130.226 264.589L134.778 271.507C139.18 278.195 141.409 281.863 147.171 291.898C161.556 316.949 172.339 334.97 173.847 336.478L174.733 337.363L175.601 336.967C176.17 336.708 178.199 333.709 181.495 328.254C187.038 319.08 213.129 275.715 220.019 264.225C222.42 260.22 224.62 256.672 224.906 256.341C225.756 255.359 232.821 253.035 244.677 249.836C273.432 242.079 286.243 237.79 297.616 232.111C319.236 221.318 333.947 205.035 340.481 184.665C342.118 179.561 343.589 173.648 344.482 168.579L345.272 164.092L345.312 158.266C345.413 143.66 340.19 131.101 330.911 123.636C329.421 122.437 325.672 119.919 322.578 118.039C314.821 113.323 303.807 106.08 299.668 102.971C295.718 100.003 291.419 95.8047 290.407 93.9254L289.716 92.6415L292.193 86.493C300.03 67.0436 310.148 46.6066 318.309 33.7441C325.413 22.5478 333.904 13.9389 342.292 9.42887C343.872 8.57938 345.166 7.76193 345.169 7.61155C345.178 7.14438 342.85 7.31115 340.78 7.92542C331.657 10.6337 322.363 19.5583 312.802 34.7913C307.747 42.8442 298.724 60.3634 294.028 71.2415C288.296 84.5213 287.111 87.0858 286.755 86.9729C286.235 86.8076 285.205 83.6605 284.746 80.8299C283.846 75.2832 284.421 71.2644 287.33 62.7895C291.384 50.98 292.38 46.2713 292.363 39.0169C292.35 33.98 291.773 30.0927 290.561 26.8902C289.431 23.9048 286.502 19.6847 284.277 17.8339C283.235 16.968 281.891 15.6859 281.29 14.985C277.437 10.4899 273.672 8.27644 266.911 6.53085L262.701 5.44431L257.421 5.3216C254.517 5.25424 250.995 5.35582 249.593 5.54735ZM249.593 9.31563C247.991 9.58653 243.73 10.3239 240.126 10.9542C236.521 11.5841 231.523 12.1951 229.02 12.3116L224.468 12.5235L221.009 11.898C219.107 11.5539 217.311 11.2477 217.02 11.2171C216.18 11.1297 215.442 13.1072 215.261 15.9291C214.98 20.3037 216.327 23.1067 219.864 25.5088C221.045 26.3102 222.09 27.1786 222.187 27.4386C222.284 27.6986 221.749 29.7956 220.998 32.0986C220.247 34.4017 219.254 37.9649 218.791 40.0175L217.95 43.7486L218.478 46.0255C218.769 47.2773 218.993 49.367 218.976 50.6687L218.945 53.0355L216.731 57.7691C215.513 60.3725 214.093 63.3619 213.575 64.4124C213.058 65.4629 212.635 66.5556 212.635 66.8407C212.635 67.1532 213.544 67.6615 214.928 68.1221C216.189 68.5415 217.579 69.1358 218.017 69.4424C219.066 70.1772 219.5 71.9636 219.095 73.8763L218.768 75.4187L219.527 76.4852C219.945 77.0718 220.395 78.34 220.526 79.3031C220.659 80.2666 221.089 81.6011 221.483 82.2682L222.199 83.4814L221.727 89.4475L222.443 90.6112C222.931 91.4043 223.639 91.9184 224.666 92.2261L226.173 92.6776L229.508 91.9192C237.551 90.0902 249.913 84.3589 253.454 80.8179C255.541 78.7304 257.143 75.588 258.451 71.0165C259.541 67.2049 260.313 66.5524 260.769 69.0568C261.322 72.0866 260.05 78.2235 258.325 80.8455C256.157 84.1434 254.241 85.5689 246.771 89.4424C243.416 91.1818 240.672 92.6696 240.672 92.7486C240.672 92.8272 241.329 93.7554 242.131 94.811C244.834 98.3651 246.118 103.143 246.127 109.689L246.134 113.909L245.41 116.74C244.558 120.07 243.301 122.522 242.353 122.704L241.676 122.835L241.894 121.434C242.264 119.046 242.613 109.292 242.328 109.292C242.18 109.292 241.295 109.966 240.363 110.79C238.113 112.78 231.312 117.249 228.026 118.897C224.405 120.713 220.636 122.183 214.637 124.118C208.897 125.969 206.434 127.112 203.531 129.27C197.748 133.568 193.729 141.359 192.264 151.111C192.043 152.583 191.624 157.908 191.334 162.945C191.044 167.982 190.568 173.086 190.276 174.287C189.984 175.489 188.816 178.766 187.681 181.57C186.545 184.374 185.068 188.272 184.397 190.233C181.846 197.697 179.776 209.13 179.116 219.392C178.922 222.421 178.631 225.474 178.471 226.175L178.18 227.449L177.474 227.327C176.413 227.145 176.347 227.012 175.327 222.971C174.119 218.185 172.925 215.203 169.364 208.075C165.836 201.012 164.085 196.619 162.841 191.708C162.317 189.637 161.77 187.942 161.625 187.942C161.302 187.942 158.361 192.923 157.217 195.406L156.378 197.227L156.465 209.243L157.219 212.726C158.51 218.693 160.385 222.842 166.263 232.742C167.635 235.052 169.155 237.797 169.64 238.841C170.124 239.885 170.716 240.739 170.954 240.739C171.191 240.739 172.695 239.142 174.295 237.189C175.895 235.237 179.4 231.277 182.084 228.39C191.458 218.307 194.033 215.005 196.732 209.607C200.717 201.637 201.191 197.002 199.882 178.839C199.218 169.625 199.993 162.39 202.362 155.665C204.268 150.258 207.681 144.612 209.043 144.612C209.513 144.612 209.498 144.675 207.56 150.592C205.425 157.112 204.33 162.235 203.872 167.844C203.542 171.884 203.605 173.371 204.68 186.941L205.135 192.676L204.716 196.772C203.942 204.336 201.955 209.78 197.497 216.549C195.001 220.339 193.299 222.411 187.428 228.801C181.255 235.521 178.639 238.52 175.346 242.654L172.517 246.206L172.95 248.777C173.188 250.19 173.27 251.459 173.13 251.596C172.991 251.733 172.36 251.23 171.728 250.48C171.096 249.728 170.466 249.114 170.328 249.114C169.957 249.114 166.15 255.375 164.352 258.942C161.131 265.333 158.829 272.532 157.99 278.839C157.431 283.033 157.757 293.552 158.556 297.123C159.801 302.692 163.278 311.501 165.116 313.745L165.713 314.474L165.483 312.835C164.883 308.561 164.626 300.685 164.948 296.45C166.047 281.972 171.747 268.026 181.689 255.486C186.706 249.158 195.777 240.793 203.896 235.007C209.807 230.794 223.286 223.417 234.118 218.465C237.622 216.863 240.774 215.298 241.121 214.987C241.822 214.358 245.439 205.344 249.342 194.496C252.432 185.908 255.064 178.199 265.5 147.16C272.362 126.754 279.428 106.788 283.575 96.0872L284.671 93.2595L283.296 90.0792C281.303 85.4695 280.687 82.7491 280.465 77.587L280.269 73.0086L280.881 69.9405C281.218 68.2528 282.626 63.5131 284.009 59.4076C285.393 55.3022 286.874 50.6323 287.301 49.0302L288.078 46.1172L288.448 34.4654L287.676 31.2302C286.677 27.0362 285.121 24.1728 282.447 21.6061C281.261 20.4679 279.036 18.2504 277.504 16.6785L274.717 13.8205L271.44 12.2388C269.637 11.3689 266.852 10.3071 265.25 9.87929L262.337 9.10153L257.421 8.96208C254.319 8.87432 251.431 9.00467 249.593 9.31563ZM91.0873 12.2639C82.9951 13.6894 75.0992 17.7534 70.0066 23.115C61.7174 31.8412 58.2845 40.1125 55.4913 58.0895L54.183 66.5079L54.3039 69.4937C54.3702 71.1363 54.6029 72.6579 54.8206 72.876L55.2171 73.2722L58.4618 71.0449C66.1014 65.8012 74.5483 61.2992 88.4696 55.0509C110.712 45.0686 117.497 40.1424 122.364 30.444L123.834 27.5147L124.25 22.0125L122.918 20.5382C119.998 17.3062 113.667 14.1519 107.352 12.7831C102.796 11.7957 95.1345 11.5513 91.0873 12.2639ZM128.887 26.0579C128.887 26.1402 129.687 27.9837 130.664 30.1542C132.837 34.9803 133.891 39.0628 134.293 44.2118C134.461 46.3652 134.702 48.2302 134.828 48.3558C135.43 48.9588 136.866 43.154 136.885 40.0361C136.914 35.3724 134.919 30.4998 131.778 27.562C130.303 26.1824 128.887 25.4458 128.887 26.0579ZM126.847 33.4641C123.685 43.6991 119.188 49.2046 104.127 61.2745C93.2116 70.0221 89.2689 75.7074 86.4626 86.745C85.2767 91.409 83.2281 97.2258 81.7374 100.161C79.6193 104.332 77.1834 107.322 72.7033 111.248C71.3615 112.424 70.2637 113.598 70.2637 113.857C70.2637 114.817 74.8461 120.519 78.5925 124.221C83.4725 129.043 88.7067 132.963 102.67 142.255C108.778 146.319 115.087 150.703 116.689 151.997C128.367 161.425 134.123 173.65 132.565 185.72C131.958 190.432 131.199 192.997 128.114 200.777C123.915 211.362 123.002 215.427 123.016 223.47C123.029 231.588 124.382 238.914 127.604 248.322C129.636 254.255 131.283 257.772 133.258 260.402C135.166 262.942 141.57 273.241 144.352 278.244C150.335 289.002 152.996 293.537 153.326 293.537C153.561 293.537 153.605 292.338 153.449 290.169C153.18 286.427 153.753 278.438 154.592 274.238C156.117 266.609 160.466 256.329 165.269 249.003C166.687 246.838 167.848 244.886 167.848 244.663C167.848 244.139 163.659 236.181 161.693 232.968C159.563 229.488 156.026 222.727 155.113 220.391C152.752 214.346 151.614 206.292 152.163 199.51L152.479 195.603L153.56 193.32C154.155 192.064 155.699 189.303 156.992 187.183C161.041 180.546 161.971 175.724 160.216 170.464C158.669 165.826 155.646 162.066 148.37 155.725C142.171 150.325 138.52 145.996 136.078 141.153C134.945 138.907 134.305 136.671 134.721 136.414C134.892 136.308 136.301 137.823 137.851 139.779C139.402 141.736 141.665 144.418 142.88 145.739C145.381 148.455 150.945 153.351 151.532 153.351C152.418 153.351 150.734 140.651 149.292 136.461C148.206 133.306 146.605 130.744 144.434 128.691C141.055 125.495 138.984 124.778 129.029 123.352C125.576 122.857 121.556 122.037 119.944 121.498C110.416 118.312 105.209 112.083 105.225 103.889C105.235 98.4267 107.308 92.9751 110.069 91.1476L111.494 90.2049L113.752 90.061C115.161 89.9715 117.424 90.2056 119.769 90.6837C121.835 91.1053 124.494 91.4502 125.677 91.4502H127.828L129.615 89.6627V82.8129L131.417 80.1581L131.199 79.0723C131.059 78.3677 131.19 77.6697 131.573 77.0845C131.901 76.5839 132.164 75.4402 132.164 74.5135C132.164 72.1183 132.907 70.9673 135.239 69.7486C136.351 69.1678 137.26 68.4469 137.26 68.1465C137.259 67.8461 136.195 65.9618 134.895 63.9591C133.594 61.9564 132.186 59.4167 131.765 58.3152L131 56.3126L130.395 40.6554L129.648 38.1066C128.301 33.5165 127.329 31.9042 126.847 33.4641ZM115.299 44.5686C110.105 48.7079 101.735 53.317 90.2902 58.3411C75.543 64.8152 56.4271 75.8738 56.4271 77.9315C56.4271 79.0504 63.8905 100.839 65.7974 105.287C66.8122 107.654 67.8299 109.52 68.1387 109.58C68.8953 109.727 74.2089 104.415 76.1187 101.603C78.4662 98.1456 80.2092 93.8504 82.3066 86.3525C86.2369 72.3018 89.3319 67.9393 102.915 57.303C106.554 54.4538 110.85 50.8814 112.463 49.3648C115.31 46.6867 118.225 43.1628 117.88 42.8176C117.786 42.724 116.625 43.512 115.299 44.5686ZM48.1328 84.167C39.5425 91.7895 32.8747 101.314 29.7783 110.384C28.1321 115.206 27.6063 118.158 27.3936 123.775C27.15 130.201 27.6678 134.347 29.3817 139.696C30.5822 143.442 34.5122 151.948 35.2539 152.407C35.4392 152.521 35.6967 151.2 35.8343 149.432C36.8142 136.83 40.7747 126.896 46.8296 121.854C49.3854 119.726 51.2825 118.584 56.9733 115.749C59.777 114.353 62.5057 112.902 63.0373 112.525L64.0033 111.841L61.618 105.96C60.3057 102.726 57.806 95.8028 56.0626 90.5763C54.0476 84.5344 52.7033 81.0352 52.3719 80.9701C52.0853 80.9136 50.1777 82.3523 48.1328 84.167ZM285.681 102.652C281.681 113.075 276.803 126.95 268.881 150.438C256.005 188.609 256.588 186.921 251.234 201.596C250.065 204.801 248.767 208.289 248.35 209.347C247.932 210.406 247.59 211.348 247.59 211.441C247.59 211.899 248.71 211.423 252.44 209.382C262.989 203.611 269.187 199.153 275.645 192.694C283.357 184.979 287.847 178.272 292.13 168.066C293.369 165.112 294.612 162.618 294.892 162.525L295.4 162.356L295.146 164.863C294.821 168.073 292.486 175.078 290.387 179.137C282.615 194.17 271.012 204.602 249.947 215.493L244.761 218.175L244.293 219.353C242.476 223.928 233.245 242.081 229.842 247.77C229.146 248.933 228.641 249.949 228.72 250.028C228.798 250.106 230.659 249.618 232.856 248.944C235.052 248.269 239.061 247.116 241.764 246.382C244.468 245.648 248.482 244.557 250.685 243.958C272.91 237.909 284.091 234.088 294.744 228.9C307.376 222.748 316.706 215.614 324.216 206.365C334.631 193.541 341.172 174.724 341.167 157.61C341.163 143.4 336.482 132.811 326.97 125.498C325.868 124.651 321.443 121.778 317.137 119.116C301.983 109.745 294.671 104.588 290.374 100.24C289.173 99.0246 288.026 98.0265 287.825 98.0222C287.625 98.0182 286.66 100.102 285.681 102.652ZM59.1471 119.058C52.3333 122.53 49.9297 124.13 47.6595 126.702C44.7188 130.034 42.1998 136.247 40.9149 143.337L40.2547 146.978L40.2525 154.443C40.2496 162.551 40.5974 166.023 42.221 174.105C45.8312 192.075 55.5295 208.504 68.4675 218.567C75.6151 224.126 82.2432 228.111 95.0944 234.575C103.445 238.775 107.988 241.216 112.048 243.682C113.443 244.529 114.326 244.889 114.256 244.581C114.193 244.299 111.741 241.23 108.809 237.761C87.4836 212.53 81.0081 203.693 74.9703 191.583C70.642 182.902 67.9235 174.85 66.8264 167.461C65.9528 161.578 66.12 156.387 67.13 158.022C67.2327 158.188 67.7443 159.949 68.2668 161.936C72.5161 178.095 78.9031 192.185 87.4068 204.159C90.7235 208.83 101.771 222.703 107.983 229.998C110.882 233.402 115.829 239.329 118.975 243.169C122.121 247.009 124.744 250.101 124.805 250.04C124.866 249.98 124.098 247.494 123.1 244.516C122.102 241.537 120.829 237.135 120.271 234.731L119.256 230.362L119.238 215.069L120.26 211.149C121.267 207.285 122.679 203.27 125.795 195.406C126.668 193.203 127.671 190.336 128.024 189.034L128.666 186.668L128.705 176.836L127.664 173.741C124.109 163.179 118.179 157.022 100.668 145.711C82.6849 134.096 74.9579 127.688 68.6022 119.119C67.267 117.319 65.9885 115.858 65.7613 115.872C65.5341 115.886 62.5574 117.32 59.1471 119.058ZM232.661 223.748C222.915 228.242 213.33 233.554 204.33 239.448L199.708 242.475L194.228 247.921C184.769 257.322 180.56 262.856 176.019 271.865C169.087 285.616 167.099 299.005 169.725 314.254C170.259 317.358 170.617 316.514 170.867 311.561C171.119 306.563 172.241 300.986 173.904 296.465C180.821 277.656 195.269 263.642 217.16 254.511C219.578 253.502 221.752 252.49 221.991 252.261C223.392 250.923 238.487 223.058 238.487 221.809C238.487 221.164 237.685 221.43 232.661 223.748ZM212.409 261.276C199.794 267.611 191.527 274.547 184.672 284.549C179.1 292.679 175.812 301.925 174.743 312.471C174.19 317.934 174.785 328.86 175.636 328.853C175.858 328.85 178.15 325.31 180.728 320.984C183.306 316.659 187.248 310.147 189.488 306.514C198.479 291.928 218.191 258.919 218.015 258.743C217.912 258.639 215.389 259.779 212.409 261.276Z" fill="#FF4D00"/>
</g>
<path fill-rule="evenodd" clip-rule="evenodd" d="M249.593 5.54735C248.191 5.73888 244.586 6.29781 241.582 6.78974C228.424 8.94387 223.735 8.8765 215.321 6.41177L214.548 6.18529L213.727 7.33846C213.275 7.97276 212.517 9.64078 212.042 11.0448L211.178 13.5984V16.6013C211.178 21.4525 212.546 24.7303 215.582 27.1517C216.564 27.9353 217.368 28.7818 217.368 29.0327C217.368 29.2836 216.717 31.7556 215.92 34.5262C215.124 37.2964 214.276 40.7337 214.035 42.1643L213.598 44.7656L214.418 47.5271C214.91 49.1838 215.136 50.6196 214.985 51.1159C214.645 52.2286 213.737 54.2415 210.767 60.4588L208.265 65.6974V69.1118L209.084 69.8582C210.133 70.8129 211.248 71.3842 213.132 71.9311L214.637 72.3684L214.669 77.1016L215.472 78.4019C215.914 79.117 216.276 80.2564 216.278 80.9336C216.279 81.6109 216.682 82.8205 217.173 83.6216L218.067 85.0781L217.852 87.4791C217.72 88.9658 217.806 90.3906 218.081 91.2204C219.072 94.2248 221.841 96.1633 225.55 96.4502L227.745 96.6203L235.182 94.7218L238.212 95.9343L239.274 97.6063C239.859 98.5261 240.585 100.129 240.888 101.167L241.438 103.056L240.706 104.491C239.459 106.935 234.784 110.586 228.269 114.205C224.282 116.42 220.762 117.861 213.245 120.356C209.876 121.474 206.01 122.972 204.655 123.684C195.587 128.449 189.625 138.411 187.882 151.712C187.673 153.314 187.346 158.312 187.158 162.818C186.949 167.828 186.596 171.903 186.251 173.309C185.941 174.573 184.537 178.56 183.13 182.168C181.724 185.777 180.092 190.444 179.503 192.54C178.558 195.907 177.097 203.802 176.396 209.334C176.263 210.386 176.018 211.246 175.852 211.246C175.376 211.246 170.975 202.71 169.375 198.683C166.291 190.924 164.433 182.934 164.963 179.707C166.056 173.057 164.517 167.481 159.942 161.503C158.783 159.989 157.604 158.428 157.323 158.035C157.019 157.61 156.397 154.053 155.787 149.248C154.639 140.204 153.607 136.024 151.413 131.54L149.916 128.481L147.586 126.185C145.032 123.669 141.484 121.698 137.838 120.771C136.653 120.47 133.294 119.89 130.374 119.483C127.453 119.076 123.842 118.41 122.349 118.003C116.775 116.485 112.127 113.178 110.272 109.413L109.407 107.653L109.448 99.6428L110.269 97.5575C111.221 95.1438 112.47 93.999 114.153 93.999C114.807 93.999 117.259 94.3267 119.602 94.7272C128.008 96.1644 131.194 95.4245 132.936 91.6322L133.604 90.1757L133.621 84.2235L134.584 83.0783C135.78 81.6564 136.281 79.6749 136.321 76.2026L136.351 73.5169L138.354 72.6379C140.827 71.5528 141.613 70.5963 141.623 68.6573L141.631 67.1652L139.583 63.9238C135.702 57.7833 135.443 57.3256 135.217 56.1928L134.99 55.056L136.104 53.3177C139.842 47.487 141.43 39.6778 139.997 34.1752C138.607 28.8397 134.619 23.8772 129.752 21.4263C127.953 20.5196 126.696 19.5598 125.605 18.2566C123.815 16.1181 119.817 13.2987 116.014 11.4931C112.596 9.86946 107.242 8.53568 102.147 8.0383L98.0449 7.63776L94.2584 8.02665C76.9875 9.80174 63.6505 19.5605 57.1131 35.2067C55.0984 40.0284 53.4122 46.2024 52.0187 53.8591C51.3535 57.5164 50.6613 60.4592 50.4807 60.3991C50.3004 60.339 49.1418 58.0021 47.906 55.206C37.423 31.4847 26.1083 16.184 14.5533 10.1032C10.442 7.93998 5.87306 6.72419 5.3054 7.6425C5.20199 7.80999 6.54414 8.73814 8.28791 9.70561C18.2739 15.2464 25.92 23.4872 34.7241 38.198C37.8155 43.3638 41.8062 51.6092 45.0778 59.5897C48.1532 67.092 50.9653 74.8051 50.9653 75.738C50.9653 76.1498 49.8394 77.3507 48.1434 78.7478C40.0344 85.4283 32.8278 94.2451 28.6557 102.589C26.6752 106.551 24.8674 112.338 24.0026 117.485L23.2074 122.218L23.6141 133.142L24.5094 136.965C25.6717 141.93 26.9214 145.006 31.4623 154.079C35.7058 162.558 36.4227 164.526 37.4969 170.646C39.2177 180.453 41.9657 188.962 46.022 197.043C50.122 205.211 54.2387 210.848 60.6138 217.024C68.6779 224.836 75.3956 229.22 93.1632 238.267C110.166 246.924 117.061 251.521 125.274 259.674L130.226 264.589L134.778 271.507C139.18 278.195 141.409 281.863 147.171 291.898C161.556 316.949 172.339 334.97 173.847 336.478L174.733 337.363L175.601 336.967C176.17 336.708 178.199 333.709 181.495 328.254C187.038 319.08 213.129 275.715 220.019 264.225C222.42 260.22 224.62 256.672 224.906 256.341C225.756 255.359 232.821 253.035 244.677 249.836C273.432 242.079 286.243 237.79 297.616 232.111C319.236 221.318 333.947 205.035 340.481 184.665C342.118 179.561 343.589 173.648 344.482 168.579L345.272 164.092L345.312 158.266C345.413 143.66 340.19 131.101 330.911 123.636C329.421 122.437 325.672 119.919 322.578 118.039C314.821 113.323 303.807 106.08 299.668 102.971C295.718 100.003 291.419 95.8047 290.407 93.9254L289.716 92.6415L292.193 86.493C300.03 67.0436 310.148 46.6066 318.309 33.7441C325.413 22.5478 333.904 13.9389 342.292 9.42887C343.872 8.57938 345.166 7.76193 345.169 7.61155C345.178 7.14438 342.85 7.31115 340.78 7.92542C331.657 10.6337 322.363 19.5583 312.802 34.7913C307.747 42.8442 298.724 60.3634 294.028 71.2415C288.296 84.5213 287.111 87.0858 286.755 86.9729C286.235 86.8076 285.205 83.6605 284.746 80.8299C283.846 75.2832 284.421 71.2644 287.33 62.7895C291.384 50.98 292.38 46.2713 292.363 39.0169C292.35 33.98 291.773 30.0927 290.561 26.8902C289.431 23.9048 286.502 19.6847 284.277 17.8339C283.235 16.968 281.891 15.6859 281.29 14.985C277.437 10.4899 273.672 8.27644 266.911 6.53085L262.701 5.44431L257.421 5.3216C254.517 5.25424 250.995 5.35582 249.593 5.54735ZM249.593 9.31563C247.991 9.58653 243.73 10.3239 240.126 10.9542C236.521 11.5841 231.523 12.1951 229.02 12.3116L224.468 12.5235L221.009 11.898C219.107 11.5539 217.311 11.2477 217.02 11.2171C216.18 11.1297 215.442 13.1072 215.261 15.9291C214.98 20.3037 216.327 23.1067 219.864 25.5088C221.045 26.3102 222.09 27.1786 222.187 27.4386C222.284 27.6986 221.749 29.7956 220.998 32.0986C220.247 34.4017 219.254 37.9649 218.791 40.0175L217.95 43.7486L218.478 46.0255C218.769 47.2773 218.993 49.367 218.976 50.6687L218.945 53.0355L216.731 57.7691C215.513 60.3725 214.093 63.3619 213.575 64.4124C213.058 65.4629 212.635 66.5556 212.635 66.8407C212.635 67.1532 213.544 67.6615 214.928 68.1221C216.189 68.5415 217.579 69.1358 218.017 69.4424C219.066 70.1772 219.5 71.9636 219.095 73.8763L218.768 75.4187L219.527 76.4852C219.945 77.0718 220.395 78.34 220.526 79.3031C220.659 80.2666 221.089 81.6011 221.483 82.2682L222.199 83.4814L221.727 89.4475L222.443 90.6112C222.931 91.4043 223.639 91.9184 224.666 92.2261L226.173 92.6776L229.508 91.9192C237.551 90.0902 249.913 84.3589 253.454 80.8179C255.541 78.7304 257.143 75.588 258.451 71.0165C259.541 67.2049 260.313 66.5524 260.769 69.0568C261.322 72.0866 260.05 78.2235 258.325 80.8455C256.157 84.1434 254.241 85.5689 246.771 89.4424C243.416 91.1818 240.672 92.6696 240.672 92.7486C240.672 92.8272 241.329 93.7554 242.131 94.811C244.834 98.3651 246.118 103.143 246.127 109.689L246.134 113.909L245.41 116.74C244.558 120.07 243.301 122.522 242.353 122.704L241.676 122.835L241.894 121.434C242.264 119.046 242.613 109.292 242.328 109.292C242.18 109.292 241.295 109.966 240.363 110.79C238.113 112.78 231.312 117.249 228.026 118.897C224.405 120.713 220.636 122.183 214.637 124.118C208.897 125.969 206.434 127.112 203.531 129.27C197.748 133.568 193.729 141.359 192.264 151.111C192.043 152.583 191.624 157.908 191.334 162.945C191.044 167.982 190.568 173.086 190.276 174.287C189.984 175.489 188.816 178.766 187.681 181.57C186.545 184.374 185.068 188.272 184.397 190.233C181.846 197.697 179.776 209.13 179.116 219.392C178.922 222.421 178.631 225.474 178.471 226.175L178.18 227.449L177.474 227.327C176.413 227.145 176.347 227.012 175.327 222.971C174.119 218.185 172.925 215.203 169.364 208.075C165.836 201.012 164.085 196.619 162.841 191.708C162.317 189.637 161.77 187.942 161.625 187.942C161.302 187.942 158.361 192.923 157.217 195.406L156.378 197.227L156.465 209.243L157.219 212.726C158.51 218.693 160.385 222.842 166.263 232.742C167.635 235.052 169.155 237.797 169.64 238.841C170.124 239.885 170.716 240.739 170.954 240.739C171.191 240.739 172.695 239.142 174.295 237.189C175.895 235.237 179.4 231.277 182.084 228.39C191.458 218.307 194.033 215.005 196.732 209.607C200.717 201.637 201.191 197.002 199.882 178.839C199.218 169.625 199.993 162.39 202.362 155.665C204.268 150.258 207.681 144.612 209.043 144.612C209.513 144.612 209.498 144.675 207.56 150.592C205.425 157.112 204.33 162.235 203.872 167.844C203.542 171.884 203.605 173.371 204.68 186.941L205.135 192.676L204.716 196.772C203.942 204.336 201.955 209.78 197.497 216.549C195.001 220.339 193.299 222.411 187.428 228.801C181.255 235.521 178.639 238.52 175.346 242.654L172.517 246.206L172.95 248.777C173.188 250.19 173.27 251.459 173.13 251.596C172.991 251.733 172.36 251.23 171.728 250.48C171.096 249.728 170.466 249.114 170.328 249.114C169.957 249.114 166.15 255.375 164.352 258.942C161.131 265.333 158.829 272.532 157.99 278.839C157.431 283.033 157.757 293.552 158.556 297.123C159.801 302.692 163.278 311.501 165.116 313.745L165.713 314.474L165.483 312.835C164.883 308.561 164.626 300.685 164.948 296.45C166.047 281.972 171.747 268.026 181.689 255.486C186.706 249.158 195.777 240.793 203.896 235.007C209.807 230.794 223.286 223.417 234.118 218.465C237.622 216.863 240.774 215.298 241.121 214.987C241.822 214.358 245.439 205.344 249.342 194.496C252.432 185.908 255.064 178.199 265.5 147.16C272.362 126.754 279.428 106.788 283.575 96.0872L284.671 93.2595L283.296 90.0792C281.303 85.4695 280.687 82.7491 280.465 77.587L280.269 73.0086L280.881 69.9405C281.218 68.2528 282.626 63.5131 284.009 59.4076C285.393 55.3022 286.874 50.6323 287.301 49.0302L288.078 46.1172L288.448 34.4654L287.676 31.2302C286.677 27.0362 285.121 24.1728 282.447 21.6061C281.261 20.4679 279.036 18.2504 277.504 16.6785L274.717 13.8205L271.44 12.2388C269.637 11.3689 266.852 10.3071 265.25 9.87929L262.337 9.10153L257.421 8.96208C254.319 8.87432 251.431 9.00467 249.593 9.31563ZM91.0873 12.2639C82.9951 13.6894 75.0992 17.7534 70.0066 23.115C61.7174 31.8412 58.2845 40.1125 55.4913 58.0895L54.183 66.5079L54.3039 69.4937C54.3702 71.1363 54.6029 72.6579 54.8206 72.876L55.2171 73.2722L58.4618 71.0449C66.1014 65.8012 74.5483 61.2992 88.4696 55.0509C110.712 45.0686 117.497 40.1424 122.364 30.444L123.834 27.5147L124.25 22.0125L122.918 20.5382C119.998 17.3062 113.667 14.1519 107.352 12.7831C102.796 11.7957 95.1345 11.5513 91.0873 12.2639ZM128.887 26.0579C128.887 26.1402 129.687 27.9837 130.664 30.1542C132.837 34.9803 133.891 39.0628 134.293 44.2118C134.461 46.3652 134.702 48.2302 134.828 48.3558C135.43 48.9588 136.866 43.154 136.885 40.0361C136.914 35.3724 134.919 30.4998 131.778 27.562C130.303 26.1824 128.887 25.4458 128.887 26.0579ZM126.847 33.4641C123.685 43.6991 119.188 49.2046 104.127 61.2745C93.2116 70.0221 89.2689 75.7074 86.4626 86.745C85.2767 91.409 83.2281 97.2258 81.7374 100.161C79.6193 104.332 77.1834 107.322 72.7033 111.248C71.3615 112.424 70.2637 113.598 70.2637 113.857C70.2637 114.817 74.8461 120.519 78.5925 124.221C83.4725 129.043 88.7067 132.963 102.67 142.255C108.778 146.319 115.087 150.703 116.689 151.997C128.367 161.425 134.123 173.65 132.565 185.72C131.958 190.432 131.199 192.997 128.114 200.777C123.915 211.362 123.002 215.427 123.016 223.47C123.029 231.588 124.382 238.914 127.604 248.322C129.636 254.255 131.283 257.772 133.258 260.402C135.166 262.942 141.57 273.241 144.352 278.244C150.335 289.002 152.996 293.537 153.326 293.537C153.561 293.537 153.605 292.338 153.449 290.169C153.18 286.427 153.753 278.438 154.592 274.238C156.117 266.609 160.466 256.329 165.269 249.003C166.687 246.838 167.848 244.886 167.848 244.663C167.848 244.139 163.659 236.181 161.693 232.968C159.563 229.488 156.026 222.727 155.113 220.391C152.752 214.346 151.614 206.292 152.163 199.51L152.479 195.603L153.56 193.32C154.155 192.064 155.699 189.303 156.992 187.183C161.041 180.546 161.971 175.724 160.216 170.464C158.669 165.826 155.646 162.066 148.37 155.725C142.171 150.325 138.52 145.996 136.078 141.153C134.945 138.907 134.305 136.671 134.721 136.414C134.892 136.308 136.301 137.823 137.851 139.779C139.402 141.736 141.665 144.418 142.88 145.739C145.381 148.455 150.945 153.351 151.532 153.351C152.418 153.351 150.734 140.651 149.292 136.461C148.206 133.306 146.605 130.744 144.434 128.691C141.055 125.495 138.984 124.778 129.029 123.352C125.576 122.857 121.556 122.037 119.944 121.498C110.416 118.312 105.209 112.083 105.225 103.889C105.235 98.4267 107.308 92.9751 110.069 91.1476L111.494 90.2049L113.752 90.061C115.161 89.9715 117.424 90.2056 119.769 90.6837C121.835 91.1053 124.494 91.4502 125.677 91.4502H127.828L129.615 89.6627V82.8129L131.417 80.1581L131.199 79.0723C131.059 78.3677 131.19 77.6697 131.573 77.0845C131.901 76.5839 132.164 75.4402 132.164 74.5135C132.164 72.1183 132.907 70.9673 135.239 69.7486C136.351 69.1678 137.26 68.4469 137.26 68.1465C137.259 67.8461 136.195 65.9618 134.895 63.9591C133.594 61.9564 132.186 59.4167 131.765 58.3152L131 56.3126L130.395 40.6554L129.648 38.1066C128.301 33.5165 127.329 31.9042 126.847 33.4641ZM115.299 44.5686C110.105 48.7079 101.735 53.317 90.2902 58.3411C75.543 64.8152 56.4271 75.8738 56.4271 77.9315C56.4271 79.0504 63.8905 100.839 65.7974 105.287C66.8122 107.654 67.8299 109.52 68.1387 109.58C68.8953 109.727 74.2089 104.415 76.1187 101.603C78.4662 98.1456 80.2092 93.8504 82.3066 86.3525C86.2369 72.3018 89.3319 67.9393 102.915 57.303C106.554 54.4538 110.85 50.8814 112.463 49.3648C115.31 46.6867 118.225 43.1628 117.88 42.8176C117.786 42.724 116.625 43.512 115.299 44.5686ZM48.1328 84.167C39.5425 91.7895 32.8747 101.314 29.7783 110.384C28.1321 115.206 27.6063 118.158 27.3936 123.775C27.15 130.201 27.6678 134.347 29.3817 139.696C30.5822 143.442 34.5122 151.948 35.2539 152.407C35.4392 152.521 35.6967 151.2 35.8343 149.432C36.8142 136.83 40.7747 126.896 46.8296 121.854C49.3854 119.726 51.2825 118.584 56.9733 115.749C59.777 114.353 62.5057 112.902 63.0373 112.525L64.0033 111.841L61.618 105.96C60.3057 102.726 57.806 95.8028 56.0626 90.5763C54.0476 84.5344 52.7033 81.0352 52.3719 80.9701C52.0853 80.9136 50.1777 82.3523 48.1328 84.167ZM285.681 102.652C281.681 113.075 276.803 126.95 268.881 150.438C256.005 188.609 256.588 186.921 251.234 201.596C250.065 204.801 248.767 208.289 248.35 209.347C247.932 210.406 247.59 211.348 247.59 211.441C247.59 211.899 248.71 211.423 252.44 209.382C262.989 203.611 269.187 199.153 275.645 192.694C283.357 184.979 287.847 178.272 292.13 168.066C293.369 165.112 294.612 162.618 294.892 162.525L295.4 162.356L295.146 164.863C294.821 168.073 292.486 175.078 290.387 179.137C282.615 194.17 271.012 204.602 249.947 215.493L244.761 218.175L244.293 219.353C242.476 223.928 233.245 242.081 229.842 247.77C229.146 248.933 228.641 249.949 228.72 250.028C228.798 250.106 230.659 249.618 232.856 248.944C235.052 248.269 239.061 247.116 241.764 246.382C244.468 245.648 248.482 244.557 250.685 243.958C272.91 237.909 284.091 234.088 294.744 228.9C307.376 222.748 316.706 215.614 324.216 206.365C334.631 193.541 341.172 174.724 341.167 157.61C341.163 143.4 336.482 132.811 326.97 125.498C325.868 124.651 321.443 121.778 317.137 119.116C301.983 109.745 294.671 104.588 290.374 100.24C289.173 99.0246 288.026 98.0265 287.825 98.0222C287.625 98.0182 286.66 100.102 285.681 102.652ZM59.1471 119.058C52.3333 122.53 49.9297 124.13 47.6595 126.702C44.7188 130.034 42.1998 136.247 40.9149 143.337L40.2547 146.978L40.2525 154.443C40.2496 162.551 40.5974 166.023 42.221 174.105C45.8312 192.075 55.5295 208.504 68.4675 218.567C75.6151 224.126 82.2432 228.111 95.0944 234.575C103.445 238.775 107.988 241.216 112.048 243.682C113.443 244.529 114.326 244.889 114.256 244.581C114.193 244.299 111.741 241.23 108.809 237.761C87.4836 212.53 81.0081 203.693 74.9703 191.583C70.642 182.902 67.9235 174.85 66.8264 167.461C65.9528 161.578 66.12 156.387 67.13 158.022C67.2327 158.188 67.7443 159.949 68.2668 161.936C72.5161 178.095 78.9031 192.185 87.4068 204.159C90.7235 208.83 101.771 222.703 107.983 229.998C110.882 233.402 115.829 239.329 118.975 243.169C122.121 247.009 124.744 250.101 124.805 250.04C124.866 249.98 124.098 247.494 123.1 244.516C122.102 241.537 120.829 237.135 120.271 234.731L119.256 230.362L119.238 215.069L120.26 211.149C121.267 207.285 122.679 203.27 125.795 195.406C126.668 193.203 127.671 190.336 128.024 189.034L128.666 186.668L128.705 176.836L127.664 173.741C124.109 163.179 118.179 157.022 100.668 145.711C82.6849 134.096 74.9579 127.688 68.6022 119.119C67.267 117.319 65.9885 115.858 65.7613 115.872C65.5341 115.886 62.5574 117.32 59.1471 119.058ZM232.661 223.748C222.915 228.242 213.33 233.554 204.33 239.448L199.708 242.475L194.228 247.921C184.769 257.322 180.56 262.856 176.019 271.865C169.087 285.616 167.099 299.005 169.725 314.254C170.259 317.358 170.617 316.514 170.867 311.561C171.119 306.563 172.241 300.986 173.904 296.465C180.821 277.656 195.269 263.642 217.16 254.511C219.578 253.502 221.752 252.49 221.991 252.261C223.392 250.923 238.487 223.058 238.487 221.809C238.487 221.164 237.685 221.43 232.661 223.748ZM212.409 261.276C199.794 267.611 191.527 274.547 184.672 284.549C179.1 292.679 175.812 301.925 174.743 312.471C174.19 317.934 174.785 328.86 175.636 328.853C175.858 328.85 178.15 325.31 180.728 320.984C183.306 316.659 187.248 310.147 189.488 306.514C198.479 291.928 218.191 258.919 218.015 258.743C217.912 258.639 215.389 259.779 212.409 261.276Z" fill="#FF4D00"/>
<path d="M439.577 223.717C439.577 222.637 439.445 221.732 439.183 221.003C438.92 220.244 438.497 219.689 437.913 219.339H455.207L455.469 222.229C455.469 222.287 455.44 222.331 455.382 222.36C455.324 222.36 455.28 222.316 455.251 222.229C455.163 221.732 455.002 221.338 454.769 221.046C454.535 220.725 454.244 220.492 453.893 220.346C453.572 220.171 453.207 220.054 452.799 219.996C452.419 219.937 452.011 219.908 451.573 219.908H443.955C443.634 219.908 443.371 219.952 443.167 220.039C442.962 220.127 442.86 220.419 442.86 220.915V231.992H448.421C449.209 231.992 449.836 231.919 450.303 231.773C450.77 231.598 451.12 231.379 451.354 231.116C451.617 230.854 451.792 230.576 451.879 230.284C451.967 229.963 452.011 229.642 452.011 229.321C452.011 229.263 452.04 229.234 452.098 229.234C452.186 229.234 452.23 229.263 452.23 229.321V235.232C452.23 235.29 452.186 235.319 452.098 235.319C452.04 235.319 452.011 235.29 452.011 235.232C452.011 234.94 451.967 234.633 451.879 234.312C451.792 233.991 451.617 233.699 451.354 233.437C451.12 233.174 450.77 232.97 450.303 232.824C449.836 232.649 449.209 232.561 448.421 232.561H442.86V245.608C442.86 246.688 442.992 247.608 443.254 248.366C443.517 249.096 443.94 249.636 444.524 249.986H437.913C438.497 249.636 438.92 249.096 439.183 248.366C439.445 247.608 439.577 246.688 439.577 245.608V223.717ZM455.923 239.654C455.923 238.019 456.157 236.545 456.624 235.232C457.12 233.889 457.806 232.751 458.682 231.817C459.557 230.854 460.608 230.109 461.834 229.584C463.06 229.059 464.432 228.796 465.949 228.796C467.467 228.796 468.839 229.059 470.065 229.584C471.291 230.109 472.342 230.854 473.217 231.817C474.093 232.751 474.764 233.889 475.231 235.232C475.698 236.545 475.932 238.019 475.932 239.654C475.932 241.288 475.698 242.777 475.231 244.12C474.764 245.462 474.093 246.615 473.217 247.578C472.342 248.512 471.291 249.242 470.065 249.767C468.839 250.293 467.467 250.555 465.949 250.555C464.432 250.555 463.06 250.293 461.834 249.767C460.608 249.242 459.557 248.512 458.682 247.578C457.806 246.615 457.12 245.462 456.624 244.12C456.157 242.777 455.923 241.288 455.923 239.654ZM459.47 242.324C460.433 244.66 461.63 246.469 463.06 247.753C464.519 249.009 466.037 249.636 467.613 249.636C468.401 249.636 469.146 249.49 469.846 249.198C470.809 248.819 471.597 248.235 472.21 247.447C472.823 246.659 473.232 245.739 473.436 244.689C473.67 243.609 473.699 242.427 473.524 241.142C473.349 239.829 472.969 238.457 472.385 237.027C471.422 234.692 470.211 232.882 468.751 231.598C467.321 230.314 465.818 229.672 464.242 229.672C463.454 229.672 462.724 229.817 462.053 230.109C461.09 230.518 460.302 231.116 459.689 231.904C459.076 232.692 458.652 233.626 458.419 234.706C458.185 235.757 458.156 236.939 458.331 238.253C458.506 239.537 458.886 240.894 459.47 242.324ZM484.376 245.608C484.376 246.688 484.507 247.608 484.77 248.366C485.033 249.096 485.456 249.636 486.04 249.986H479.429C480.013 249.636 480.436 249.096 480.698 248.366C480.961 247.608 481.092 246.688 481.092 245.608V233.656C481.092 232.605 480.961 231.715 480.698 230.985C480.436 230.255 480.013 229.715 479.429 229.365H482.669C483.34 229.365 483.792 229.555 484.026 229.934C484.259 230.284 484.376 230.839 484.376 231.598V231.861C484.58 231.51 484.843 231.16 485.164 230.81C485.485 230.46 485.865 230.139 486.303 229.847C486.74 229.526 487.237 229.277 487.791 229.102C488.375 228.898 489.002 228.796 489.674 228.796C490.345 228.796 490.987 228.883 491.6 229.059C492.213 229.205 492.753 229.438 493.22 229.759C493.716 230.051 494.11 230.416 494.402 230.854C494.694 231.291 494.84 231.773 494.84 232.298C494.84 233.203 494.388 233.656 493.483 233.656C492.987 233.656 492.651 233.466 492.476 233.087C492.301 232.707 492.213 232.386 492.213 232.123C492.213 231.51 492.023 230.956 491.644 230.46C491.265 229.934 490.52 229.672 489.411 229.672C488.623 229.672 487.908 229.817 487.266 230.109C486.653 230.401 486.127 230.751 485.69 231.16C485.281 231.569 484.96 232.021 484.726 232.517C484.493 233.014 484.376 233.451 484.376 233.831V245.608ZM543.112 222.229C542.879 222.229 542.631 222.535 542.368 223.148L531.817 249.986H531.379L519.339 222.798C519.31 222.944 519.295 223.104 519.295 223.279C519.295 223.425 519.295 223.571 519.295 223.717V245.608C519.295 246.688 519.441 247.608 519.733 248.366C520.025 249.096 520.521 249.636 521.221 249.986H516.712C517.412 249.636 517.909 249.096 518.2 248.366C518.492 247.608 518.638 246.688 518.638 245.608V223.717C518.638 222.637 518.507 221.732 518.244 221.003C517.982 220.244 517.558 219.689 516.975 219.339H521.484L532.955 245.214L543.112 219.339H548.06C547.476 219.689 547.053 220.244 546.79 221.003C546.527 221.732 546.396 222.637 546.396 223.717V245.608C546.396 246.688 546.527 247.608 546.79 248.366C547.053 249.096 547.476 249.636 548.06 249.986H541.449C542.032 249.636 542.456 249.096 542.718 248.366C542.981 247.608 543.112 246.688 543.112 245.608V222.229ZM551.568 239.654C551.568 238.019 551.802 236.545 552.269 235.232C552.765 233.889 553.451 232.751 554.326 231.817C555.202 230.854 556.253 230.109 557.479 229.584C558.705 229.059 560.076 228.796 561.594 228.796C563.112 228.796 564.484 229.059 565.71 229.584C566.936 230.109 567.986 230.854 568.862 231.817C569.738 232.751 570.409 233.889 570.876 235.232C571.343 236.545 571.576 238.019 571.576 239.654C571.576 241.288 571.343 242.777 570.876 244.12C570.409 245.462 569.738 246.615 568.862 247.578C567.986 248.512 566.936 249.242 565.71 249.767C564.484 250.293 563.112 250.555 561.594 250.555C560.076 250.555 558.705 250.293 557.479 249.767C556.253 249.242 555.202 248.512 554.326 247.578C553.451 246.615 552.765 245.462 552.269 244.12C551.802 242.777 551.568 241.288 551.568 239.654ZM555.114 242.324C556.078 244.66 557.274 246.469 558.705 247.753C560.164 249.009 561.682 249.636 563.258 249.636C564.046 249.636 564.79 249.49 565.491 249.198C566.454 248.819 567.242 248.235 567.855 247.447C568.468 246.659 568.877 245.739 569.081 244.689C569.314 243.609 569.344 242.427 569.168 241.142C568.993 239.829 568.614 238.457 568.03 237.027C567.067 234.692 565.856 232.882 564.396 231.598C562.966 230.314 561.463 229.672 559.887 229.672C559.099 229.672 558.369 229.817 557.698 230.109C556.734 230.518 555.946 231.116 555.333 231.904C554.72 232.692 554.297 233.626 554.064 234.706C553.83 235.757 553.801 236.939 553.976 238.253C554.151 239.537 554.531 240.894 555.114 242.324ZM576.737 233.656C576.737 232.605 576.606 231.715 576.343 230.985C576.08 230.255 575.657 229.715 575.074 229.365H578.313C578.985 229.365 579.437 229.555 579.671 229.934C579.904 230.284 580.021 230.839 580.021 231.598V231.992C580.254 231.642 580.561 231.291 580.94 230.941C581.349 230.562 581.831 230.211 582.385 229.89C582.94 229.569 583.553 229.307 584.224 229.102C584.924 228.898 585.683 228.796 586.501 228.796C589.77 228.796 591.871 229.963 592.805 232.298C592.98 231.948 593.258 231.569 593.637 231.16C594.046 230.751 594.527 230.372 595.082 230.022C595.666 229.672 596.322 229.38 597.052 229.146C597.782 228.913 598.584 228.796 599.46 228.796C601.824 228.796 603.546 229.38 604.626 230.547C605.735 231.685 606.29 233.349 606.29 235.538V245.608C606.29 246.688 606.421 247.608 606.684 248.366C606.947 249.096 607.37 249.636 607.954 249.986H601.343C601.926 249.636 602.35 249.096 602.612 248.366C602.875 247.608 603.006 246.688 603.006 245.608V235.538C603.006 234.692 602.963 233.904 602.875 233.174C602.787 232.444 602.598 231.802 602.306 231.248C602.014 230.693 601.605 230.27 601.08 229.978C600.555 229.657 599.854 229.496 598.978 229.496C598.19 229.496 597.461 229.613 596.789 229.847C596.147 230.08 595.563 230.387 595.038 230.766C594.513 231.116 594.075 231.51 593.725 231.948C593.404 232.386 593.185 232.809 593.068 233.218C593.243 233.918 593.331 234.692 593.331 235.538V245.608C593.331 246.688 593.462 247.608 593.725 248.366C593.987 249.096 594.411 249.636 594.994 249.986H588.383C588.967 249.636 589.39 249.096 589.653 248.366C589.916 247.608 590.047 246.688 590.047 245.608V235.538C590.047 234.692 590.003 233.904 589.916 233.174C589.828 232.444 589.638 231.802 589.346 231.248C589.055 230.693 588.646 230.27 588.121 229.978C587.595 229.657 586.895 229.496 586.019 229.496C585.143 229.496 584.341 229.657 583.611 229.978C582.881 230.27 582.239 230.635 581.685 231.073C581.159 231.51 580.751 231.977 580.459 232.474C580.167 232.97 580.021 233.422 580.021 233.831V245.608C580.021 246.688 580.152 247.608 580.415 248.366C580.678 249.096 581.101 249.636 581.685 249.986H575.074C575.657 249.636 576.08 249.096 576.343 248.366C576.606 247.608 576.737 246.688 576.737 245.608V233.656ZM611.469 239.654C611.469 237.727 611.775 236.078 612.388 234.706C613.001 233.335 613.789 232.211 614.753 231.335C615.745 230.46 616.869 229.817 618.124 229.409C619.408 229 620.707 228.796 622.02 228.796C623.451 228.796 624.706 229 625.786 229.409C626.895 229.817 627.8 230.343 628.5 230.985C629.23 231.627 629.77 232.342 630.12 233.13C630.5 233.918 630.689 234.677 630.689 235.407L615.278 242.719C615.541 243.74 615.92 244.674 616.416 245.521C616.942 246.367 617.555 247.097 618.255 247.71C618.985 248.323 619.802 248.804 620.707 249.154C621.612 249.476 622.59 249.636 623.64 249.636C624.195 249.636 624.764 249.549 625.348 249.373C625.961 249.198 626.501 248.936 626.968 248.585C627.464 248.235 627.858 247.797 628.15 247.272C628.471 246.746 628.631 246.134 628.631 245.433C628.631 245.229 628.602 245.054 628.544 244.908C628.486 244.762 628.413 244.63 628.325 244.514C628.267 244.368 628.208 244.236 628.15 244.12C628.091 243.974 628.062 243.798 628.062 243.594C628.062 243.331 628.15 243.054 628.325 242.762C628.5 242.47 628.836 242.324 629.332 242.324C629.741 242.324 630.062 242.456 630.295 242.719C630.558 242.981 630.689 243.317 630.689 243.726C630.689 244.747 630.441 245.681 629.945 246.528C629.449 247.374 628.807 248.104 628.019 248.717C627.26 249.3 626.399 249.753 625.435 250.074C624.472 250.395 623.524 250.555 622.59 250.555C620.663 250.555 618.999 250.249 617.598 249.636C616.197 248.994 615.044 248.162 614.14 247.141C613.235 246.119 612.563 244.966 612.126 243.682C611.688 242.368 611.469 241.026 611.469 239.654ZM627.975 236.02C627.946 235.349 627.814 234.619 627.581 233.831C627.376 233.043 627.041 232.328 626.574 231.685C626.107 231.014 625.494 230.46 624.735 230.022C623.976 229.584 623.057 229.365 621.977 229.365C621.101 229.365 620.24 229.511 619.393 229.803C618.547 230.095 617.788 230.606 617.117 231.335C616.445 232.036 615.891 232.999 615.453 234.225C615.044 235.422 614.84 236.939 614.84 238.778C614.84 240.033 614.942 241.157 615.147 242.149L627.975 236.02ZM635.911 233.656C635.911 232.605 635.78 231.715 635.517 230.985C635.255 230.255 634.831 229.715 634.248 229.365H637.487C638.159 229.365 638.611 229.555 638.845 229.934C639.078 230.284 639.195 230.839 639.195 231.598V232.036C639.428 231.685 639.749 231.321 640.158 230.941C640.596 230.562 641.092 230.211 641.647 229.89C642.23 229.569 642.873 229.307 643.573 229.102C644.303 228.898 645.091 228.796 645.937 228.796C648.389 228.796 650.184 229.38 651.322 230.547C652.461 231.685 653.03 233.349 653.03 235.538V245.608C653.03 246.688 653.161 247.608 653.424 248.366C653.687 249.096 654.11 249.636 654.694 249.986H648.083C648.666 249.636 649.09 249.096 649.352 248.366C649.615 247.608 649.746 246.688 649.746 245.608V235.538C649.746 234.692 649.688 233.904 649.571 233.174C649.484 232.444 649.294 231.802 649.002 231.248C648.71 230.693 648.272 230.27 647.689 229.978C647.134 229.657 646.404 229.496 645.499 229.496C644.565 229.496 643.719 229.657 642.96 229.978C642.201 230.27 641.53 230.635 640.946 231.073C640.392 231.51 639.954 231.977 639.633 232.474C639.341 232.97 639.195 233.422 639.195 233.831V245.608C639.195 246.688 639.326 247.608 639.589 248.366C639.852 249.096 640.275 249.636 640.859 249.986H634.248C634.831 249.636 635.255 249.096 635.517 248.366C635.78 247.608 635.911 246.688 635.911 245.608V233.656ZM662.054 229.365H666.826C667.001 229.365 667.089 229.453 667.089 229.628C667.089 229.832 667.001 229.934 666.826 229.934H662.054V243.857C662.054 245.958 662.302 247.505 662.798 248.498C663.324 249.49 664.199 249.986 665.425 249.986C666.067 249.986 666.651 249.811 667.176 249.461C667.731 249.111 668.008 248.512 668.008 247.666C668.008 247.257 668.096 246.892 668.271 246.571C668.475 246.25 668.825 246.09 669.322 246.09C669.73 246.09 670.051 246.206 670.285 246.44C670.518 246.673 670.635 246.995 670.635 247.403C670.635 247.899 670.489 248.352 670.197 248.76C669.905 249.14 669.511 249.461 669.015 249.724C668.548 249.986 668.008 250.191 667.395 250.337C666.782 250.483 666.169 250.555 665.556 250.555C663.221 250.555 661.499 249.884 660.39 248.542C659.31 247.199 658.77 245.287 658.77 242.806V229.934H657.544C657.398 229.934 657.325 229.847 657.325 229.672V229.628C657.325 229.453 657.398 229.365 657.544 229.365H657.632C657.895 229.365 658.23 229.307 658.639 229.19C659.047 229.044 659.442 228.854 659.821 228.621C660.23 228.387 660.58 228.11 660.872 227.789C661.164 227.468 661.31 227.103 661.31 226.694C661.31 226.519 661.251 226.388 661.134 226.3C661.018 226.184 660.886 226.081 660.74 225.994C660.624 225.877 660.507 225.76 660.39 225.644C660.273 225.527 660.215 225.352 660.215 225.118C660.215 224.826 660.288 224.622 660.434 224.505C660.609 224.359 660.813 224.286 661.047 224.286C661.718 224.286 662.054 224.87 662.054 226.038V229.365ZM685.039 245.652C685.039 244.601 684.732 243.755 684.119 243.113C683.536 242.441 682.791 241.887 681.886 241.449C680.982 240.982 680.004 240.573 678.953 240.223C677.902 239.873 676.924 239.464 676.02 238.997C675.115 238.501 674.356 237.917 673.743 237.246C673.159 236.574 672.867 235.684 672.867 234.575C672.867 233.67 673.057 232.868 673.436 232.167C673.845 231.437 674.385 230.824 675.056 230.328C675.757 229.832 676.56 229.453 677.464 229.19C678.369 228.927 679.332 228.796 680.354 228.796C681.171 228.796 681.945 228.883 682.674 229.059C683.433 229.205 684.105 229.438 684.688 229.759C685.272 230.051 685.739 230.416 686.089 230.854C686.44 231.291 686.615 231.773 686.615 232.298C686.615 233.203 686.162 233.656 685.258 233.656C684.761 233.656 684.426 233.466 684.251 233.087C684.075 232.707 683.988 232.386 683.988 232.123C683.988 231.831 683.93 231.525 683.813 231.204C683.725 230.883 683.536 230.591 683.244 230.328C682.981 230.066 682.616 229.861 682.149 229.715C681.682 229.54 681.084 229.453 680.354 229.453C678.865 229.453 677.683 229.774 676.808 230.416C675.932 231.029 675.494 231.89 675.494 232.999C675.494 233.845 675.801 234.546 676.414 235.1C677.027 235.655 677.785 236.137 678.69 236.545C679.595 236.954 680.588 237.363 681.667 237.771C682.747 238.151 683.74 238.618 684.645 239.172C685.549 239.727 686.308 240.398 686.921 241.186C687.534 241.974 687.841 242.981 687.841 244.207C687.841 245.287 687.607 246.236 687.14 247.053C686.702 247.87 686.104 248.556 685.345 249.111C684.586 249.636 683.696 250.03 682.674 250.293C681.682 250.585 680.631 250.731 679.522 250.731C677.888 250.731 676.501 250.366 675.363 249.636C674.254 248.877 673.422 247.87 672.867 246.615C672.78 246.411 672.809 246.265 672.955 246.177C673.13 246.061 673.276 246.104 673.393 246.309C674.56 248.585 676.603 249.724 679.522 249.724C680.281 249.724 680.996 249.621 681.667 249.417C682.339 249.213 682.923 248.936 683.419 248.585C683.915 248.235 684.309 247.812 684.601 247.316C684.893 246.819 685.039 246.265 685.039 245.652ZM715.344 249.986C715.928 249.636 716.351 249.096 716.614 248.366C716.876 247.608 717.008 246.688 717.008 245.608V220.915C717.008 220.419 716.906 220.127 716.701 220.039C716.497 219.952 716.234 219.908 715.913 219.908H714.556C714.031 219.908 713.491 219.952 712.936 220.039C712.411 220.098 711.929 220.215 711.491 220.39C711.053 220.565 710.689 220.798 710.397 221.09C710.105 221.382 709.93 221.762 709.871 222.229C709.842 222.316 709.798 222.36 709.74 222.36C709.682 222.331 709.652 222.287 709.652 222.229L709.477 219.339H727.822L727.647 222.229C727.647 222.287 727.618 222.331 727.559 222.36C727.501 222.36 727.457 222.316 727.428 222.229C727.369 221.762 727.194 221.382 726.902 221.09C726.611 220.798 726.246 220.565 725.808 220.39C725.37 220.215 724.874 220.098 724.319 220.039C723.794 219.952 723.269 219.908 722.743 219.908H721.386C721.065 219.908 720.802 219.952 720.598 220.039C720.394 220.127 720.291 220.419 720.291 220.915V245.608C720.291 246.688 720.423 247.608 720.685 248.366C720.948 249.096 721.371 249.636 721.955 249.986H715.344ZM745.519 235.538C745.519 234.692 745.461 233.904 745.344 233.174C745.257 232.444 745.067 231.802 744.775 231.248C744.483 230.693 744.045 230.27 743.462 229.978C742.907 229.657 742.177 229.496 741.272 229.496C740.338 229.496 739.492 229.657 738.733 229.978C737.974 230.27 737.303 230.635 736.719 231.073C736.165 231.51 735.727 231.977 735.406 232.474C735.114 232.97 734.968 233.422 734.968 233.831V247.71C734.968 248.469 734.851 249.038 734.618 249.417C734.384 249.797 733.932 249.986 733.26 249.986H730.021C730.604 249.636 731.028 249.096 731.29 248.366C731.553 247.608 731.684 246.688 731.684 245.608V223.717C731.684 222.637 731.553 221.732 731.29 221.003C731.028 220.244 730.604 219.689 730.021 219.339H733.26C733.932 219.339 734.384 219.529 734.618 219.908C734.851 220.288 734.968 220.857 734.968 221.616V232.036C735.201 231.685 735.522 231.321 735.931 230.941C736.369 230.562 736.865 230.211 737.42 229.89C738.003 229.569 738.646 229.307 739.346 229.102C740.076 228.898 740.864 228.796 741.71 228.796C744.162 228.796 745.957 229.38 747.095 230.547C748.234 231.685 748.803 233.349 748.803 235.538V245.608C748.803 246.688 748.934 247.608 749.197 248.366C749.46 249.096 749.883 249.636 750.467 249.986H743.856C744.439 249.636 744.863 249.096 745.125 248.366C745.388 247.608 745.519 246.688 745.519 245.608V235.538ZM767.809 234.444C767.809 233.948 767.736 233.408 767.59 232.824C767.444 232.24 767.167 231.7 766.758 231.204C766.379 230.678 765.839 230.241 765.138 229.89C764.467 229.54 763.591 229.365 762.512 229.365C761.811 229.365 761.154 229.453 760.541 229.628C759.958 229.803 759.447 230.036 759.009 230.328C758.571 230.591 758.221 230.897 757.958 231.248C757.725 231.569 757.608 231.904 757.608 232.255C757.608 232.488 757.637 232.707 757.695 232.911C757.783 233.087 757.827 233.305 757.827 233.568C757.827 233.889 757.739 234.196 757.564 234.488C757.389 234.779 757.053 234.925 756.557 234.925C756.149 234.925 755.813 234.794 755.55 234.531C755.317 234.269 755.2 233.933 755.2 233.524C755.2 232.707 755.433 232.007 755.9 231.423C756.367 230.839 756.966 230.357 757.695 229.978C758.425 229.569 759.228 229.277 760.104 229.102C760.979 228.898 761.84 228.796 762.687 228.796C764.175 228.796 765.445 229 766.496 229.409C767.576 229.817 768.451 230.357 769.123 231.029C769.794 231.7 770.29 232.459 770.611 233.305C770.932 234.152 771.093 235.013 771.093 235.889V245.608C771.093 246.688 771.224 247.608 771.487 248.366C771.749 249.096 772.173 249.636 772.756 249.986H769.517C768.845 249.986 768.393 249.797 768.159 249.417C767.926 249.038 767.809 248.469 767.809 247.71V245.915C767.634 246.323 767.357 246.79 766.977 247.316C766.598 247.841 766.102 248.352 765.489 248.848C764.905 249.315 764.204 249.709 763.387 250.03C762.599 250.38 761.694 250.555 760.673 250.555C759.797 250.555 758.951 250.439 758.133 250.205C757.316 250.001 756.572 249.651 755.9 249.154C755.258 248.658 754.733 248.016 754.324 247.228C753.945 246.411 753.755 245.433 753.755 244.295C753.755 243.127 753.989 242.164 754.456 241.405C754.923 240.617 755.536 239.96 756.294 239.435C757.053 238.909 757.914 238.472 758.878 238.121C759.87 237.771 760.877 237.45 761.899 237.158C763.446 236.72 764.744 236.283 765.795 235.845C766.846 235.407 767.517 234.984 767.809 234.575V234.444ZM767.809 235.67C767.634 235.757 767.006 236.02 765.927 236.458C764.876 236.866 763.65 237.29 762.249 237.727C761.548 237.961 760.877 238.224 760.235 238.515C759.622 238.807 759.082 239.187 758.615 239.654C758.177 240.121 757.827 240.69 757.564 241.361C757.301 242.003 757.17 242.791 757.17 243.726C757.17 245.418 757.623 246.717 758.527 247.622C759.461 248.527 760.556 248.979 761.811 248.979C762.57 248.979 763.3 248.848 764 248.585C764.701 248.323 765.314 247.972 765.839 247.535C766.394 247.068 766.831 246.542 767.152 245.958C767.503 245.345 767.722 244.703 767.809 244.032V235.67ZM779.889 229.365H784.661C784.836 229.365 784.924 229.453 784.924 229.628C784.924 229.832 784.836 229.934 784.661 229.934H779.889V243.857C779.889 245.958 780.137 247.505 780.633 248.498C781.159 249.49 782.034 249.986 783.26 249.986C783.902 249.986 784.486 249.811 785.011 249.461C785.566 249.111 785.843 248.512 785.843 247.666C785.843 247.257 785.931 246.892 786.106 246.571C786.31 246.25 786.66 246.09 787.157 246.09C787.565 246.09 787.886 246.206 788.12 246.44C788.353 246.673 788.47 246.995 788.47 247.403C788.47 247.899 788.324 248.352 788.032 248.76C787.74 249.14 787.346 249.461 786.85 249.724C786.383 249.986 785.843 250.191 785.23 250.337C784.617 250.483 784.004 250.555 783.391 250.555C781.056 250.555 779.334 249.884 778.225 248.542C777.145 247.199 776.605 245.287 776.605 242.806V229.934H775.379C775.233 229.934 775.16 229.847 775.16 229.672V229.628C775.16 229.453 775.233 229.365 775.379 229.365H775.467C775.73 229.365 776.065 229.307 776.474 229.19C776.882 229.044 777.277 228.854 777.656 228.621C778.065 228.387 778.415 228.11 778.707 227.789C778.999 227.468 779.145 227.103 779.145 226.694C779.145 226.519 779.086 226.388 778.969 226.3C778.853 226.184 778.721 226.081 778.575 225.994C778.459 225.877 778.342 225.76 778.225 225.644C778.108 225.527 778.05 225.352 778.05 225.118C778.05 224.826 778.123 224.622 778.269 224.505C778.444 224.359 778.648 224.286 778.882 224.286C779.553 224.286 779.889 224.87 779.889 226.038V229.365ZM835.434 222.229C835.2 222.229 834.952 222.535 834.689 223.148L824.138 249.986H823.7L811.66 222.798C811.631 222.944 811.616 223.104 811.616 223.279C811.616 223.425 811.616 223.571 811.616 223.717V245.608C811.616 246.688 811.762 247.608 812.054 248.366C812.346 249.096 812.842 249.636 813.543 249.986H809.033C809.734 249.636 810.23 249.096 810.522 248.366C810.814 247.608 810.96 246.688 810.96 245.608V223.717C810.96 222.637 810.828 221.732 810.566 221.003C810.303 220.244 809.88 219.689 809.296 219.339H813.805L825.276 245.214L835.434 219.339H840.381C839.797 219.689 839.374 220.244 839.111 221.003C838.849 221.732 838.717 222.637 838.717 223.717V245.608C838.717 246.688 838.849 247.608 839.111 248.366C839.374 249.096 839.797 249.636 840.381 249.986H833.77C834.354 249.636 834.777 249.096 835.04 248.366C835.302 247.608 835.434 246.688 835.434 245.608V222.229ZM857.725 234.444C857.725 233.948 857.652 233.408 857.506 232.824C857.36 232.24 857.082 231.7 856.674 231.204C856.294 230.678 855.754 230.241 855.054 229.89C854.383 229.54 853.507 229.365 852.427 229.365C851.726 229.365 851.07 229.453 850.457 229.628C849.873 229.803 849.362 230.036 848.924 230.328C848.487 230.591 848.136 230.897 847.874 231.248C847.64 231.569 847.523 231.904 847.523 232.255C847.523 232.488 847.553 232.707 847.611 232.911C847.698 233.087 847.742 233.305 847.742 233.568C847.742 233.889 847.655 234.196 847.48 234.488C847.304 234.779 846.969 234.925 846.473 234.925C846.064 234.925 845.728 234.794 845.466 234.531C845.232 234.269 845.115 233.933 845.115 233.524C845.115 232.707 845.349 232.007 845.816 231.423C846.283 230.839 846.881 230.357 847.611 229.978C848.341 229.569 849.143 229.277 850.019 229.102C850.895 228.898 851.756 228.796 852.602 228.796C854.091 228.796 855.36 229 856.411 229.409C857.491 229.817 858.367 230.357 859.038 231.029C859.709 231.7 860.206 232.459 860.527 233.305C860.848 234.152 861.008 235.013 861.008 235.889V245.608C861.008 246.688 861.14 247.608 861.402 248.366C861.665 249.096 862.088 249.636 862.672 249.986H859.432C858.761 249.986 858.308 249.797 858.075 249.417C857.841 249.038 857.725 248.469 857.725 247.71V245.915C857.549 246.323 857.272 246.79 856.893 247.316C856.513 247.841 856.017 248.352 855.404 248.848C854.82 249.315 854.12 249.709 853.303 250.03C852.514 250.38 851.61 250.555 850.588 250.555C849.712 250.555 848.866 250.439 848.049 250.205C847.231 250.001 846.487 249.651 845.816 249.154C845.174 248.658 844.648 248.016 844.24 247.228C843.86 246.411 843.671 245.433 843.671 244.295C843.671 243.127 843.904 242.164 844.371 241.405C844.838 240.617 845.451 239.96 846.21 239.435C846.969 238.909 847.83 238.472 848.793 238.121C849.785 237.771 850.792 237.45 851.814 237.158C853.361 236.72 854.66 236.283 855.711 235.845C856.761 235.407 857.433 234.984 857.725 234.575V234.444ZM857.725 235.67C857.549 235.757 856.922 236.02 855.842 236.458C854.791 236.866 853.565 237.29 852.164 237.727C851.464 237.961 850.792 238.224 850.15 238.515C849.537 238.807 848.997 239.187 848.53 239.654C848.093 240.121 847.742 240.69 847.48 241.361C847.217 242.003 847.086 242.791 847.086 243.726C847.086 245.418 847.538 246.717 848.443 247.622C849.377 248.527 850.471 248.979 851.726 248.979C852.485 248.979 853.215 248.848 853.916 248.585C854.616 248.323 855.229 247.972 855.754 247.535C856.309 247.068 856.747 246.542 857.068 245.958C857.418 245.345 857.637 244.703 857.725 244.032V235.67ZM869.804 229.365H874.576C874.752 229.365 874.839 229.453 874.839 229.628C874.839 229.832 874.752 229.934 874.576 229.934H869.804V243.857C869.804 245.958 870.052 247.505 870.549 248.498C871.074 249.49 871.95 249.986 873.175 249.986C873.818 249.986 874.401 249.811 874.927 249.461C875.481 249.111 875.759 248.512 875.759 247.666C875.759 247.257 875.846 246.892 876.021 246.571C876.226 246.25 876.576 246.09 877.072 246.09C877.481 246.09 877.802 246.206 878.035 246.44C878.269 246.673 878.386 246.995 878.386 247.403C878.386 247.899 878.24 248.352 877.948 248.76C877.656 249.14 877.262 249.461 876.766 249.724C876.299 249.986 875.759 250.191 875.146 250.337C874.533 250.483 873.92 250.555 873.307 250.555C870.972 250.555 869.25 249.884 868.141 248.542C867.061 247.199 866.521 245.287 866.521 242.806V229.934H865.295C865.149 229.934 865.076 229.847 865.076 229.672V229.628C865.076 229.453 865.149 229.365 865.295 229.365H865.382C865.645 229.365 865.981 229.307 866.389 229.19C866.798 229.044 867.192 228.854 867.571 228.621C867.98 228.387 868.33 228.11 868.622 227.789C868.914 227.468 869.06 227.103 869.06 226.694C869.06 226.519 869.002 226.388 868.885 226.3C868.768 226.184 868.637 226.081 868.491 225.994C868.374 225.877 868.257 225.76 868.141 225.644C868.024 225.527 867.965 225.352 867.965 225.118C867.965 224.826 868.038 224.622 868.184 224.505C868.359 224.359 868.564 224.286 868.797 224.286C869.469 224.286 869.804 224.87 869.804 226.038V229.365ZM884.213 229.365H888.985C889.16 229.365 889.248 229.453 889.248 229.628C889.248 229.832 889.16 229.934 888.985 229.934H884.213V243.857C884.213 245.958 884.461 247.505 884.957 248.498C885.483 249.49 886.358 249.986 887.584 249.986C888.226 249.986 888.81 249.811 889.335 249.461C889.89 249.111 890.167 248.512 890.167 247.666C890.167 247.257 890.255 246.892 890.43 246.571C890.634 246.25 890.985 246.09 891.481 246.09C891.889 246.09 892.21 246.206 892.444 246.44C892.677 246.673 892.794 246.995 892.794 247.403C892.794 247.899 892.648 248.352 892.356 248.76C892.065 249.14 891.67 249.461 891.174 249.724C890.707 249.986 890.167 250.191 889.554 250.337C888.941 250.483 888.328 250.555 887.716 250.555C885.38 250.555 883.658 249.884 882.549 248.542C881.469 247.199 880.929 245.287 880.929 242.806V229.934H879.703C879.557 229.934 879.485 229.847 879.485 229.672V229.628C879.485 229.453 879.557 229.365 879.703 229.365H879.791C880.054 229.365 880.389 229.307 880.798 229.19C881.207 229.044 881.601 228.854 881.98 228.621C882.389 228.387 882.739 228.11 883.031 227.789C883.323 227.468 883.469 227.103 883.469 226.694C883.469 226.519 883.41 226.388 883.294 226.3C883.177 226.184 883.045 226.081 882.899 225.994C882.783 225.877 882.666 225.76 882.549 225.644C882.432 225.527 882.374 225.352 882.374 225.118C882.374 224.826 882.447 224.622 882.593 224.505C882.768 224.359 882.972 224.286 883.206 224.286C883.877 224.286 884.213 224.87 884.213 226.038V229.365ZM894.769 239.654C894.769 237.727 895.075 236.078 895.688 234.706C896.301 233.335 897.089 232.211 898.053 231.335C899.045 230.46 900.169 229.817 901.424 229.409C902.708 229 904.007 228.796 905.32 228.796C906.751 228.796 908.006 229 909.086 229.409C910.195 229.817 911.1 230.343 911.8 230.985C912.53 231.627 913.07 232.342 913.42 233.13C913.799 233.918 913.989 234.677 913.989 235.407L898.578 242.719C898.841 243.74 899.22 244.674 899.716 245.521C900.242 246.367 900.855 247.097 901.555 247.71C902.285 248.323 903.102 248.804 904.007 249.154C904.912 249.476 905.89 249.636 906.94 249.636C907.495 249.636 908.064 249.549 908.648 249.373C909.261 249.198 909.801 248.936 910.268 248.585C910.764 248.235 911.158 247.797 911.45 247.272C911.771 246.746 911.931 246.134 911.931 245.433C911.931 245.229 911.902 245.054 911.844 244.908C911.785 244.762 911.713 244.63 911.625 244.514C911.567 244.368 911.508 244.236 911.45 244.12C911.391 243.974 911.362 243.798 911.362 243.594C911.362 243.331 911.45 243.054 911.625 242.762C911.8 242.47 912.136 242.324 912.632 242.324C913.041 242.324 913.362 242.456 913.595 242.719C913.858 242.981 913.989 243.317 913.989 243.726C913.989 244.747 913.741 245.681 913.245 246.528C912.749 247.374 912.107 248.104 911.318 248.717C910.56 249.3 909.699 249.753 908.735 250.074C907.772 250.395 906.824 250.555 905.89 250.555C903.963 250.555 902.299 250.249 900.898 249.636C899.497 248.994 898.344 248.162 897.44 247.141C896.535 246.119 895.863 244.966 895.426 243.682C894.988 242.368 894.769 241.026 894.769 239.654ZM911.275 236.02C911.245 235.349 911.114 234.619 910.881 233.831C910.676 233.043 910.341 232.328 909.874 231.685C909.407 231.014 908.794 230.46 908.035 230.022C907.276 229.584 906.357 229.365 905.277 229.365C904.401 229.365 903.54 229.511 902.693 229.803C901.847 230.095 901.088 230.606 900.417 231.335C899.745 232.036 899.191 232.999 898.753 234.225C898.344 235.422 898.14 236.939 898.14 238.778C898.14 240.033 898.242 241.157 898.447 242.149L911.275 236.02ZM922.495 245.608C922.495 246.688 922.626 247.608 922.889 248.366C923.152 249.096 923.575 249.636 924.159 249.986H917.547C918.131 249.636 918.554 249.096 918.817 248.366C919.08 247.608 919.211 246.688 919.211 245.608V233.656C919.211 232.605 919.08 231.715 918.817 230.985C918.554 230.255 918.131 229.715 917.547 229.365H920.787C921.459 229.365 921.911 229.555 922.145 229.934C922.378 230.284 922.495 230.839 922.495 231.598V231.861C922.699 231.51 922.962 231.16 923.283 230.81C923.604 230.46 923.983 230.139 924.421 229.847C924.859 229.526 925.355 229.277 925.91 229.102C926.494 228.898 927.121 228.796 927.792 228.796C928.464 228.796 929.106 228.883 929.719 229.059C930.332 229.205 930.872 229.438 931.339 229.759C931.835 230.051 932.229 230.416 932.521 230.854C932.813 231.291 932.959 231.773 932.959 232.298C932.959 233.203 932.506 233.656 931.601 233.656C931.105 233.656 930.77 233.466 930.594 233.087C930.419 232.707 930.332 232.386 930.332 232.123C930.332 231.51 930.142 230.956 929.763 230.46C929.383 229.934 928.639 229.672 927.53 229.672C926.742 229.672 926.027 229.817 925.384 230.109C924.771 230.401 924.246 230.751 923.808 231.16C923.4 231.569 923.079 232.021 922.845 232.517C922.612 233.014 922.495 233.451 922.495 233.831V245.608Z" fill="#FF4D00"/>
<path d="M379.688 79.6797H406.817V80.3753C405.947 82.636 405.425 85.0706 405.425 87.5051C405.425 88.3746 405.599 89.7658 405.773 92.0265C405.947 94.1133 406.643 97.0696 408.208 100.721C409.251 103.33 410.642 106.808 412.555 111.155C414.294 115.677 416.207 120.72 418.468 126.285C420.729 132.023 422.989 137.936 425.598 144.022C428.032 150.283 430.467 156.369 432.901 162.282C435.162 168.368 437.423 173.933 439.51 179.324C441.596 184.715 443.335 189.236 444.727 192.888C445.074 193.757 445.596 194.105 446.292 194.279H446.813C447.335 194.279 447.683 194.105 448.031 193.583C451.335 189.062 454.117 183.149 456.204 175.672C458.117 168.368 459.856 160.543 461.247 152.022C462.464 143.674 463.682 135.153 464.725 126.632C465.594 118.111 466.812 110.286 468.203 103.33C469.42 96.5479 471.159 90.8092 473.072 86.4617C474.985 82.1143 477.42 80.0275 480.55 80.0275H498.983V80.5492C496.548 81.4187 494.114 83.5055 491.853 86.4617C489.592 89.5919 487.332 93.4177 485.245 97.9391C482.984 102.46 480.898 107.503 478.985 113.068C476.898 118.807 474.811 124.546 472.898 130.632C470.985 136.718 468.899 142.805 466.986 148.891C464.899 154.978 462.812 160.89 460.725 166.455C458.986 171.15 457.421 175.672 456.03 180.193C454.465 184.888 452.726 188.888 450.813 192.192C448.9 195.496 446.466 198.105 443.683 199.844C441.596 201.061 439.162 201.757 436.379 201.757C435.162 201.757 433.771 201.583 432.38 201.409L432.554 201.235C425.772 184.193 419.511 168.716 413.773 154.63C411.338 148.544 408.903 142.631 406.469 136.545C404.034 130.632 401.774 125.067 399.861 120.024C397.774 114.981 396.035 110.634 394.47 106.982C392.905 103.33 391.861 100.895 391.34 99.5041C390.47 97.5913 389.775 96.0262 389.253 94.4611C388.557 92.896 387.862 91.5048 387.166 89.9397C386.297 88.3746 385.427 86.9834 384.21 85.4183C382.993 83.8533 381.601 82.2882 379.688 80.3753V79.6797Z" fill="#FF4D00"/>
<path d="M504.209 201.409V200.539C505.079 200.192 506.122 199.148 506.992 197.235C507.861 195.322 508.383 193.236 508.383 190.801V90.2875C508.383 87.8529 507.861 85.7661 506.992 83.8533C506.122 81.9404 505.079 80.897 504.209 80.5492V79.6797H574.291C576.204 79.6797 577.595 80.2014 578.638 81.2448C579.508 82.2882 580.203 83.5055 580.377 84.8967C580.551 85.5923 580.551 86.4617 580.551 87.1573C580.551 88.0268 580.377 89.0702 580.203 90.4614C580.029 91.6787 579.508 93.0699 578.812 94.4611C576.899 92.5482 574.465 90.9831 571.334 89.418C568.03 87.8529 564.552 86.6356 560.553 85.4183C556.553 84.375 552.206 83.5055 547.858 82.8099C543.337 82.2882 538.815 81.9404 534.468 81.7665H525.425C524.73 82.636 524.208 83.8533 523.686 85.4183C523.164 86.9834 522.817 88.5485 522.817 90.4614V153.413C523.512 151.5 524.556 149.065 525.947 145.935C527.164 142.805 529.077 139.675 531.512 136.371C533.772 133.241 536.729 130.284 540.38 127.676C543.858 125.067 548.032 123.154 553.075 122.285C553.771 122.111 554.292 122.111 554.988 122.111C556.031 122.111 557.249 122.459 558.118 122.98C559.161 123.502 560.031 124.372 560.553 125.589C560.9 126.458 561.074 127.328 561.074 128.197C561.074 128.545 560.9 129.241 560.727 130.11C560.553 130.98 560.031 131.675 558.988 132.371C557.77 132.197 556.553 132.197 555.51 132.197C552.032 132.197 548.728 132.719 545.597 133.588C542.293 134.458 539.337 135.849 536.729 137.588C534.12 139.501 531.859 141.414 530.12 143.674C528.381 145.935 526.99 148.196 525.947 150.283C524.73 152.369 524.034 154.108 523.686 155.5C523.164 157.065 522.991 157.934 522.817 158.282V190.801C522.817 192.714 523.164 194.279 523.686 195.844C524.208 197.409 524.73 198.626 525.425 199.496H534.468C538.815 199.322 543.337 198.974 547.858 198.279C552.206 197.757 556.553 196.887 560.553 195.67C564.552 194.627 568.03 193.409 571.334 191.844C574.465 190.279 576.899 188.714 578.812 186.801V186.627C579.508 188.019 580.029 189.584 580.377 191.323C580.551 192.192 580.551 193.062 580.551 193.757C580.551 194.627 580.551 195.496 580.377 196.54C580.203 197.757 579.508 198.8 578.638 199.844C577.595 200.887 576.204 201.409 574.291 201.409H504.209Z" fill="#FF4D00"/>
<path d="M635.767 79.8536C641.853 79.8536 647.07 80.897 651.417 83.1577C655.591 85.4183 658.895 88.2007 661.156 91.6787C663.416 95.3306 664.808 99.1564 665.155 103.33C665.155 104.199 665.329 104.895 665.329 105.765C665.329 109.242 664.634 112.72 663.243 116.546C661.851 120.198 659.417 123.85 655.939 127.154C652.461 130.632 648.113 133.24 642.723 135.153C639.766 136.023 637.158 136.892 634.723 137.588C632.289 138.457 630.028 139.327 627.767 140.37C632.463 140.892 636.462 142.805 639.766 145.761C643.07 148.891 645.853 152.543 648.461 156.891C651.07 161.238 653.33 165.76 655.243 170.455C657.156 175.15 659.243 179.671 661.156 183.671C663.069 187.671 665.155 191.149 667.416 193.757C669.677 196.366 672.285 197.757 675.415 197.757C677.502 197.757 679.937 196.887 682.545 195.322L682.719 196.714C679.415 198.974 676.285 200.539 673.329 201.409C670.372 202.278 667.764 202.8 665.329 202.8C661.677 202.8 658.547 201.757 655.939 199.844C653.156 197.931 650.722 195.496 648.809 192.366C646.722 189.41 644.983 185.932 643.418 181.932C641.853 177.932 640.288 173.933 639.071 169.933C637.679 165.933 636.462 161.934 635.245 158.108C634.028 154.456 632.81 151.152 631.419 148.37C630.55 146.457 629.506 145.066 628.463 144.196C627.419 143.501 626.202 143.153 624.985 143.153C623.072 143.153 620.985 144.022 619.072 145.935C617.159 147.848 615.42 150.283 614.029 152.891H612.116C613.334 150.283 614.725 147.848 616.638 145.935C618.551 144.022 620.464 142.283 622.55 140.718C624.637 139.153 626.724 137.936 628.811 136.718C630.897 135.501 632.81 134.458 634.549 133.414C638.897 130.806 642.201 127.676 644.635 124.024C647.07 120.546 648.635 116.894 649.505 113.068C649.852 111.155 650.026 109.242 650.026 107.33C650.026 105.417 649.852 102.982 649.331 100.2C648.809 97.4174 647.418 94.4611 645.331 91.5048C643.244 88.5485 640.636 86.2878 637.332 84.375C634.028 82.636 630.202 81.7665 625.854 81.7665H608.291C607.595 82.636 607.073 83.8533 606.552 85.4183C606.03 86.9834 605.682 88.5485 605.682 90.4614C605.682 106.982 605.682 123.502 605.856 140.023C606.03 156.543 606.03 173.063 606.03 189.584C606.03 190.453 606.204 191.323 606.378 192.54C606.552 193.757 606.725 194.801 607.247 195.844C607.595 197.061 608.117 197.931 608.638 198.8C609.16 199.67 609.856 200.192 610.725 200.539V201.409H587.423V200.539C588.292 200.192 589.336 199.148 590.205 197.235C591.075 195.322 591.596 193.236 591.596 190.801V90.4614C591.596 88.0268 591.075 85.94 590.205 84.0272C589.336 82.1143 588.292 81.0709 587.423 80.7231V79.8536H635.767Z" fill="#FF4D00"/>
<path d="M687.109 201.409V200.539C687.978 200.192 689.022 199.148 689.891 197.235C690.761 195.322 691.282 193.236 691.282 190.801V90.2875C691.282 87.8529 690.761 85.7661 689.891 83.8533C689.022 81.9404 687.978 80.897 687.109 80.5492V79.6797H737.713C745.017 79.6797 751.451 81.4187 757.016 84.8967C762.581 88.3746 767.276 92.896 770.928 98.6347C774.58 104.373 777.188 110.808 779.101 118.111C781.014 125.415 781.884 132.893 781.884 140.37C781.884 148.022 781.014 155.5 779.101 162.803C777.188 170.107 774.58 176.541 770.928 182.28C767.276 188.019 762.581 192.714 757.19 196.192C751.625 199.67 745.191 201.409 737.713 201.409H687.109ZM705.89 190.627C705.89 192.54 706.238 194.105 706.759 195.67C707.281 197.235 707.803 198.453 708.498 199.322H728.671C735.105 199.322 740.67 197.583 745.365 194.279C750.06 190.975 754.06 186.454 757.364 180.889C760.494 175.324 762.929 169.064 764.494 161.934C766.059 154.978 766.928 147.848 766.928 140.37C766.928 132.893 766.059 125.763 764.494 118.633C762.929 111.677 760.494 105.417 757.364 99.8519C754.06 94.2872 750.06 89.7658 745.365 86.4617C740.67 83.1577 735.105 81.4187 728.671 81.4187H708.498C707.803 82.2882 707.281 83.5055 706.759 85.0706C706.238 86.6356 705.89 88.2007 705.89 90.1136V190.627Z" fill="#FF4D00"/>
<path d="M790.531 201.409V200.539C791.401 200.192 792.444 199.148 793.313 197.235C794.183 195.322 794.705 193.236 794.705 190.801V90.2875C794.705 87.8529 794.183 85.7661 793.313 83.8533C792.444 81.9404 791.401 80.897 790.531 80.5492V79.6797H860.612C862.525 79.6797 863.916 80.2014 864.96 81.2448C865.829 82.2882 866.525 83.5055 866.699 84.8967C866.873 85.5923 866.873 86.4617 866.873 87.1573C866.873 88.0268 866.699 89.0702 866.525 90.4614C866.351 91.6787 865.829 93.0699 865.134 94.4611C863.221 92.5482 860.786 90.9831 857.656 89.418C854.352 87.8529 850.874 86.6356 846.874 85.4183C842.875 84.375 838.527 83.5055 834.18 82.8099C829.658 82.2882 825.137 81.9404 820.789 81.7665H811.747C811.051 82.636 810.529 83.8533 810.008 85.4183C809.486 86.9834 809.138 88.5485 809.138 90.4614V153.413C809.834 151.5 810.877 149.065 812.268 145.935C813.486 142.805 815.399 139.675 817.833 136.371C820.094 133.241 823.05 130.284 826.702 127.676C830.18 125.067 834.353 123.154 839.397 122.285C840.092 122.111 840.614 122.111 841.309 122.111C842.353 122.111 843.57 122.459 844.44 122.98C845.483 123.502 846.353 124.372 846.874 125.589C847.222 126.458 847.396 127.328 847.396 128.197C847.396 128.545 847.222 129.241 847.048 130.11C846.874 130.98 846.353 131.675 845.309 132.371C844.092 132.197 842.875 132.197 841.831 132.197C838.353 132.197 835.049 132.719 831.919 133.588C828.615 134.458 825.659 135.849 823.05 137.588C820.442 139.501 818.181 141.414 816.442 143.674C814.703 145.935 813.312 148.196 812.268 150.283C811.051 152.369 810.355 154.108 810.008 155.5C809.486 157.065 809.312 157.934 809.138 158.282V190.801C809.138 192.714 809.486 194.279 810.008 195.844C810.529 197.409 811.051 198.626 811.747 199.496H820.789C825.137 199.322 829.658 198.974 834.18 198.279C838.527 197.757 842.875 196.887 846.874 195.67C850.874 194.627 854.352 193.409 857.656 191.844C860.786 190.279 863.221 188.714 865.134 186.801V186.627C865.829 188.019 866.351 189.584 866.699 191.323C866.873 192.192 866.873 193.062 866.873 193.757C866.873 194.627 866.873 195.496 866.699 196.54C866.525 197.757 865.829 198.8 864.96 199.844C863.916 200.887 862.525 201.409 860.612 201.409H790.531Z" fill="#FF4D00"/>
<path d="M872.005 201.409V200.887C874.614 198.8 877.396 195.496 880.179 191.149C882.787 186.801 885.048 182.454 886.787 177.759C887.482 175.846 888.526 172.889 890.091 169.064C891.482 165.238 893.221 160.89 895.134 155.847C897.047 150.978 898.96 145.761 901.22 140.023C903.307 134.284 905.394 128.719 907.481 122.98C912.524 109.764 917.915 95.3306 923.827 79.6797H938.435C945.217 96.7218 951.477 112.373 957.216 126.458C959.65 132.545 962.085 138.457 964.519 144.37C966.954 150.283 969.215 155.673 971.301 160.717C973.214 165.76 974.953 170.281 976.518 173.933C978.084 177.585 979.127 180.193 979.649 181.584C980.518 183.497 981.214 185.062 981.909 186.627C982.431 188.192 983.127 189.584 983.996 191.149C984.692 192.714 985.561 194.105 986.778 195.67C987.996 197.235 989.387 198.8 991.3 200.713V201.409H962.433V200.713C963.476 198.279 963.824 195.67 963.824 192.888C963.824 192.366 963.824 190.975 963.65 188.888C963.476 186.975 962.607 184.019 961.041 180.367C959.129 175.498 956.868 171.324 954.085 167.672C951.303 164.021 948.347 161.064 945.043 158.63C941.739 156.195 938.261 154.282 934.609 153.065C930.957 151.848 927.131 151.326 923.479 151.326C919.827 151.326 916.349 151.848 913.045 153.065C909.567 154.282 906.437 156.195 903.481 158.456C900.525 160.89 898.09 163.847 895.829 167.499C893.569 171.15 892.004 175.498 890.786 180.367C890.265 182.802 889.917 185.236 889.917 187.497C889.917 192.366 891.134 196.714 893.569 200.887L893.743 201.409H872.005ZM924.001 84.375C923.827 85.0706 923.131 86.9834 922.088 89.9397C920.871 92.896 919.48 96.7218 917.915 101.243C916.176 105.938 914.263 110.981 912.176 116.546C910.089 122.285 908.002 128.024 905.742 133.762C903.481 139.675 901.394 145.413 899.307 151.152C897.221 156.891 895.308 162.108 893.743 166.803C897.047 160.89 901.394 156.543 906.785 153.761C912.176 150.978 917.741 149.587 923.653 149.587C929.914 149.587 936 150.978 942.086 153.934C948.173 156.891 953.216 161.238 957.216 166.803L924.001 84.5489V84.375Z" fill="#FF4D00"/>
<defs>
<filter id="filter0_f_881_869" x="-0.000195503" y="0.000781059" width="350.614" height="342.663" filterUnits="userSpaceOnUse" color-interpolation-filters="sRGB">
<feFlood flood-opacity="0" result="BackgroundImageFix"/>
<feBlend mode="normal" in="SourceGraphic" in2="BackgroundImageFix" result="shape"/>
<feGaussianBlur stdDeviation="2.65" result="effect1_foregroundBlur_881_869"/>
</filter>
</defs>
</svg>
