<svg width="494" height="250" fill="none" xmlns="http://www.w3.org/2000/svg"><path d="M50.596 215.69L71.67 250H61.378l-21.075-34.31h10.293zm43.817 0L73.338 250H63.045l21.075-34.31h10.293zm-31.466 26.467h9.802V250h-9.802v-7.843zM95.215 231.865c0-10.783 5.391-16.175 16.174-16.175h23.526c10.783 0 16.174 5.392 16.174 16.175v1.96c0 10.783-5.391 16.175-16.174 16.175h-23.526c-10.783 0-16.174-5.392-16.174-16.175v-1.96zm17.154-7.842c-5.228 0-7.842 2.614-7.842 7.842v1.96c0 5.228 2.614 7.842 7.842 7.842h21.566c5.228 0 7.842-2.614 7.842-7.842v-1.96c0-5.228-2.614-7.842-7.842-7.842h-21.566zM154.53 215.69h9.312V250h-9.312v-34.31zM167.273 215.69h9.313V250h-9.313v-34.31zm9.313 0h28.623c11.306 0 16.959 5.392 16.959 16.175v1.96c0 10.783-5.653 16.175-16.959 16.175h-28.623v-8.333h27.937c5.555 0 8.332-2.614 8.332-7.842v-1.96c0-5.228-2.777-7.842-8.332-7.842h-27.937v-8.333zM268.225 224.023h19.115l-29.898 17.644h-19.115l29.898-17.644zm19.115-8.333v8.333h-49.013v-8.333h49.013zm0 25.977V250h-49.013v-8.333h49.013zM290.75 215.69h9.312V250h-9.312v-34.31zm47.542 0v8.333H290.75v-8.333h47.542zm0 25.977V250H290.75v-8.333h47.542zm-1.96-12.253v6.862H290.75v-6.862h45.582zM351.049 215.69V250h-9.312v-34.31h9.312zm29.408 15.194c3.267 0 4.901-1.16 4.901-3.479 0-2.255-1.634-3.382-4.901-3.382h-29.408v-8.333h29.604c4.574 0 8.054 1.013 10.44 3.039 2.385 1.993 3.578 4.918 3.578 8.774 0 3.855-1.193 6.78-3.578 8.773-2.353 1.96-5.833 2.941-10.44 2.941h-29.604v-8.333h29.408zm-12.744 1.961h12.254L394.671 250h-12.254l-14.704-17.155zM398.084 231.865c0-10.783 5.392-16.175 16.175-16.175h23.526c10.783 0 16.174 5.392 16.174 16.175v1.96c0 10.783-5.391 16.175-16.174 16.175h-23.526c-10.783 0-16.175-5.392-16.175-16.175v-1.96zm17.155-7.842c-5.228 0-7.842 2.614-7.842 7.842v1.96c0 5.228 2.614 7.842 7.842 7.842h21.566c5.228 0 7.842-2.614 7.842-7.842v-1.96c0-5.228-2.614-7.842-7.842-7.842h-21.566zM104.508 115.961h6.012L117.108 0h61.173c-13.573 4.161-24.841 10.638-33.609 19.618l-.025.025c-16.658 17.267-24.391 43.748-24.391 78.166 0 34.46 7.843 61.24 24.6 79.209l.023.022c7.215 7.65 16.117 13.548 26.594 17.803l-.537 3.006H36.649L0 0h97.065l7.443 115.961z" fill="#FF4D00"/><path fill-rule="evenodd" clip-rule="evenodd" d="M395.209 0c31.877 0 56.215 7.636 73.013 22.906 16.988 15.27 25.484 40.18 25.484 74.73 0 66.808-34.168 100.213-102.503 100.213h-50.68V0h54.686zm2.529 132.855h8.019c2.29 0 4.2-.766 5.727-2.292 1.717-1.527 2.575-3.531 2.575-6.012V91.338c0-2.29-.858-4.2-2.575-5.726-1.527-1.527-3.437-2.293-5.727-2.293h-8.019v49.536z" fill="#FF4D00"/><path d="M334.796 197.849H229.203c14.217-4.289 25.941-11.164 34.952-20.834l-.003-.003c16.756-17.969 24.603-44.744 24.603-79.203 0-34.418-7.733-60.9-24.391-78.166-8.678-8.996-19.885-15.48-33.422-19.643h103.854v197.849zM205.282 83.59c2.408 0 4.353.74 5.835 2.222 1.667 1.482 2.5 3.335 2.5 5.558v32.233c0 2.408-.833 4.353-2.5 5.835-1.482 1.482-3.427 2.223-5.835 2.223-2.223 0-4.076-.741-5.558-2.223-1.297-1.482-1.945-3.427-1.945-5.835V91.37c0-2.223.648-4.076 1.945-5.558 1.482-1.481 3.335-2.222 5.558-2.222z" fill="#FF4D00"/></svg>